<?xml version="1.0" encoding="utf-8"?>
<!-- Generator: Adobe Illustrator 24.0.3, SVG Export Plug-In . SVG Version: 6.00 Build 0)  -->
<svg version="1.1" id="圖層_1" xmlns="http://www.w3.org/2000/svg" xmlns:xlink="http://www.w3.org/1999/xlink" x="0px" y="0px"
	 viewBox="0 0 72 41.3" style="enable-background:new 0 0 72 41.3;" xml:space="preserve">
<style type="text/css">
	.st0{fill:#15B0BF;}
</style>
<g id="Group_3" transform="translate(218.848 -526.017)">
	<g id="Group_2" transform="translate(-218.848 526.017)">
		<g id="Group_1">
			<path id="Path_1" class="st0" d="M-0.08,5.03c0,1.41,0.56,2.77,1.56,3.76l30.68,30.66c2.08,2.08,5.45,2.08,7.53,0L70.36,8.79
				c2.08-2.08,2.08-5.45,0-7.53c0,0,0,0,0,0c-2.08-2.07-5.45-2.07-7.53,0l-26.9,26.89L9,1.26c-2.08-2.07-5.44-2.07-7.52,0
				C0.48,2.26-0.08,3.61-0.08,5.03L-0.08,5.03z"/>
		</g>
	</g>
</g>
</svg>
