<svg width="831" height="320" viewBox="0 0 831 320" fill="none" xmlns="http://www.w3.org/2000/svg">
<g clip-path="url(#clip0_86_26)">
<path d="M115.363 289.546C107.119 289.546 101.179 286.758 97.5416 281.181C93.9046 275.362 92.0861 268.209 92.0861 259.722C92.0861 251.236 93.5409 242.871 96.4505 234.627L100.088 224.079L86.6306 244.811C83.236 250.145 78.7503 256.207 73.1736 262.996C67.8393 269.542 62.1413 275.24 56.0795 280.09C48.3206 286.394 41.289 289.546 34.9848 289.546C28.9231 289.546 24.195 287 20.8004 281.908C17.6483 276.816 16.0723 270.391 16.0723 262.632C16.0723 257.298 16.7997 251.963 18.2545 246.629C21.8915 233.051 27.4683 220.685 34.9848 209.531C42.5013 198.135 51.9576 188.315 63.3536 180.071C68.203 176.434 74.3859 173.525 81.9024 171.343C89.4189 168.918 96.9355 167.706 104.452 167.706C107.362 167.706 110.271 167.948 113.181 168.433C116.09 168.918 118.758 169.524 121.182 170.252C123.122 165.887 125.304 161.038 127.729 155.703C130.396 150.369 132.942 145.156 135.367 140.064C138.034 134.73 140.216 130.365 141.913 126.971C146.763 117.03 152.824 105.149 160.098 91.3281C167.373 77.5074 175.859 64.6566 185.558 52.7756C193.074 43.3193 201.682 35.0754 211.381 28.0438C221.322 20.7698 230.899 17.1328 240.113 17.1328C245.69 17.1328 249.812 18.83 252.479 22.2246C255.388 25.6192 256.843 29.7411 256.843 34.5905C256.843 38.9549 255.995 42.9556 254.297 46.5927C250.418 55.3215 244.235 64.5353 235.749 74.2341C227.505 83.9328 218.533 93.3891 208.835 102.603C199.378 111.574 190.892 119.697 183.375 126.971C177.071 133.033 171.494 138.367 166.645 142.974C161.796 147.338 157.31 151.703 153.188 156.067C149.066 160.432 144.58 165.281 139.731 170.615C134.397 182.739 129.426 194.862 124.819 206.985C120.455 219.109 116.818 230.384 113.908 240.81C111.241 251.236 109.908 259.965 109.908 266.996C109.908 276.938 112.938 282.272 119 282.999C123.122 282.999 127.002 281.666 130.639 278.999C134.276 276.331 137.428 273.422 140.095 270.27C145.672 264.208 150.763 257.54 155.37 250.266C159.977 242.992 164.584 235.233 169.191 226.989C169.918 226.019 170.646 225.534 171.373 225.534C172.343 225.534 172.828 226.262 172.828 227.716C172.828 228.929 172.586 229.899 172.101 230.626C167.736 238.628 163.008 246.629 157.916 254.63C153.067 262.632 147.126 270.148 140.095 277.18C136.943 280.332 133.306 283.242 129.184 285.909C125.062 288.334 120.455 289.546 115.363 289.546ZM145.55 157.886C151.127 151.581 156.34 146.005 161.19 141.155C166.039 136.063 171.979 129.881 179.011 122.606C185.8 115.817 193.559 107.816 202.288 98.6021C211.259 89.3883 219.624 80.0533 227.383 70.597C235.385 61.1408 241.204 52.7756 244.841 45.5016C247.751 39.6823 249.206 34.9542 249.206 31.3172C249.206 25.2555 246.175 22.2246 240.113 22.2246C232.596 22.2246 224.716 25.7404 216.472 32.772C208.471 39.5611 200.591 48.8961 192.832 60.7771C186.285 70.9607 180.102 82.1143 174.283 94.2377C168.464 106.119 163.129 117.636 158.28 128.789C153.431 139.943 149.187 149.642 145.55 157.886ZM42.6226 278.271C46.987 278.271 52.2001 275.362 58.2618 269.542C64.5659 263.481 70.9913 256.085 77.538 247.356C84.3271 238.385 90.51 229.656 96.0868 221.17C97.7841 218.745 99.9663 214.744 102.633 209.168C105.543 203.591 108.574 197.65 111.726 191.346C114.878 184.8 117.545 179.102 119.727 174.252C118.273 173.767 116.818 173.525 115.363 173.525C114.151 173.525 112.817 173.525 111.362 173.525C103.846 173.525 96.3293 175.586 88.8128 179.708C81.5387 183.587 74.9921 188.8 69.1728 195.347C60.9289 204.318 54.0186 214.017 48.4418 224.443C42.865 234.627 38.9855 243.598 36.8033 251.357C35.591 255.722 34.9848 260.207 34.9848 264.814C34.9848 268.451 35.4697 271.603 36.4396 274.27C37.652 276.938 39.7129 278.271 42.6226 278.271ZM209.113 290.273C195.292 290.273 184.503 286.515 176.744 278.999C169.227 271.482 165.469 261.42 165.469 248.811C165.469 244.447 165.954 239.84 166.924 234.991C167.893 229.899 169.469 224.686 171.652 219.351C175.046 211.35 179.411 203.47 184.745 195.711C190.079 187.952 196.505 181.405 204.021 176.071C211.538 170.736 219.903 167.706 229.117 166.978C232.511 166.736 235.663 166.978 238.573 167.706C241.483 168.433 244.028 169.888 246.211 172.07C248.15 173.767 249.484 175.95 250.211 178.617C251.181 181.041 251.666 183.587 251.666 186.254C251.666 193.771 249.363 201.409 244.756 209.168C240.149 216.684 234.33 222.988 227.298 228.08C220.267 233.172 212.993 235.718 205.476 235.718C198.687 235.718 192.746 233.293 187.655 228.444C185.472 235.96 184.381 243.477 184.381 250.993C184.381 260.207 186.442 268.087 190.564 274.634C194.929 280.938 202.324 284.09 212.75 284.09C223.176 284.09 232.148 281.302 239.664 275.725C247.423 270.148 254.091 263.238 259.668 254.994C265.487 246.508 270.579 238.385 274.943 230.626C275.428 229.899 275.913 229.535 276.398 229.535C277.368 229.535 277.853 230.505 277.853 232.445C277.853 233.657 277.489 234.991 276.762 236.445C272.155 244.689 266.82 252.933 260.759 261.177C254.94 269.421 247.787 276.331 239.3 281.908C231.056 287.485 220.994 290.273 209.113 290.273ZM189.473 222.988C191.17 225.413 193.11 227.232 195.292 228.444C197.717 229.414 200.142 229.899 202.566 229.899C208.386 229.899 214.447 227.716 220.752 223.352C227.056 218.745 232.148 213.411 236.027 207.349C237.724 204.682 239.179 201.166 240.391 196.802C241.846 192.437 242.574 188.315 242.574 184.436C242.574 181.041 241.846 178.132 240.391 175.707C239.179 173.04 236.633 171.706 232.754 171.706C228.389 171.706 223.176 174.373 217.114 179.708C211.295 185.042 205.718 191.952 200.384 200.439C198.687 203.348 196.747 206.743 194.565 210.622C192.625 214.502 190.928 218.624 189.473 222.988ZM371.259 289.91C357.196 289.91 347.255 286.273 341.435 278.999C338.526 275.846 336.465 272.088 335.252 267.724C334.04 263.359 333.434 258.874 333.434 254.267C333.434 248.448 334.161 242.628 335.616 236.809C337.071 230.747 338.889 225.171 341.072 220.079C344.466 212.077 348.952 204.076 354.529 196.074C360.105 187.83 366.773 180.92 374.532 175.343C382.534 169.767 391.263 166.978 400.719 166.978C407.023 166.978 411.994 168.554 415.631 171.706C419.268 174.858 421.086 179.708 421.086 186.254C421.086 193.771 418.783 201.409 414.176 209.168C409.569 216.684 403.75 222.988 396.718 228.08C389.687 233.172 382.413 235.718 374.896 235.718C368.107 235.718 362.166 233.293 357.075 228.444C355.62 232.323 354.407 236.688 353.438 241.537C352.468 246.144 351.983 250.872 351.983 255.722C351.983 263.238 353.438 269.785 356.347 275.362C359.499 280.938 365.076 283.727 373.077 283.727C378.897 283.727 384.474 282.272 389.808 279.362C395.385 276.21 400.355 272.452 404.72 268.087C409.569 262.996 414.176 257.54 418.54 251.721C422.905 245.902 427.148 239.113 431.27 231.354C431.755 230.626 432.119 230.262 432.361 230.262C433.331 230.262 433.816 231.354 433.816 233.536C433.816 234.991 433.331 236.567 432.361 238.264C428.724 244.811 424.481 251.478 419.631 258.268C414.782 264.814 409.811 270.512 404.72 275.362C400.113 279.726 395.142 283.242 389.808 285.909C384.474 288.576 378.291 289.91 371.259 289.91ZM358.893 222.988C360.59 225.413 362.53 227.232 364.712 228.444C367.137 229.414 369.562 229.899 371.986 229.899C377.806 229.899 383.867 227.716 390.172 223.352C396.476 218.745 401.568 213.411 405.447 207.349C407.144 204.682 408.599 201.166 409.811 196.802C411.266 192.437 411.994 188.315 411.994 184.436C411.994 181.041 411.266 178.132 409.811 175.707C408.599 173.04 406.053 171.706 402.174 171.706C397.809 171.706 392.596 174.373 386.534 179.708C380.715 185.042 375.138 191.952 369.804 200.439C368.107 203.348 366.167 206.743 363.985 210.622C362.045 214.502 360.348 218.624 358.893 222.988ZM448.262 289.182C440.26 289.182 434.683 286.636 431.531 281.544C428.379 276.453 426.803 270.148 426.803 262.632C426.803 254.63 428.016 245.902 430.44 236.445C433.107 226.989 436.259 217.775 439.896 208.804C443.533 199.59 446.928 191.589 450.08 184.8C453.232 178.01 455.414 173.282 456.627 170.615C460.991 161.401 466.447 150.975 472.993 139.337C479.54 127.698 486.814 115.817 494.816 103.694C502.817 91.5705 511.425 80.0533 520.638 69.1422C529.852 58.2311 539.308 48.7749 549.007 40.7734C558.706 32.772 568.405 27.3164 578.103 24.4068C580.771 23.6794 583.195 23.3157 585.377 23.3157C589.499 23.3157 592.894 24.5281 595.561 26.9527C598.471 29.1349 599.926 33.0144 599.926 38.5912C599.926 42.4707 598.956 47.3201 597.016 53.1393C593.864 61.6257 588.53 71.082 581.013 81.5081C573.496 91.6918 564.646 102.36 554.463 113.514C544.279 124.425 533.489 135.215 522.093 145.883C510.94 156.552 500.029 166.493 489.36 175.707C478.691 184.921 469.235 192.801 460.991 199.348C458.809 203.955 456.748 208.44 454.808 212.805C453.111 217.169 451.535 221.412 450.08 225.534C449.353 227.716 448.262 230.99 446.807 235.354C445.352 239.719 444.018 244.568 442.806 249.902C441.594 255.237 440.988 260.328 440.988 265.178C440.988 270.027 441.957 274.27 443.897 277.907C445.837 281.302 449.353 282.999 454.445 282.999C458.567 282.999 463.537 280.817 469.356 276.453C475.418 271.846 481.601 265.905 487.905 258.631C494.452 251.357 500.756 243.719 506.818 235.718C513.122 227.474 518.82 219.594 523.912 212.077C529.004 204.561 532.883 198.378 535.55 193.528C537.732 188.194 539.793 183.466 541.733 179.344C543.673 175.222 545.128 172.312 546.098 170.615C550.462 161.401 555.918 150.975 562.464 139.337C569.011 127.698 576.285 115.817 584.286 103.694C592.288 91.5705 600.895 80.0533 610.109 69.1422C619.323 58.2311 628.779 48.7749 638.478 40.7734C648.177 32.772 657.875 27.3164 667.574 24.4068C670.241 23.6794 672.666 23.3157 674.848 23.3157C678.97 23.3157 682.365 24.5281 685.032 26.9527C687.942 29.1349 689.396 33.0144 689.396 38.5912C689.396 42.4707 688.426 47.3201 686.487 53.1393C683.335 61.6257 678 71.082 670.484 81.5081C662.967 91.6918 654.117 102.36 643.934 113.514C633.75 124.425 622.96 135.215 611.564 145.883C600.41 156.552 589.499 166.493 578.831 175.707C568.162 184.921 558.706 192.801 550.462 199.348C548.28 203.955 546.219 208.44 544.279 212.805C542.582 217.169 541.006 221.412 539.551 225.534C538.824 227.716 537.732 230.99 536.278 235.354C534.823 239.719 533.489 244.568 532.277 249.902C531.065 255.237 530.458 260.328 530.458 265.178C530.458 270.027 531.428 274.27 533.368 277.907C535.308 281.302 538.824 282.999 543.915 282.999C548.037 282.999 551.917 281.666 555.554 278.999C559.191 276.331 562.343 273.422 565.01 270.27C570.587 264.208 575.436 258.025 579.558 251.721C583.923 245.174 588.166 237.9 592.288 229.899C593.258 228.201 593.985 227.353 594.47 227.353C594.955 227.353 595.197 228.08 595.197 229.535C595.197 231.717 594.712 234.021 593.743 236.445C589.136 244.932 584.893 252.085 581.013 257.904C577.376 263.723 572.042 270.148 565.01 277.18C561.858 280.332 558.221 283.121 554.099 285.545C549.977 287.97 545.249 289.182 539.915 289.182C531.186 289.182 525.003 286.636 521.366 281.544C517.971 276.453 516.274 270.027 516.274 262.268C516.274 255.722 517.244 248.569 519.184 240.81C521.123 232.808 523.427 225.049 526.094 217.533C521.002 225.049 515.304 233.051 509 241.537C502.696 249.781 496.028 257.54 488.996 264.814C481.965 272.088 474.933 278.029 467.902 282.636C461.112 287 454.566 289.182 448.262 289.182ZM464.992 190.983C472.508 184.436 481.237 176.677 491.178 167.706C501.12 158.492 511.303 148.672 521.73 138.246C532.156 127.82 541.976 117.393 551.189 106.967C560.646 96.5411 568.768 86.7212 575.557 77.5074C582.589 68.2936 587.317 60.2921 589.742 53.503C591.924 47.1988 593.015 42.3495 593.015 38.9549C593.015 32.6507 590.227 29.4987 584.65 29.4987C581.498 29.4987 577.74 30.711 573.375 33.1357C569.011 35.3179 565.01 38.2275 561.373 41.8645C555.554 47.6838 548.522 56.0489 540.278 66.96C532.034 77.6286 523.427 89.8733 514.455 103.694C505.484 117.515 496.634 131.942 487.905 146.975C479.419 162.008 471.781 176.677 464.992 190.983ZM554.463 190.983C562.222 184.436 570.951 176.677 580.649 167.706C590.591 158.492 600.774 148.672 611.2 138.246C621.626 127.82 631.446 117.393 640.66 106.967C650.116 96.5411 658.239 86.7212 665.028 77.5074C672.06 68.2936 676.788 60.2921 679.213 53.503C681.395 47.1988 682.486 42.3495 682.486 38.9549C682.486 32.6507 679.698 29.4987 674.121 29.4987C670.969 29.4987 667.21 30.711 662.846 33.1357C658.482 35.3179 654.481 38.2275 650.844 41.8645C645.025 47.6838 637.993 56.0489 629.749 66.96C621.505 77.6286 612.898 89.8733 603.926 103.694C594.955 117.515 586.105 131.942 577.376 146.975C568.89 162.008 561.252 176.677 554.463 190.983ZM621.532 294.274C612.318 294.274 604.316 291.364 597.527 285.545C590.981 279.483 587.707 270.27 587.707 257.904C587.707 250.145 589.041 242.143 591.708 233.899C594.618 225.413 597.77 217.897 601.164 211.35C607.469 199.469 615.349 189.164 624.805 180.435C634.504 171.464 646.021 166.978 659.357 166.978C672.208 166.978 681.179 170.494 686.271 177.526C691.363 184.557 693.909 193.165 693.909 203.348C693.909 207.47 693.545 211.714 692.817 216.078C690.878 227.959 686.877 239.476 680.815 250.63C682.513 253.054 684.695 255.115 687.362 256.813C690.271 258.268 693.424 258.995 696.818 258.995C702.637 258.995 707.608 257.419 711.73 254.267C715.852 251.115 719.368 247.235 722.277 242.628C725.429 237.779 728.097 233.293 730.279 229.171C731.734 226.504 733.067 225.171 734.279 225.171C735.007 225.171 735.371 225.656 735.371 226.625C735.371 227.595 734.643 229.777 733.188 233.172C729.066 241.416 724.217 248.569 718.64 254.63C713.064 260.692 705.789 263.723 696.818 263.723C688.574 263.723 682.27 260.813 677.906 254.994C671.116 266.148 662.873 275.483 653.174 282.999C643.475 290.516 632.928 294.274 621.532 294.274ZM622.259 289.91C634.14 289.91 645.9 284.09 657.538 272.452C660.933 269.057 663.964 265.542 666.631 261.905C669.54 258.025 672.086 254.146 674.269 250.266C671.116 246.629 668.813 242.75 667.358 238.628C666.146 234.263 665.54 230.141 665.54 226.262C665.54 220.2 666.631 214.866 668.813 210.259C670.995 205.409 674.026 202.985 677.906 202.985C679.845 202.985 681.664 203.955 683.361 205.894C685.301 207.834 686.513 210.865 686.998 214.987C687.726 211.592 688.089 207.955 688.089 204.076C688.089 194.862 686.392 187.588 682.997 182.254C679.603 176.677 673.905 173.889 665.903 173.889C661.054 173.889 656.083 175.828 650.992 179.708C645.9 183.345 641.05 187.83 636.444 193.165C632.079 198.499 628.2 203.955 624.805 209.531C621.41 215.108 618.865 219.715 617.167 223.352C613.045 232.323 610.014 240.325 608.075 247.356C606.377 254.388 605.529 260.571 605.529 265.905C605.529 273.664 607.105 279.605 610.257 283.727C613.652 287.849 617.652 289.91 622.259 289.91ZM739.346 289.91C734.254 289.91 729.526 288.94 725.161 287C721.039 284.818 717.645 281.181 714.978 276.089C713.038 271.724 712.068 266.996 712.068 261.905C712.068 256.57 713.038 251.6 714.978 246.993C716.917 242.871 719.1 239.234 721.524 236.082C723.949 232.93 726.616 231.111 729.526 230.626C731.708 225.777 734.981 219.351 739.346 211.35C743.953 203.348 749.044 195.347 754.621 187.346C760.441 179.344 765.896 172.919 770.988 168.069C772.2 166.857 774.261 164.917 777.171 162.25C780.323 159.34 783.839 156.552 787.718 153.885C791.84 151.218 795.598 149.642 798.993 149.157C799.72 148.914 800.69 148.793 801.903 148.793C804.812 148.793 806.994 149.52 808.449 150.975C809.904 152.43 810.631 154.127 810.631 156.067C810.631 158.007 809.904 159.947 808.449 161.886C806.994 163.826 804.691 165.402 801.539 166.614C800.327 166.857 798.508 167.221 796.083 167.706C793.901 168.191 790.628 168.433 786.263 168.433C784.566 170.858 783.717 174.252 783.717 178.617C783.717 183.466 784.445 188.922 785.9 194.983C787.597 201.045 789.173 206.985 790.628 212.805C792.325 218.381 793.174 223.11 793.174 226.989C793.659 235.96 792.204 245.053 788.809 254.267C785.657 263.238 780.565 270.876 773.534 277.18L768.442 280.817C769.169 281.06 769.897 281.302 770.624 281.544C771.352 281.544 772.079 281.544 772.806 281.544C776.928 281.544 781.535 280.332 786.627 277.907C791.719 275.24 796.205 271.967 800.084 268.087C805.903 262.511 810.874 256.57 814.996 250.266C819.36 243.962 823.361 237.415 826.998 230.626C827.241 229.656 827.847 229.171 828.817 229.171C830.029 229.171 830.635 230.141 830.635 232.081C830.635 233.051 830.271 234.142 829.544 235.354C825.907 242.143 821.421 249.296 816.087 256.813C810.995 264.087 805.661 270.27 800.084 275.362C795.72 279.241 790.992 282.151 785.9 284.09C781.05 285.788 776.928 286.636 773.534 286.636C771.109 286.636 769.169 286.394 767.715 285.909C766.26 285.424 764.926 284.697 763.714 283.727C760.319 285.424 756.44 286.879 752.075 288.091C747.953 289.303 743.71 289.91 739.346 289.91ZM753.166 280.453C758.016 277.059 761.774 272.694 764.441 267.36C767.351 262.026 769.533 256.328 770.988 250.266C772.928 242.992 774.019 235.475 774.261 227.716C774.746 219.958 774.989 212.926 774.989 206.622V193.892C774.989 188.8 775.595 183.587 776.807 178.253C778.262 172.919 779.717 169.645 781.172 168.433C777.535 169.888 773.534 173.161 769.169 178.253C764.805 183.102 760.441 188.922 756.076 195.711C751.712 202.257 747.711 208.683 744.074 214.987C740.679 221.291 738.012 226.504 736.072 230.626C740.679 230.384 743.831 231.717 745.529 234.627C747.226 237.294 747.711 239.234 746.984 240.446C745.044 239.961 743.71 239.719 742.983 239.719C739.346 239.719 735.951 241.052 732.799 243.719C729.647 246.144 726.98 249.781 724.798 254.63C722.615 259.237 721.524 263.723 721.524 268.087C721.524 273.907 723.222 278.15 726.616 280.817C730.011 283.484 734.011 284.818 738.618 284.818C743.953 284.818 748.802 283.363 753.166 280.453Z" fill="white"/>
</g>
<defs>
<clipPath id="clip0_86_26">
<rect width="831" height="320" fill="white"/>
</clipPath>
</defs>
</svg>
