<svg width="1000" height="320" viewBox="0 0 1000 320" fill="none" xmlns="http://www.w3.org/2000/svg">
<g clip-path="url(#clip0_86_26)">
<path d="M47.779 312.823C46.8091 313.065 45.718 313.187 44.5056 313.187C43.2933 313.187 42.0809 313.187 40.8686 313.187C32.6247 313.187 24.7445 311.732 17.2279 308.822C9.71143 305.913 4.74082 300.336 2.31614 292.092C1.58874 289.91 1.22503 287.485 1.22503 284.818C1.22503 278.271 3.28602 272.331 7.40798 266.996C8.37785 266.026 9.34772 265.42 10.3176 265.178C11.045 264.693 11.4087 265.178 11.4087 266.633C12.1361 278.514 16.2581 287 23.7746 292.092C31.5336 297.426 40.6261 300.093 51.0523 300.093C60.9935 300.093 71.1771 298.032 81.6033 293.91C92.2719 289.788 101.728 284.212 109.972 277.18C120.641 267.724 130.461 256.813 139.432 244.447C148.646 232.081 157.375 219.594 165.619 206.985C168.528 202.136 171.559 197.287 174.711 192.437C177.863 187.588 181.015 182.86 184.167 178.253H93.6055C93.1205 178.253 92.8781 178.01 92.8781 177.526C92.8781 176.313 93.7267 174.858 95.424 173.161C97.3637 171.221 98.9398 170.252 100.152 170.252H189.259C199.928 154.491 210.96 139.094 222.356 124.061C233.752 108.786 245.269 94.8439 256.908 82.2355C271.214 67.2025 286.125 55.2003 301.643 46.229C317.404 37.0152 331.588 32.0446 344.196 31.3172C350.986 30.8322 357.047 31.1959 362.382 32.4083C367.958 33.3781 372.444 35.3179 375.839 38.2275C378.991 40.6522 381.294 43.683 382.749 47.3201C384.204 50.9571 384.931 54.7154 384.931 58.5949C384.931 59.5647 384.81 60.5346 384.567 61.5045C384.567 62.4743 384.446 63.5654 384.204 64.7778C383.476 68.6573 382.022 71.8094 379.839 74.2341C378.869 75.2039 377.9 75.6889 376.93 75.6889C375.232 75.6889 375.111 74.5978 376.566 72.4155C378.748 69.5059 379.839 65.9901 379.839 61.8682C379.839 59.686 379.476 57.7462 378.748 56.0489C377.051 51.442 373.778 48.0475 368.928 45.8653C364.321 43.4406 358.866 42.2282 352.562 42.2282C338.983 42.2282 324.678 47.0776 309.645 56.7763C298.734 63.8079 287.58 73.2642 276.184 85.1451C265.031 96.7836 253.756 109.877 242.36 124.425C231.206 138.973 220.053 154.249 208.899 170.252H262.363C264.546 165.887 266.728 161.523 268.91 157.158C271.335 152.794 273.759 148.429 276.184 144.065C285.155 127.82 294.369 112.302 303.825 97.511C313.524 82.478 322.132 68.8998 329.648 56.7763C330.376 55.564 331.103 54.9578 331.831 54.9578C332.8 54.9578 333.407 55.4428 333.649 56.4126C333.892 57.3825 333.649 58.2311 332.922 58.9585C321.768 75.9313 311.948 93.874 303.462 112.787C295.218 131.699 287.701 150.854 280.912 170.252H298.734C299.219 170.252 299.461 170.494 299.461 170.979C299.461 171.949 298.491 173.404 296.551 175.343C294.854 177.283 293.278 178.253 291.823 178.253H278.003C275.82 184.557 273.153 193.044 270.001 203.712C267.092 214.138 264.424 225.049 262 236.445C259.817 247.841 258.726 258.268 258.726 267.724C258.726 276.453 260.06 283.242 262.727 288.091C265.637 292.94 270.122 295.365 276.184 295.365C276.912 295.365 277.639 295.365 278.366 295.365C279.094 295.365 279.821 295.244 280.549 295.001C284.67 294.274 288.792 291.971 292.914 288.091C297.279 284.212 301.522 279.605 305.644 274.27C311.463 266.754 316.798 258.752 321.647 250.266C326.496 241.78 330.133 235.233 332.558 230.626C333.77 228.686 334.74 227.716 335.468 227.716C336.437 227.716 336.922 228.565 336.922 230.262C336.922 231.232 336.559 232.445 335.831 233.899C332.437 239.961 328.072 247.599 322.738 256.813C317.646 265.784 311.948 274.149 305.644 281.908C301.037 287.242 296.188 291.849 291.096 295.729C286.004 299.608 280.67 302.033 275.093 303.003C273.638 303.245 272.183 303.367 270.729 303.367C269.516 303.609 268.183 303.73 266.728 303.73C259.696 303.73 253.513 301.669 248.179 297.547C242.845 293.668 239.208 287 237.268 277.544C236.783 274.877 236.419 272.088 236.177 269.179C235.934 266.269 235.813 263.481 235.813 260.813C235.813 246.75 238.238 232.566 243.087 218.26C248.179 203.955 253.392 190.619 258.726 178.253H202.716C198.837 183.587 195.078 189.164 191.441 194.983C187.804 200.56 184.046 206.137 180.167 211.714C173.135 221.897 164.649 232.687 154.707 244.083C145.009 255.237 134.34 265.905 122.702 276.089C111.063 286.03 98.8185 294.395 85.9677 301.184C73.3594 307.974 60.6298 311.853 47.779 312.823ZM399.349 289.182C392.317 289.182 386.74 287 382.618 282.636C378.739 278.271 376.799 272.816 376.799 266.269C376.799 263.117 377.405 259.48 378.617 255.358C382.012 244.689 387.346 234.142 394.62 223.716C402.137 213.047 408.32 202.5 413.169 192.074C414.866 188.679 415.715 185.648 415.715 182.981C415.715 180.314 414.866 178.374 413.169 177.162C411.714 175.707 409.896 174.98 407.714 174.98C404.562 174.98 400.561 176.313 395.711 178.98C391.105 181.405 385.77 186.133 379.709 193.165C376.072 197.529 371.95 202.863 367.343 209.168C362.736 215.472 358.978 221.17 356.068 226.262C351.219 234.506 346.854 242.871 342.975 251.357C339.095 259.601 335.701 267.239 332.791 274.27C330.366 279.847 327.457 283.484 324.062 285.181C320.668 286.636 317.394 287.242 314.242 287C311.09 286.758 308.665 286.758 306.968 287C313.757 273.664 320.425 259.601 326.972 244.811C333.518 230.02 339.095 215.229 343.702 200.439C345.884 193.65 347.703 187.103 349.158 180.799C350.612 174.252 351.219 170.009 350.976 168.069V167.342C350.976 165.402 351.946 164.917 353.886 165.887C357.038 167.584 359.22 170.13 360.432 173.525C361.645 176.677 362.251 180.314 362.251 184.436C362.251 189.043 361.645 194.013 360.432 199.348C359.22 204.44 357.765 209.046 356.068 213.168C359.22 208.804 362.615 204.44 366.252 200.075C369.889 195.468 373.889 191.104 378.254 186.982C383.346 181.89 388.801 177.526 394.62 173.889C400.44 170.009 406.744 168.069 413.533 168.069C420.08 168.069 424.808 169.524 427.717 172.434C430.869 175.343 432.445 179.223 432.445 184.072C432.445 189.164 430.991 194.983 428.081 201.53C424.929 209.046 421.049 216.563 416.443 224.079C412.078 231.596 408.077 238.87 404.44 245.902C403.713 247.356 402.501 249.66 400.803 252.812C399.349 255.722 398.015 258.995 396.803 262.632C396.318 264.329 395.833 266.148 395.348 268.087C394.863 269.785 394.62 271.603 394.62 273.543C394.62 275.968 395.105 278.271 396.075 280.453C397.288 282.393 399.47 283.363 402.622 283.363C406.744 283.363 410.623 282.029 414.26 279.362C418.14 276.453 421.413 273.422 424.08 270.27C429.657 264.208 434.749 257.54 439.356 250.266C444.205 242.75 448.933 234.869 453.54 226.625C454.268 225.656 454.753 225.171 454.995 225.171C455.965 225.171 456.45 226.262 456.45 228.444C456.45 229.899 456.207 230.99 455.722 231.717C451.358 239.719 446.751 247.599 441.902 255.358C437.052 262.874 431.112 270.148 424.08 277.18C420.928 280.332 417.291 283.121 413.169 285.545C409.047 287.97 404.44 289.182 399.349 289.182ZM461.24 289.182C454.451 289.182 449.481 287 446.329 282.636C443.177 278.029 441.601 272.452 441.601 265.905C441.601 263.966 441.722 262.026 441.964 260.086C442.449 257.904 442.934 255.722 443.419 253.539C446.086 243.841 450.208 233.051 455.785 221.17C461.604 209.046 467.181 198.257 472.515 188.8C475.667 183.466 478.577 179.708 481.244 177.526C483.911 175.101 486.821 173.404 489.973 172.434C493.125 171.221 496.883 169.888 501.248 168.433C502.46 167.948 503.672 167.584 504.885 167.342C506.097 167.099 507.431 166.857 508.885 166.614C504.036 171.464 499.066 177.283 493.974 184.072C489.124 190.861 483.79 200.196 477.971 212.077C474.819 218.381 471.667 225.413 468.514 233.172C465.605 240.931 463.059 248.205 460.877 254.994C458.695 261.783 457.482 267.118 457.24 270.997C456.997 275.604 457.603 278.877 459.058 280.817C460.513 282.757 462.453 283.727 464.877 283.727C468.999 283.727 472.879 282.272 476.516 279.362C480.395 276.453 483.79 273.422 486.7 270.27C492.034 264.208 497.005 257.54 501.611 250.266C506.461 242.992 511.189 235.233 515.796 226.989C516.523 226.019 517.129 225.534 517.614 225.534C518.584 225.534 519.069 226.262 519.069 227.716C519.069 228.929 518.827 229.899 518.342 230.626C513.977 238.628 509.37 246.629 504.521 254.63C499.672 262.632 493.731 270.148 486.7 277.18C483.548 280.332 479.789 283.121 475.425 285.545C471.303 287.97 466.575 289.182 461.24 289.182ZM505.612 146.247C502.945 146.247 500.642 145.277 498.702 143.338C497.005 141.398 496.156 139.094 496.156 136.427C496.156 133.033 497.489 130.002 500.157 127.335C503.066 124.667 506.218 123.091 509.613 122.606C512.28 122.606 514.462 123.576 516.16 125.516C518.099 127.213 519.069 129.517 519.069 132.426C519.069 135.579 517.736 138.731 515.068 141.883C512.401 144.792 509.249 146.247 505.612 146.247ZM649.229 289.182C641.955 289.182 636.378 287 632.499 282.636C628.619 278.029 626.68 272.331 626.68 265.542C626.68 258.025 628.619 250.509 632.499 242.992C636.378 235.233 640.743 227.716 645.592 220.442C650.684 213.168 655.17 206.258 659.049 199.711C662.929 193.165 664.868 187.346 664.868 182.254C664.868 180.314 664.383 178.617 663.414 177.162C662.444 175.465 660.625 174.616 657.958 174.616C650.199 174.616 642.076 178.253 633.59 185.527C625.346 192.559 617.345 201.651 609.586 212.805C601.827 223.958 594.795 235.597 588.491 247.72C582.429 259.844 577.701 270.997 574.306 281.181C570.427 280.211 567.76 278.756 566.305 276.816C565.093 274.634 564.486 272.331 564.486 269.906C564.486 266.026 564.971 262.268 565.941 258.631C567.154 254.994 568.972 250.509 571.397 245.174C573.822 239.84 576.974 233.051 580.853 224.807C584.733 216.32 589.339 205.409 594.674 192.074C595.401 190.134 595.886 188.437 596.129 186.982C596.371 185.527 596.492 184.193 596.492 182.981C596.492 177.404 594.189 174.616 589.582 174.616C583.763 174.616 577.822 177.041 571.761 181.89C565.699 186.497 559.758 192.68 553.939 200.439C548.362 208.198 543.028 216.563 537.936 225.534C532.844 234.506 528.237 243.356 524.115 252.085C519.994 260.571 516.599 267.966 513.932 274.27C511.507 279.847 508.598 283.484 505.203 285.181C501.808 286.636 498.535 287.364 495.383 287.364C494.413 287.364 493.201 287.242 491.746 287C490.534 287 489.321 287 488.109 287C492.958 277.301 498.05 266.754 503.384 255.358C508.961 243.719 514.053 232.081 518.66 220.442C523.267 208.804 527.025 197.65 529.935 186.982C532.844 176.313 534.299 167.099 534.299 159.34C534.299 158.371 534.178 157.643 533.935 157.158C533.935 156.673 533.935 156.188 533.935 155.703C533.935 154.976 534.178 154.612 534.663 154.612C537.088 154.612 539.027 156.188 540.482 159.34C541.937 162.25 542.907 165.645 543.392 169.524C544.119 173.161 544.483 176.071 544.483 178.253C544.483 184.315 543.755 190.619 542.301 197.165C540.846 203.47 539.149 208.804 537.209 213.168C546.423 200.803 555.879 190.255 565.578 181.526C575.519 172.797 585.339 168.433 595.037 168.433C601.584 168.433 606.312 169.767 609.222 172.434C612.131 175.101 613.586 178.859 613.586 183.708C613.586 187.103 612.98 190.498 611.768 193.892C610.798 197.287 609.101 201.894 606.676 207.713C615.89 195.105 624.861 185.406 633.59 178.617C642.561 171.828 651.411 168.433 660.14 168.433C667.172 168.433 672.385 170.009 675.779 173.161C679.416 176.313 681.235 180.556 681.235 185.891C681.235 191.71 679.295 198.62 675.416 206.622C671.779 214.381 667.536 222.503 662.686 230.99C657.837 239.234 653.472 247.114 649.593 254.63C645.956 261.905 644.137 267.966 644.137 272.816C644.137 275.483 644.743 277.907 645.956 280.09C647.168 282.272 649.35 283.363 652.502 283.363C656.624 283.363 660.504 282.029 664.141 279.362C668.02 276.453 671.294 273.422 673.961 270.27C679.538 264.208 684.63 257.54 689.236 250.266C694.086 242.75 698.814 234.869 703.421 226.625C704.148 225.656 704.633 225.171 704.876 225.171C705.846 225.171 706.33 226.262 706.33 228.444C706.33 229.899 706.088 230.99 705.603 231.717C701.239 239.719 696.632 247.599 691.782 255.358C686.933 262.874 680.993 270.148 673.961 277.18C670.809 280.332 667.172 283.121 663.05 285.545C658.928 287.97 654.321 289.182 649.229 289.182ZM778.216 289.546C770.457 289.546 765.122 287.121 762.213 282.272C759.303 277.18 757.848 271.603 757.848 265.542C757.848 264.329 757.97 262.268 758.212 259.359C758.697 256.207 759.182 253.297 759.667 250.63C756.272 255.237 752.15 260.328 747.301 265.905C742.694 271.482 737.966 276.21 733.117 280.09C725.358 286.394 718.326 289.546 712.022 289.546C705.96 289.546 701.232 287 697.837 281.908C694.685 276.816 693.109 270.391 693.109 262.632C693.109 252.691 695.291 242.628 699.656 232.445C704.02 222.261 709.718 212.683 716.75 203.712C724.024 194.498 732.025 186.618 740.754 180.071C745.846 176.434 752.029 173.525 759.303 171.343C766.82 168.918 774.336 167.706 781.853 167.706C790.339 167.706 797.734 169.039 804.038 171.706C810.585 174.131 815.071 177.647 817.495 182.254C812.404 188.8 807.191 196.923 801.856 206.622C796.522 216.078 791.915 224.686 788.036 232.445C785.368 237.779 782.459 244.447 779.307 252.448C776.155 260.207 774.579 266.875 774.579 272.452C774.579 274.877 775.185 277.301 776.397 279.726C777.609 282.151 779.913 283.363 783.307 283.363C787.187 283.363 790.945 281.908 794.582 278.999C798.219 276.089 801.25 273.179 803.675 270.27C809.252 264.208 814.343 257.54 818.95 250.266C823.557 242.992 828.164 235.233 832.771 226.989C833.498 226.019 834.226 225.534 834.953 225.534C835.923 225.534 836.408 226.262 836.408 227.716C836.408 228.929 836.166 229.899 835.681 230.626C831.559 238.628 826.952 246.629 821.86 254.63C816.768 262.632 810.706 270.148 803.675 277.18C800.28 280.575 796.28 283.484 791.673 285.909C787.066 288.334 782.58 289.546 778.216 289.546ZM720.023 278.271C724.63 278.271 729.601 275.846 734.935 270.997C740.512 265.905 745.846 259.844 750.938 252.812C756.272 245.538 761 238.628 765.122 232.081C769.487 225.292 772.881 220.079 775.306 216.442C780.398 208.44 785.126 201.772 789.49 196.438C793.855 191.104 800.644 186.982 809.858 184.072C810.343 184.072 810.706 184.072 810.949 184.072C811.434 183.83 811.919 183.708 812.404 183.708C810.221 180.314 806.584 177.768 801.493 176.071C796.401 174.373 791.43 173.525 786.581 173.525C779.064 173.525 771.79 175.586 764.759 179.708C757.727 183.83 751.302 189.043 745.482 195.347C739.906 201.894 734.45 209.046 729.116 216.805C723.781 224.564 719.417 232.445 716.022 240.446C712.87 248.448 711.294 256.085 711.294 263.359C711.294 267.239 711.901 270.755 713.113 273.907C714.568 276.816 716.871 278.271 720.023 278.271ZM849.291 289.182C840.562 289.182 834.5 286.636 831.106 281.544C827.711 276.453 826.014 270.027 826.014 262.268C826.014 254.267 827.226 245.538 829.651 236.082C832.318 226.625 835.349 217.412 838.744 208.44C842.381 199.469 845.775 191.589 848.927 184.8C852.322 178.01 854.625 173.282 855.838 170.615C860.202 161.401 865.536 150.975 871.841 139.337C878.387 127.698 885.661 115.817 893.663 103.694C901.907 91.5705 910.514 80.0533 919.486 69.1422C928.699 58.2311 938.156 48.7749 947.854 40.7734C957.796 32.772 967.616 27.3164 977.314 24.4068C979.981 23.6794 982.406 23.3157 984.588 23.3157C988.71 23.3157 992.105 24.5281 994.772 26.9527C997.682 29.1349 999.136 33.0144 999.136 38.5912C999.136 42.4707 998.167 47.3201 996.227 53.1393C993.075 61.6257 987.74 71.082 980.224 81.5081C972.707 91.6918 963.857 102.36 953.674 113.514C943.49 124.425 932.7 135.215 921.304 145.883C910.151 156.552 899.24 166.493 888.571 175.707C877.902 184.921 868.446 192.801 860.202 199.348C858.02 203.955 855.959 208.44 854.019 212.805C852.322 217.169 850.746 221.412 849.291 225.534C848.564 227.716 847.473 230.99 846.018 235.354C844.563 239.719 843.229 244.568 842.017 249.902C840.805 255.237 840.198 260.328 840.198 265.178C840.198 270.027 841.168 274.27 843.108 277.907C845.048 281.302 848.564 282.999 853.655 282.999C857.777 282.999 861.536 281.666 864.93 278.999C868.567 276.331 871.841 273.422 874.75 270.27C884.934 258.631 894.026 245.174 902.028 229.899C902.998 228.201 903.725 227.353 904.21 227.353C904.695 227.353 904.938 228.08 904.938 229.535C904.938 231.717 904.453 234.021 903.483 236.445C898.876 244.932 894.633 252.085 890.753 257.904C887.116 263.723 881.782 270.148 874.75 277.18C871.598 280.332 867.84 283.121 863.475 285.545C859.353 287.97 854.625 289.182 849.291 289.182ZM864.203 190.983C871.719 184.436 880.448 176.677 890.389 167.706C900.331 158.492 910.514 148.672 920.94 138.246C931.367 127.82 941.187 117.393 950.4 106.967C959.857 96.5411 967.979 86.7212 974.768 77.5074C981.8 68.2936 986.528 60.2921 988.953 53.503C991.135 47.1988 992.226 42.3495 992.226 38.9549C992.226 32.6507 989.438 29.4987 983.861 29.4987C980.709 29.4987 976.951 30.711 972.586 33.1357C968.222 35.3179 964.221 38.2275 960.584 41.8645C954.522 47.6838 947.369 56.0489 939.126 66.96C931.124 77.6286 922.638 89.8733 913.666 103.694C904.695 117.515 895.845 131.942 887.116 146.975C878.63 162.008 870.992 176.677 864.203 190.983Z" fill="white"/>
</g>
<defs>
<clipPath id="clip0_86_26">
<rect width="1000" height="320" fill="white"/>
</clipPath>
</defs>
</svg>
