<?xml version="1.0" encoding="utf-8"?>
<!-- Generator: Adobe Illustrator 24.0.3, SVG Export Plug-In . SVG Version: 6.00 Build 0)  -->
<svg version="1.1" id="圖層_1" xmlns="http://www.w3.org/2000/svg" xmlns:xlink="http://www.w3.org/1999/xlink" x="0px" y="0px"
	 viewBox="0 0 160.1 44.7" style="enable-background:new 0 0 160.1 44.7;" xml:space="preserve">
<style type="text/css">
	.st0{fill:none;stroke:#FFFFFF;stroke-width:1.0566;stroke-miterlimit:10;}
	.st1{fill:#FFFFFF;}
</style>
<path class="st0" d="M138,43.4H22.6c-11.8,0-21.4-9.6-21.4-21.4l0,0c0-11.8,9.6-21.4,21.4-21.4H138c11.8,0,21.4,9.6,21.4,21.4l0,0
	C159.4,33.7,149.8,43.4,138,43.4z"/>
<g>
	<g>
		<path class="st1" d="M23.1,10.8c0-0.5,0.2-0.9,0.5-1.2s0.7-0.5,1.2-0.5h21.5c0.5,0,0.9,0.2,1.2,0.5s0.5,0.7,0.5,1.2v23.1
			c0,0.4-0.2,0.8-0.4,1c-0.3,0.3-0.6,0.4-1,0.4h-0.1c-0.4,0-0.8-0.1-1-0.4s-0.4-0.6-0.4-1c0-0.1-0.1-0.2-0.2-0.2H26.1
			c-0.1,0-0.2,0.1-0.2,0.2c0,0.4-0.1,0.7-0.4,1c-0.3,0.3-0.6,0.4-1,0.4s-0.7-0.1-1-0.4s-0.4-0.6-0.4-1V10.8z M25.9,30.9
			c0,0.2,0.1,0.2,0.2,0.2h18.6c0.2,0,0.2-0.1,0.2-0.2V12.2c0-0.2-0.1-0.2-0.2-0.2H26.1c-0.2,0-0.2,0.1-0.2,0.2L25.9,30.9L25.9,30.9z
			 M29.5,17.7c0-0.5,0.2-0.9,0.5-1.2s0.7-0.5,1.2-0.5h8.3c0.5,0,0.9,0.2,1.2,0.5s0.5,0.7,0.5,1.2v7.5c0,0.5-0.2,0.9-0.5,1.2
			S40.1,27,39.6,27h-8.3c-0.5,0-0.9-0.2-1.2-0.5c-0.3-0.3-0.5-0.7-0.5-1.2V17.7z M38.3,24.5c0.1,0,0.2-0.1,0.2-0.2v-5.7
			c0-0.2-0.1-0.2-0.2-0.2h-5.9c-0.2,0-0.2,0.1-0.2,0.2v5.7c0,0.1,0.1,0.2,0.2,0.2H38.3z"/>
		<path class="st1" d="M93.3,11.7c0.2,0.2,0.4,0.6,0.4,0.9c0,0.4-0.1,0.6-0.4,0.9s-0.6,0.4-0.9,0.4H82.2c-0.1,0-0.2,0.1-0.3,0.2
			c-0.3,0.7-0.5,1.4-0.8,1.9c0,0.1,0,0.1,0,0.1c0,0,0.1,0.1,0.1,0.1h7.3c0.5,0,0.9,0.2,1.2,0.5s0.5,0.7,0.5,1.2v15.3
			c0,0.4-0.1,0.8-0.4,1s-0.6,0.4-1,0.4h-0.1c-0.4,0-0.7-0.1-1-0.4s-0.4-0.6-0.4-1c0-0.1-0.1-0.2-0.2-0.2H73.2
			c-0.1,0-0.2,0.1-0.2,0.2c0,0.4-0.1,0.7-0.4,1c-0.3,0.3-0.6,0.4-1,0.4h0c-0.4,0-0.7-0.1-1-0.4s-0.4-0.6-0.4-1V18
			c0-0.5,0.2-0.9,0.5-1.2c0.3-0.3,0.7-0.5,1.2-0.5h5.9c0.1,0,0.2-0.1,0.3-0.2c0.2-1,0.4-1.6,0.5-1.9c0,0,0-0.1,0-0.1
			s-0.1-0.1-0.2-0.1H68.3c-0.3,0-0.7-0.1-0.9-0.4S67,13,67,12.6c0-0.4,0.1-0.6,0.4-0.9s0.6-0.4,0.9-0.4h5.8c0,0,0.1,0,0.1-0.1
			s0-0.1,0-0.1c-0.4-0.6-0.8-1.3-1.3-1.9c-0.2-0.2-0.3-0.5-0.2-0.9s0.3-0.6,0.6-0.7c0.2-0.1,0.5-0.2,0.8-0.2c0.1,0,0.2,0,0.4,0
			c0.4,0.1,0.7,0.3,1,0.6c0.4,0.5,0.9,1,1.2,1.5c0.1,0.2,0.2,0.4,0.2,0.6c0,0.1,0,0.2-0.1,0.3c-0.1,0.3-0.3,0.6-0.6,0.7
			c0,0,0,0,0,0.1c0,0,0,0,0,0h7c0.1,0,0.2-0.1,0.3-0.2c0.6-0.8,1.2-1.6,1.6-2.5c0.2-0.4,0.6-0.7,1-0.9c0.3-0.1,0.6-0.2,0.9-0.2
			c0.2,0,0.3,0,0.5,0.1c0.4,0.1,0.6,0.3,0.8,0.7c0,0.1,0.1,0.3,0.1,0.4c0,0.2-0.1,0.4-0.2,0.6c-0.5,0.7-1,1.3-1.4,1.9
			c0,0-0.1,0.1,0,0.1c0,0,0.1,0.1,0.1,0.1h5.6C92.7,11.3,93,11.5,93.3,11.7z M87.2,21.1c0.1,0,0.2-0.1,0.2-0.2v-2
			c0-0.2-0.1-0.2-0.2-0.2h-14c-0.2,0-0.2,0.1-0.2,0.2v2c0,0.1,0.1,0.2,0.2,0.2H87.2z M87.2,25.9c0.1,0,0.2-0.1,0.2-0.2v-2.1
			c0-0.2-0.1-0.2-0.2-0.2h-14c-0.2,0-0.2,0.1-0.2,0.2v2.1c0,0.1,0.1,0.2,0.2,0.2H87.2z M73,30.5c0,0.2,0.1,0.2,0.2,0.2h14
			c0.1,0,0.2-0.1,0.2-0.2v-2.2c0-0.2-0.1-0.2-0.2-0.2h-14c-0.2,0-0.2,0.1-0.2,0.2V30.5z"/>
		<path class="st1" d="M119.5,29.6c0.3-0.2,0.7-0.3,1.1-0.3c0.1,0,0.1,0,0.2,0c0.5,0,0.9,0.2,1.2,0.5c0.3,0.2,0.4,0.5,0.4,0.8
			c0,0.4-0.2,0.7-0.5,0.9c-2.1,1.1-4.4,2-7.1,2.8c-0.2,0.1-0.4,0.1-0.6,0.1c-0.2,0-0.4,0-0.6-0.1c-0.4-0.1-0.8-0.4-1.1-0.7
			c-0.2-0.2-0.2-0.4-0.2-0.6c0-0.1,0-0.2,0-0.2c0.1-0.3,0.3-0.5,0.6-0.6c1.2-0.4,2.4-0.8,3.7-1.3C117.8,30.4,118.7,30,119.5,29.6z
			 M115.4,15.3c0-0.5,0.2-0.9,0.5-1.2c0.3-0.3,0.7-0.5,1.2-0.5h5.7c0.1,0,0.2-0.1,0.3-0.2c0.2-0.9,0.3-1.5,0.4-1.9
			c0-0.1-0.1-0.2-0.2-0.2H114c-0.4,0-0.7-0.1-0.9-0.4s-0.4-0.5-0.4-0.9s0.1-0.7,0.4-0.9s0.6-0.4,0.9-0.4h22.2c0.4,0,0.7,0.1,0.9,0.4
			c0.2,0.2,0.4,0.5,0.4,0.9s-0.1,0.7-0.4,0.9s-0.6,0.4-0.9,0.4h-9.3c-0.1,0-0.2,0.1-0.3,0.2c-0.1,0.3-0.3,0.9-0.6,1.9
			c0,0.1,0,0.1,0,0.1s0.1,0.1,0.2,0.1h7.4c0.5,0,0.9,0.2,1.2,0.5c0.3,0.3,0.5,0.7,0.5,1.2v11.8c0,0.5-0.2,0.9-0.5,1.2
			c-0.3,0.3-0.7,0.5-1.2,0.5h-16.4c-0.5,0-0.9-0.2-1.2-0.5s-0.5-0.7-0.5-1.2L115.4,15.3L115.4,15.3z M132,18c0.2,0,0.2-0.1,0.2-0.2
			V16c0-0.1-0.1-0.2-0.2-0.2h-13.5c-0.1,0-0.2,0.1-0.2,0.2v1.8c0,0.1,0.1,0.2,0.2,0.2H132z M132,22.3c0.2,0,0.2-0.1,0.2-0.2v-1.9
			c0-0.1-0.1-0.2-0.2-0.2h-13.5c-0.1,0-0.2,0.1-0.2,0.2v1.9c0,0.1,0.1,0.2,0.2,0.2H132z M132,26.6c0.2,0,0.2-0.1,0.2-0.2v-1.9
			c0-0.1-0.1-0.2-0.2-0.2h-13.5c-0.1,0-0.2,0.1-0.2,0.2v1.9c0,0.1,0.1,0.2,0.2,0.2H132z M128.3,31.3c-0.3-0.1-0.5-0.3-0.5-0.6
			c0-0.1,0-0.1,0-0.2c0-0.2,0.1-0.4,0.3-0.5c0.4-0.4,0.9-0.6,1.5-0.6c0.2,0,0.5,0,0.8,0.1c2.5,0.9,4.8,1.8,6.8,2.7
			c0.4,0.2,0.6,0.5,0.6,0.9c0,0.3-0.1,0.6-0.4,0.8c-0.4,0.3-0.9,0.4-1.4,0.5c-0.1,0-0.1,0-0.2,0c-0.4,0-0.9-0.1-1.2-0.3
			C132.6,33,130.5,32.1,128.3,31.3z"/>
	</g>
</g>
</svg>
