<?xml version="1.0" encoding="utf-8"?>
<!-- Generator: Adobe Illustrator 24.0.3, SVG Export Plug-In . SVG Version: 6.00 Build 0)  -->
<svg version="1.1" id="圖層_1" xmlns="http://www.w3.org/2000/svg" xmlns:xlink="http://www.w3.org/1999/xlink" x="0px" y="0px"
	 viewBox="0 0 173 136" style="enable-background:new 0 0 173 136;" xml:space="preserve">
<style type="text/css">
	.st0{fill:#FFFFFF;}
	.st1{fill-rule:evenodd;clip-rule:evenodd;fill:#FFFFFF;}
</style>
<g>
	<g>
		<g>
			<path class="st0" d="M173.3,27.9c0-8-2.5-37-2.8-21.9c0.1,3.4-0.1,7.1-0.1,10.8c0,13.1-0.8,20-1.5,20c-0.8,0-1.1-6.9-1.1-20
				c0-5-0.6-14.9-1.1-15.1c-0.5-0.3-1.3,9.5-1.3,15.2c0,13.1-0.6,20.2-1.4,20.2c-0.8,0-1.4-7.1-1.4-20.2c0-5.7-0.9-15.6-1.5-15.3
				c-0.5,0.3-1.3,10.1-1.3,15.1c0,13.1-0.6,20.2-1.4,20.2c-0.8,0-1.3-7.1-1.3-20.2c0-3.6,0-7.3,0.1-10.6c0.2-14.3-2.9,10.2-2.8,22.3
				c0.1,11.4,3.1,17,7.6,18.2c-0.4,11.8-1.8,50.3-2.3,64.6c-0.6,16.9,2.2,20.1,4.5,20.1l0,0c0,0,0,0,0,0c0,0,0,0,0,0l0,0
				c2.2,0,5-3.2,4.5-20.1c-0.5-14.3-1.9-52.9-2.4-64.7C170.7,45.1,173.3,39.1,173.3,27.9z"/>
			<path class="st0" d="M7.4,72c9.9-8.2,4-44.2,2.7-52.4c-1.6-9.5-8.1-35.1-8.4,1c-0.2,25-0.1,40.9-0.1,48.3
				C1,84.7,0.3,104.4,0,113.7c-0.6,16.9,2.2,20.1,4.4,20.1l0,0c0,0,0,0,0,0s0,0,0,0l0,0c2.2,0,5-3.2,4.5-20.1C8.6,105,8,87.2,7.4,72
				z"/>
			<path class="st0" d="M85.5,0c-37.5,0-68,30.4-68,68c0,37.5,30.4,68,68,68c37.6,0,68-30.4,68-68C153.5,30.5,123,0,85.5,0z
				 M85.5,122.3c-30,0-54.2-24.3-54.2-54.3c0-30,24.3-54.3,54.2-54.3c30,0,54.3,24.3,54.3,54.3C139.7,98,115.4,122.3,85.5,122.3z"/>
			<path class="st0" d="M85.4,16.1c-28.5,0-51.7,23.1-51.7,51.7c0,28.5,23.1,51.7,51.7,51.7c28.5,0,51.7-23.1,51.7-51.7
				C137.1,39.2,114,16.1,85.4,16.1z M85.5,118.5C57.6,118.5,35,95.9,35,68c0-27.9,22.6-50.5,50.5-50.5c27.9,0,50.5,22.6,50.5,50.5
				C135.9,95.9,113.3,118.5,85.5,118.5z"/>
		</g>
		<g>
			<path class="st1" d="M74.2,64.6c-17.6-8.8-33.7,4.3-33.7,4.3c13.3-3,18.8,31.9,39.9,24.3c0.2-0.1,0.3-0.1,0.4-0.2
				c-0.8-3.9-4.2-18-16.5-23.5c0,0,12.2,0.8,20.6,20.3C89.4,83.8,89.5,72.3,74.2,64.6z"/>
			<path class="st1" d="M106.7,73.1c12.7-5.2,23.1,4.8,23.1,4.8c-9-2.8-14.7,21.1-29,14.7c-0.1-0.1-0.2-0.1-0.2-0.1
				c0.7-2.7,3.8-12.2,12.7-15.4c0,0-8.6-0.1-15.4,12.9C95.2,85.6,95.7,77.6,106.7,73.1z"/>
			<path class="st1" d="M87.3,50.8C95.6,36.3,113.1,38,113.1,38c-10.8,4.1,1.6,31.4-16.9,35.9C96.1,74,96,74,95.9,74
				c-1.4-3.1-5.5-14.7,0.6-24.4c0,0-8.3,6.3-5.1,24C85.5,71.5,80,63.3,87.3,50.8z"/>
		</g>
	</g>
</g>
</svg>
