<?xml version="1.0" encoding="utf-8"?>
<!-- Generator: Adobe Illustrator 24.0.3, SVG Export Plug-In . SVG Version: 6.00 Build 0)  -->
<svg version="1.1" id="圖層_1" xmlns="http://www.w3.org/2000/svg" xmlns:xlink="http://www.w3.org/1999/xlink" x="0px" y="0px"
	 viewBox="0 0 176.4 123" style="enable-background:new 0 0 176.4 123;" xml:space="preserve">
<style type="text/css">
	.st0{fill:#040000;}
</style>
<path class="st0" d="M164.5,1.4c-1.7,0.6-2.6,8.4-3.4,10.9c1-1.6,2.7-2.6,4.4-3c0.4,4.1-3.1,4.3-4.4,7.5c-1.3,3.2,0.5,6.8,1.8,9.7
	c1.4,3.1,2.6,6.1,5,8.9c1.9,2.2,5.5,3.4,7.1,5.5c4.6,6-2.9,14.4-8.3,17.1c-3.7,1.8-6.9,0-10.4,0.6c-3.5,0.6-6.3,3-10.1,3.3
	c-1,0.1-2.8-0.6-3.7-0.9c-2.4,2.2-1.4,5.7-2.6,8.5c-0.9,2.2-2.9,4.9-4.2,6.8c-1.4,2.2-2.8,4.6-4.9,6.1c-1.7,1.1-7.5,2.4-8.2,3.3
	c-2.2,2.9,2.4,15.1,3.4,18.4c1.8,5.9,4.4,10.1,7.3,15.3c-1.7-0.5-4.7-1.4-6.7-0.9c-1.9,0.5-3.1,3.6-5.3,3.8
	c-3.4,0.2-5.4-5.6-6.1-8.5c-2-7.8-3.2-15.8-5-23.4c-5.5-0.9-10.6,15.3-10.1,19.6c0.3,2.8,2.2,10.9,0,12.9c-2.6,2.4-8.2-2.4-11.3-2.4
	c-1.8-2.2-0.2-3.8-0.1-6.2c0.1-2.3-0.3-4.4-0.8-6.8c-0.5-2.3-1.1-4.7-1.1-7.1c0-2.1,1.6-5.4,0.9-7.1c-1.9-4.3-10-3.4-13.8-4.4
	c-4.2-1.1-11.2-6.1-15.3-2c0.4,0.3,0.8,0.3,1.2,0.6c-4.4-1.4-8.8-4.3-13.2-4.8c0.3,1.1-0.1,2.6,0.3,3.7c-1.8,0.5-6.1,1.3-7,3
	c-1.4,2.4,1.4,2.5,0.9,4.3c-0.4,1.7-2.4,2.6-2.9,4.3c0,0-0.6,5.5-0.6,5.7c0.3,3.9,12.1,13.6,8.7,18.3c-4.2,5.7-18.1-1.3-20.2-5.3
	c-1.5-3-2.7-6.9-1.7-10c1.3-4.1,3.1-4.2,1.8-9.2c-1.2-4.6-3.5-9.5-5.6-13.6c-2.1-3.9-5.6-10.3-8.7-13.3c0.7,7,4.8,15.7,3.2,22.4
	c-0.3,1.2-1.6,1.9-1.9,3.8c-0.2,1.5,0.4,3.2,0.6,4.9c0.3,3.7-0.4,7-0.6,11c-4.2-1.5-3.6-6.1-4.7-9.5c-0.5-1.6-2.3-3.2-2.8-4.8
	C4.6,96,6,94.4,6.1,92.5c0.2-7-5.7-12.2-5.3-20.2c0.4-7.2,0.9-14.6,0-21.6c-0.9-7.2-1.1-14.2-0.4-21.6C1.3,21.1,2.1,17,8.6,12.1
	c5.6-4.2,9.5-8.1,16.7-8.9c7.9-0.9,15.4-0.9,23,1.5C55.7,7,60.2,9.8,68.9,8.9c7.1-0.7,13.9-3.5,21.2-4.2c3.6-0.4,7.6-0.7,11.5-0.5
	c3.9,0.2,7.9,1.6,11.5,1.4c-0.7-2-0.5-4,0.7-5.6c5.7,4.9,8.9,13.6,17.3,11.1c6.5-1.9,16-7,22.3-0.5c-0.6-0.7-0.9-0.4-1.7-0.5
	L164.5,1.4z"/>
</svg>