<?xml version="1.0" encoding="utf-8"?>
<!-- Generator: Adobe Illustrator 24.0.3, SVG Export Plug-In . SVG Version: 6.00 Build 0)  -->
<svg version="1.1" id="圖層_1" xmlns="http://www.w3.org/2000/svg" xmlns:xlink="http://www.w3.org/1999/xlink" x="0px" y="0px"
	 viewBox="0 0 142.1 20.6" style="enable-background:new 0 0 142.1 20.6;" xml:space="preserve">
<style type="text/css">
	.st0{fill:#FFFFFF;}
</style>
<path class="st0" d="M28.7,0c-8.8,0-40.6,2.7-24,3.1C8.3,3,12.4,3.2,16.5,3.2c14.4,0,22,0.9,22,1.7c0,0.8-7.6,1.2-21.9,1.2
	C11.1,6.1,0.3,6.8,0,7.3c-0.3,0.6,10.4,1.4,16.7,1.4c14.4,0,22.1,0.6,22.1,1.5c0,0.8-7.8,1.5-22.1,1.5c-6.2,0-17.1,1-16.7,1.6
	c0.3,0.6,11.1,1.4,16.5,1.4c14.4,0,22.1,0.7,22.1,1.5c0,0.9-7.8,1.4-22.1,1.4c-3.9,0-8,0-11.6-0.1c-15.7-0.2,11.1,3.2,24.5,3.1
	c12.5-0.1,18.6-3.4,20-8.3c13,0.5,55.1,2,70.8,2.5c18.5,0.6,22-2.5,22-4.9l0,0c0,0,0,0,0,0s0,0,0,0l0,0c0-2.4-3.5-5.5-22-4.9
	c-15.7,0.6-58,2.1-70.9,2.6C47.6,2.9,41,0,28.7,0z"/>
</svg>