<?xml version="1.0" encoding="utf-8"?>
<!-- Generator: Adobe Illustrator 24.0.3, SVG Export Plug-In . SVG Version: 6.00 Build 0)  -->
<svg version="1.1" id="圖層_1" xmlns="http://www.w3.org/2000/svg" xmlns:xlink="http://www.w3.org/1999/xlink" x="0px" y="0px"
	 viewBox="0 0 144.5 14.4" style="enable-background:new 0 0 144.5 14.4;" xml:space="preserve">
<style type="text/css">
	.st0{fill:#FFFFFF;}
</style>
<path class="st0" d="M76.8,6.2C67.8-4.7,28.4,1.8,19.4,3.3C9,5-19.1,12.1,20.5,12.5c27.4,0.2,44.8,0.1,52.8,0.1
	c17.3,0.6,38.9,1.4,49.2,1.7c18.5,0.6,22-2.4,22-4.9l0,0c0,0,0,0,0,0s0,0,0,0l0,0c0-2.4-3.5-5.5-22-4.9C112.9,4.9,93.4,5.6,76.8,6.2
	z"/>
</svg>