<svg width="362" height="281" viewBox="0 0 362 281" fill="none" xmlns="http://www.w3.org/2000/svg">
<path d="M9.09262 276.778C6.183 275.323 4.00078 273.141 2.54597 270.231C0.848691 267.564 5.18283e-05 264.897 5.18283e-05 262.229C5.18283e-05 259.562 0.606223 257.501 1.81857 256.047C3.03091 255.077 4.12201 254.47 5.09189 254.228C5.81929 254.228 6.06176 254.834 5.81929 256.047C5.09189 259.684 6.78917 263.078 10.9111 266.23C14.7906 269.382 18.4276 271.443 21.8222 272.413C25.4592 273.141 29.0963 273.504 32.7333 273.504C40.2498 273.504 47.0389 272.413 53.1006 270.231C61.587 267.321 70.1946 261.26 78.9235 252.046C87.6523 243.074 95.6538 233.012 102.928 221.858C110.687 209.978 118.446 196.278 126.205 180.76C133.964 165 141.965 148.633 150.209 131.66C158.696 114.687 167.667 98.6846 177.123 83.6515C185.61 70.3158 194.46 58.4348 203.673 48.0087C213.13 37.3401 223.435 29.0962 234.588 23.2769C242.105 19.3974 249.621 17.4577 257.138 17.4577C249.621 14.3056 240.771 11.6385 230.587 9.45624C220.404 7.27402 211.796 6.18291 204.765 6.18291C194.338 6.18291 183.791 7.63772 173.122 10.5473C162.696 13.457 152.876 17.7002 143.663 23.2769C133.479 28.8537 123.78 36.4915 114.566 46.1902C105.595 55.8889 98.321 66.5575 92.7442 78.196C87.1674 89.8345 84.379 101.715 84.379 113.839C84.379 118.931 85.1064 123.538 86.5612 127.66C88.2585 131.781 91.0469 135.176 94.9264 137.843C98.8059 140.268 103.413 141.48 108.747 141.48C113.354 141.48 117.597 140.753 121.477 139.298C121.962 139.056 122.689 138.934 123.659 138.934C124.871 138.934 125.477 139.298 125.477 140.025C125.477 141.48 124.144 142.693 121.477 143.662C116.627 146.087 110.929 147.299 104.383 147.299C97.1086 147.299 90.4407 145.723 84.379 142.571C77.8324 139.177 73.2255 134.206 70.5583 127.66C68.1336 121.113 66.9213 114.324 66.9213 107.292C66.9213 92.9866 70.4371 79.6508 77.4687 67.2849C84.5003 54.919 93.4716 44.008 104.383 34.5517C115.536 25.0954 127.296 17.8214 139.662 12.7296C150.33 8.12266 161.241 4.84934 172.395 2.90959C183.549 0.969839 194.46 -3.64668e-05 205.128 -3.64668e-05C215.554 -3.64668e-05 226.587 1.57601 238.225 4.7281C250.106 7.63773 260.169 12.2446 268.412 18.5488C269.382 19.2762 269.867 20.0036 269.867 20.731C269.867 21.4584 269.382 21.9433 268.412 22.1858C267.685 22.4283 266.836 22.3071 265.867 21.8221C263.442 21.0947 260.896 20.731 258.229 20.731C251.44 20.731 244.651 23.0345 237.861 27.6414C231.315 32.0058 225.011 37.7038 218.949 44.7354C213.13 51.767 207.795 59.2835 202.946 67.2849C198.097 75.0439 193.975 82.318 190.58 89.1071C184.034 101.473 177.729 115.051 171.668 129.842C165.606 144.39 159.18 159.18 152.391 174.213C145.602 189.004 137.843 203.188 129.114 216.767C120.386 230.345 110.081 242.347 98.1997 252.773C86.5612 263.199 72.8618 271.201 57.1013 276.778C49.0999 279.445 40.1286 280.778 30.1874 280.778C26.0654 280.778 22.1859 280.415 18.5489 279.687C14.9119 279.202 11.7598 278.232 9.09262 276.778ZM205.427 247.318C199.365 247.318 193.909 245.62 189.06 242.226C184.453 238.589 182.15 232.77 182.15 224.768C182.15 216.282 184.211 206.947 188.333 196.763C192.455 186.579 196.334 177.487 199.971 169.485C201.911 165.606 204.457 160.393 207.609 153.846C211.003 147.057 214.64 140.389 218.52 133.842H201.426C200.698 133.842 200.335 133.236 200.335 132.024C200.335 131.054 200.698 130.084 201.426 129.114C202.153 127.902 203.002 127.296 203.972 127.296C210.761 127.296 215.853 126.69 219.247 125.477C222.642 124.265 225.551 122.568 227.976 120.385C231.856 116.991 235.614 112.626 239.251 107.292C243.13 101.958 246.889 97.351 250.526 93.4715C253.193 90.0769 256.466 87.531 260.346 85.8338C264.468 84.1365 267.135 83.5303 268.347 84.0152C267.135 85.7125 265.195 88.6221 262.528 92.7441C259.861 96.8661 257.072 101.352 254.163 106.201C251.253 111.05 248.586 115.536 246.161 119.658C243.737 123.78 242.161 126.568 241.433 128.023H265.437C266.165 128.023 266.529 128.266 266.529 128.751C266.529 129.721 265.922 130.812 264.71 132.024C263.74 133.236 262.77 133.842 261.8 133.842H238.16C233.795 141.359 228.582 151.179 222.521 163.302C216.701 175.183 211.488 186.701 206.881 197.854C205.912 200.036 204.214 204.401 201.79 210.947C199.607 217.494 198.516 223.556 198.516 229.133C198.516 232.77 199.244 235.8 200.698 238.225C202.396 240.65 205.184 241.862 209.064 241.862C213.186 241.862 217.671 240.407 222.521 237.498C227.37 234.346 231.128 231.194 233.795 228.041C239.372 221.98 244.464 215.312 249.071 208.038C253.678 200.764 258.285 193.005 262.892 184.761C263.619 183.791 264.346 183.306 265.074 183.306C266.044 183.306 266.529 184.033 266.529 185.488C266.529 186.701 266.286 187.67 265.801 188.398C261.437 196.399 256.709 204.401 251.617 212.402C246.767 220.404 240.827 227.92 233.795 234.952C230.643 238.104 226.4 241.013 221.066 243.681C215.731 246.105 210.518 247.318 205.427 247.318ZM270.669 247.681C265.577 247.681 260.849 246.711 256.484 244.772C252.362 242.59 248.968 238.952 246.3 233.861C244.361 229.496 243.391 224.768 243.391 219.676C243.391 214.342 244.361 209.371 246.3 204.764C248.24 200.642 250.422 197.005 252.847 193.853C255.272 190.701 257.939 188.883 260.849 188.398C263.031 183.548 266.304 177.123 270.669 169.122C275.275 161.12 280.367 153.119 285.944 145.117C291.763 137.116 297.219 130.69 302.311 125.841C303.523 124.629 305.584 122.689 308.494 120.022C311.646 117.112 315.161 114.324 319.041 111.657C323.163 108.989 326.921 107.413 330.316 106.928C331.043 106.686 332.013 106.565 333.225 106.565C336.135 106.565 338.317 107.292 339.772 108.747C341.227 110.202 341.954 111.899 341.954 113.839C341.954 115.779 341.227 117.718 339.772 119.658C338.317 121.598 336.014 123.174 332.862 124.386C331.649 124.629 329.831 124.992 327.406 125.477C325.224 125.962 321.951 126.205 317.586 126.205C315.889 128.629 315.04 132.024 315.04 136.388C315.04 141.238 315.768 146.693 317.222 152.755C318.92 158.817 320.496 164.757 321.951 170.576C323.648 176.153 324.497 180.881 324.497 184.761C324.981 193.732 323.527 202.825 320.132 212.039C316.98 221.01 311.888 228.648 304.857 234.952L299.765 238.589C300.492 238.831 301.22 239.074 301.947 239.316C302.674 239.316 303.402 239.316 304.129 239.316C308.251 239.316 312.858 238.104 317.95 235.679C323.042 233.012 327.527 229.739 331.407 225.859C337.226 220.282 342.197 214.342 346.319 208.038C350.683 201.734 354.684 195.187 358.321 188.398C358.563 187.428 359.169 186.943 360.139 186.943C361.352 186.943 361.958 187.913 361.958 189.853C361.958 190.823 361.594 191.914 360.867 193.126C357.23 199.915 352.744 207.068 347.41 214.584C342.318 221.858 336.984 228.041 331.407 233.133C327.042 237.013 322.314 239.922 317.222 241.862C312.373 243.559 308.251 244.408 304.857 244.408C302.432 244.408 300.492 244.166 299.037 243.681C297.583 243.196 296.249 242.468 295.037 241.498C291.642 243.196 287.763 244.65 283.398 245.863C279.276 247.075 275.033 247.681 270.669 247.681ZM284.489 238.225C289.339 234.831 293.097 230.466 295.764 225.132C298.674 219.797 300.856 214.099 302.311 208.038C304.25 200.764 305.342 193.247 305.584 185.488C306.069 177.729 306.311 170.698 306.311 164.393V151.664C306.311 146.572 306.918 141.359 308.13 136.025C309.585 130.69 311.04 127.417 312.494 126.205C308.857 127.66 304.857 130.933 300.492 136.025C296.128 140.874 291.763 146.693 287.399 153.482C283.034 160.029 279.034 166.454 275.397 172.759C272.002 179.063 269.335 184.276 267.395 188.398C272.002 188.155 275.154 189.489 276.851 192.399C278.549 195.066 279.034 197.005 278.306 198.218C276.367 197.733 275.033 197.49 274.306 197.49C270.669 197.49 267.274 198.824 264.122 201.491C260.97 203.916 258.303 207.553 256.12 212.402C253.938 217.009 252.847 221.495 252.847 225.859C252.847 231.678 254.544 235.922 257.939 238.589C261.334 241.256 265.334 242.59 269.941 242.59C275.275 242.59 280.125 241.135 284.489 238.225Z" fill="white"/>
</svg>
