<svg width="440" height="325" viewBox="0 0 440 325" fill="none" xmlns="http://www.w3.org/2000/svg">
<g clip-path="url(#clip0_86_26)">
<path d="M144.054 324.098C125.869 324.098 110.594 320.946 98.2279 314.641C86.1045 308.58 76.8907 300.336 70.5865 289.91C64.5248 279.726 61.4939 268.33 61.4939 255.722C61.4939 246.023 63.1912 236.082 66.5858 225.898C70.2228 215.714 75.5571 205.652 82.5887 195.711C89.8627 185.769 98.834 176.677 109.503 168.433C120.171 160.189 131.81 153.642 144.418 148.793C157.026 143.701 169.514 141.155 181.879 141.155C194.245 141.155 203.338 143.701 209.157 148.793C215.219 153.642 218.25 159.947 218.25 167.706C218.25 172.312 217.159 177.404 214.976 182.981C212.794 188.558 209.4 194.135 204.793 199.711C198.489 207.713 190.73 214.866 181.516 221.17C172.302 227.232 162.482 232.081 152.056 235.718C141.872 239.113 131.688 240.81 121.505 240.81C119.808 240.81 118.232 240.81 116.777 240.81C115.322 240.567 113.746 240.325 112.049 240.082C111.079 239.84 110.594 239.234 110.594 238.264C110.836 237.052 111.442 236.567 112.412 236.809C122.353 237.536 132.901 235.96 144.054 232.081C155.45 228.201 166.24 222.867 176.424 216.078C186.608 209.289 194.609 201.894 200.428 193.892C207.217 184.436 210.612 175.707 210.612 167.706C210.612 161.886 208.551 157.037 204.429 153.157C200.307 149.036 193.76 146.975 184.789 146.975C172.908 146.975 161.391 149.52 150.237 154.612C139.084 159.462 128.658 165.887 118.959 173.889C109.503 181.89 101.38 190.619 94.5908 200.075C88.0442 209.046 83.0736 218.503 79.679 228.444C76.2845 238.385 74.5872 247.963 74.5872 257.176C74.5872 267.845 77.0119 277.786 81.8613 287C86.7106 295.971 94.1059 303.124 104.047 308.458C113.988 314.035 126.718 316.824 142.236 316.824C159.451 316.824 175.09 313.793 189.153 307.731C203.217 301.912 215.34 293.91 225.524 283.727C235.707 273.301 243.466 261.541 248.801 248.448C254.377 235.112 257.166 221.049 257.166 206.258C257.166 199.954 256.923 193.892 256.438 188.073C256.196 182.011 255.105 176.192 253.165 170.615C250.498 162.129 247.103 153.279 242.981 144.065C238.859 134.851 235.101 125.395 231.707 115.696C228.555 105.997 226.979 96.1774 226.979 86.2362C226.979 77.2649 228.797 68.2936 232.434 59.3222C237.283 48.4112 244.315 39.6823 253.529 33.1357C262.985 26.3466 274.017 22.952 286.626 22.952C291.233 22.952 295.84 23.6794 300.446 25.1342C305.296 26.3466 309.418 28.5288 312.812 31.6809C316.207 34.833 317.904 39.1974 317.904 44.7742C317.904 48.6536 316.692 51.442 314.267 53.1393C311.842 54.8366 309.297 55.6852 306.629 55.6852C305.175 55.6852 304.205 55.564 303.72 55.3215L304.811 48.0475C304.811 41.9858 302.992 37.5001 299.355 34.5905C295.961 31.4384 291.475 29.8624 285.898 29.8624C279.109 29.8624 272.441 31.8021 265.895 35.6816C259.348 39.3186 254.499 44.0467 251.347 49.866C246.497 58.8373 244.073 68.0511 244.073 77.5074C244.073 85.7513 245.406 93.874 248.073 101.875C250.983 109.634 254.377 117.272 258.257 124.789C262.379 132.063 266.137 139.094 269.532 145.883C279.23 164.311 284.08 183.587 284.08 203.712C284.08 221.17 280.443 237.294 273.169 252.085C265.895 266.633 255.832 279.241 242.981 289.91C230.131 300.821 215.219 309.186 198.246 315.005C181.516 321.067 163.452 324.098 144.054 324.098ZM311.821 289.182C304.304 289.182 298.849 287 295.454 282.636C292.302 278.271 290.726 272.937 290.726 266.633C290.726 258.631 292.302 249.902 295.454 240.446C298.849 230.99 302.728 222.018 307.093 213.532C311.457 204.803 314.973 198.014 317.64 193.165C322.974 184.193 328.309 178.617 333.643 176.434C339.22 174.252 346.009 173.161 354.01 173.161C351.585 173.889 348.433 176.798 344.554 181.89C340.674 186.739 336.552 192.801 332.188 200.075C328.066 207.349 324.065 215.229 320.186 223.716C316.549 231.96 313.518 240.082 311.093 248.084C308.911 255.843 307.82 262.511 307.82 268.087C307.82 272.209 308.547 275.604 310.002 278.271C311.699 280.938 314.245 282.272 317.64 282.272C320.55 282.272 323.944 281.181 327.824 278.999C331.703 276.574 335.219 273.664 338.371 270.27C349.04 258.389 357.647 245.417 364.194 231.354C370.983 217.048 378.499 202.863 386.743 188.8C392.078 179.829 397.412 174.252 402.746 172.07C408.323 169.888 415.112 168.797 423.114 168.797C420.689 169.524 417.416 172.555 413.294 177.889C409.172 182.981 404.807 189.407 400.2 197.165C395.836 204.924 391.714 213.29 387.834 222.261C383.955 230.99 380.682 239.476 378.015 247.72C375.59 255.964 374.377 262.996 374.377 268.815C374.377 272.694 375.105 275.968 376.56 278.635C378.257 281.06 380.682 282.272 383.834 282.272C386.743 282.272 390.138 281.06 394.017 278.635C397.897 276.21 401.413 273.422 404.565 270.27C410.142 264.208 415.233 257.54 419.84 250.266C424.447 242.992 429.054 235.233 433.661 226.989C434.388 226.019 434.995 225.534 435.479 225.534C436.449 225.534 436.934 226.262 436.934 227.716C436.934 228.929 436.692 229.899 436.207 230.626C431.842 238.628 427.236 246.629 422.386 254.63C417.537 262.632 411.596 270.148 404.565 277.18C400.685 281.06 396.078 284.333 390.744 287C385.652 289.425 380.56 290.152 375.469 289.182C368.679 287.97 363.83 285.303 360.92 281.181C358.011 276.816 356.556 271.603 356.556 265.542C356.556 260.692 357.283 255.6 358.738 250.266C355.829 254.873 352.677 259.48 349.282 264.087C346.13 268.694 342.493 273.058 338.371 277.18C334.976 280.575 330.854 283.484 326.005 285.909C321.398 288.091 316.67 289.182 311.821 289.182Z" fill="white"/>
</g>
<defs>
<clipPath id="clip0_86_26">
<rect width="440" height="325" fill="white"/>
</clipPath>
</defs>
</svg>
