<?xml version="1.0" encoding="utf-8"?>
<!-- Generator: Adobe Illustrator 24.0.3, SVG Export Plug-In . SVG Version: 6.00 Build 0)  -->
<svg version="1.1" id="圖層_1" xmlns="http://www.w3.org/2000/svg" xmlns:xlink="http://www.w3.org/1999/xlink" x="0px" y="0px"
	 viewBox="0 0 141.8 33.3" style="enable-background:new 0 0 141.8 33.3;" xml:space="preserve">
<style type="text/css">
	.st0{fill:#FFFFFF;}
</style>
<path class="st0" d="M24.8,0C11.5,0.1-1.4,9.3-1.4,16.9c0,6.9,13.1,16.5,26.5,16.4c12.1-0.1,19.1-6.5,20.3-14.5
	c8.4,0.2,57,1.6,74.2,2.1c18.7,0.5,22.2-2.6,22.2-5.1l0,0c0,0,0,0,0,0l0,0l0,0c-0.1-2.5-3.6-5.5-22.3-4.8c-17.1,0.7-65.3,2.9-74,3.3
	C44.5,6,37.3-0.1,24.8,0z"/>
</svg>