<?xml version="1.0" encoding="utf-8"?>
<!-- Generator: Adobe Illustrator 24.0.3, SVG Export Plug-In . SVG Version: 6.00 Build 0)  -->
<svg version="1.1" id="圖層_1" xmlns="http://www.w3.org/2000/svg" xmlns:xlink="http://www.w3.org/1999/xlink" x="0px" y="0px"
	 viewBox="0 0 95 167" style="enable-background:new 0 0 95 167;" xml:space="preserve">
<style type="text/css">
	.st0{fill:#65D1E4;}
	.st1{fill:#CAEAEB;}
</style>
<path class="st0" d="M47.7,0.4c2.6,4.9,4.7,8.5,6.5,12.4c5,10.9,9.6,21.9,14.8,32.7c4.8,9.9,10.4,19.3,15.3,29.1
	c8.9,17.7,13.3,36.4,9.2,56c-4.5,21.3-19.4,35.8-42.7,36.1c-7.2,0.1-14.7-0.8-21.5-2.9c-11.5-3.5-19.5-11.8-24.2-22.9
	c-8.3-19.8-5.9-39.5,2.2-58.6C12.8,69.6,20,57.8,26.1,45.4c6.7-13.7,13.1-27.6,19.6-41.5C46,3.2,46.5,2.5,47.7,0.4z M22.8,72
	c-0.5-0.2-0.9-0.3-1.4-0.5c-1,0.8-2.3,1.4-2.8,2.4c-3.7,7.7-8.3,15.3-10.4,23.5c-1.9,7.6-1.4,15.8-1.3,23.8
	c0.1,10.8,4.2,20.1,12.3,27.3c1.5,1.4,5.6,2.2,6.8,1.2c2.4-2,5.3-5.7,4.9-8.2c-0.9-5.8-3.2-11.5-5.8-16.8c-6.3-13.2-4.2-27-3.7-40.6
	C21.4,79.9,22.3,75.9,22.8,72z"/>
<path class="st1" d="M22.8,72c-0.5,4-1.4,7.9-1.5,11.9c-0.5,13.7-2.5,27.5,3.7,40.6c2.5,5.4,4.9,11.1,5.8,16.8
	c0.4,2.5-2.5,6.2-4.9,8.2c-1.2,1-5.3,0.2-6.8-1.2c-8-7.2-12.2-16.5-12.3-27.3c0-8-0.6-16.2,1.3-23.8c2.1-8.2,6.7-15.7,10.4-23.5
	c0.5-1,1.9-1.6,2.8-2.4C21.9,71.6,22.4,71.8,22.8,72z"/>
</svg>
