<?xml version="1.0" encoding="utf-8"?>
<!-- Generator: Adobe Illustrator 24.0.3, SVG Export Plug-In . SVG Version: 6.00 Build 0)  -->
<svg version="1.1" id="圖層_1" xmlns="http://www.w3.org/2000/svg" xmlns:xlink="http://www.w3.org/1999/xlink" x="0px" y="0px"
	 viewBox="0 0 37.99 24.94" style="enable-background:new 0 0 37.99 24.94;" xml:space="preserve">
<style type="text/css">
	.st0{fill:#427A17;}
</style>
<path class="st0" d="M17.16,23.67c0.06-0.02,0.11-0.04,0.17-0.06c-0.31-1.66-1.78-7.65-7.03-10.02c0,0,5.21,0.35,8.75,8.62
	c1.91-2.53,1.94-7.44-4.57-10.7C7.01,7.77,0.18,13.34,0.18,13.34C5.83,12.06,8.16,26.89,17.16,23.67z"/>
<path class="st0" d="M21.84,15.33C20.47,7.82,24,5.14,24,5.14c-2.6,4.13-0.84,9.05-0.29,10.38c0.06-0.01,0.11-0.02,0.16-0.03
	c7.88-1.94,2.58-13.53,7.19-15.27c0,0-7.45-0.75-10.99,5.4C16.98,10.97,19.3,14.43,21.84,15.33z"/>
<path class="st0" d="M24.62,22.32c2.89-5.55,6.52-5.52,6.52-5.52c-3.76,1.37-5.1,5.43-5.39,6.57c0.03,0.02,0.07,0.03,0.11,0.05
	c6.07,2.7,8.46-7.45,12.31-6.27c0,0-4.44-4.22-9.82-2.03C23.66,17.05,23.43,20.46,24.62,22.32z"/>
</svg>
