<?xml version="1.0" encoding="utf-8"?>
<!-- Generator: Adobe Illustrator 24.0.3, SVG Export Plug-In . SVG Version: 6.00 Build 0)  -->
<svg version="1.1" id="圖層_1" xmlns="http://www.w3.org/2000/svg" xmlns:xlink="http://www.w3.org/1999/xlink" x="0px" y="0px"
	 viewBox="0 0 54.5 45.5" style="enable-background:new 0 0 54.5 45.5;" xml:space="preserve">
<style type="text/css">
	.st0{fill:#EAD7CA;}
	.st1{fill:#FF9E3E;}
	.st2{fill:#DDC4B3;}
	.st3{opacity:0.35;}
	.st4{fill:#FFFFFF;}
	.st5{fill:#AF4622;}
	.st6{opacity:0.7;}
	.st7{opacity:0.5;fill:#AF4622;enable-background:new    ;}
</style>
<g>
	<polygon class="st0" points="45.4,40.7 49.8,36.2 37.5,23.9 33.1,28.4 	"/>
	<path class="st1" d="M21.6,28.3c-1.4-0.4-2.6-1-3.7-2.1l-6.2-6.2c-3.2-3.2-3.2-8.2,0-11.4l6.2-6.3c3.1-3.1,8.2-3.1,11.4,0l6.2,6.3
		c1.1,1,1.8,2.3,2.1,3.7l0,0L42.7,24c0.2,0.4,0.4,0.8,0.5,1.2l0,0.1l0,0c0.4,1.5,0,3.1-1.2,4.2L38.7,33c-1.1,1.2-2.8,1.5-4.2,1.2v0
		l-0.1,0c-0.5-0.1-0.9-0.3-1.3-0.6L21.6,28.3z"/>
	<path class="st0" d="M47.9,39.2c1.5,1.5,4,1.5,5.4,0c1.5-1.5,1.5-3.9,0-5.4c-1.5-1.5-3.9-1.5-5.4,0C46.5,35.3,46.5,37.8,47.9,39.2z
		"/>
	<path class="st0" d="M42.9,44.3c1.5,1.5,3.9,1.5,5.4,0c1.5-1.5,1.5-3.9,0-5.4c-1.5-1.5-3.9-1.5-5.4,0
		C41.4,40.3,41.4,42.8,42.9,44.3z"/>
	<path class="st2" d="M40.6,31.1l9.2,9.2c-0.2,0-0.4-0.1-0.6-0.2c0.6,1.4,0.3,3-0.8,4.2c-1.5,1.5-3.9,1.5-5.4,0
		c-1.5-1.5-1.5-3.9,0-5.4c0.1-0.1,0.2-0.2,0.3-0.3l-5.1-5.1L40.6,31.1z"/>
	<g class="st3">
		<path class="st4" d="M30.8,14.4c-0.4,0.4-0.4,1.1,0,1.5c0.4,0.4,1.1,0.4,1.5,0c0.4-0.4,0.4-1.1,0-1.5C31.8,14,31.1,14,30.8,14.4z"
			/>
		<path class="st4" d="M27.8,11.4c-0.4,0.4-0.4,1.1,0,1.5c0.4,0.4,1.1,0.4,1.5,0c0.4-0.4,0.4-1.1,0-1.5C28.9,11,28.2,11,27.8,11.4z"
			/>
		<path class="st4" d="M24.8,8.5c-0.4,0.4-0.4,1.1,0,1.5c0.4,0.4,1.1,0.4,1.5,0c0.4-0.4,0.4-1.1,0-1.5C25.9,8.1,25.3,8.1,24.8,8.5z"
			/>
		<path class="st4" d="M21.9,5.5c-0.4,0.4-0.4,1.1,0,1.5c0.4,0.4,1.1,0.4,1.5,0c0.4-0.4,0.4-1.1,0-1.5C22.9,5.1,22.3,5.1,21.9,5.5z"
			/>
	</g>
	<g class="st3">
		<path class="st4" d="M31.4,10.8c-0.4,0.4-0.4,1.1,0,1.5c0.4,0.4,1.1,0.4,1.5,0c0.4-0.4,0.4-1.1-0.1-1.5
			C32.4,10.4,31.8,10.4,31.4,10.8z"/>
		<path class="st4" d="M28.4,7.9c-0.4,0.4-0.4,1.1,0,1.5c0.4,0.4,1.1,0.4,1.5,0c0.4-0.4,0.4-1.1,0-1.5C29.5,7.5,28.8,7.5,28.4,7.9z"
			/>
		<path class="st4" d="M25.4,4.9C25,5.3,25,6,25.4,6.4c0.4,0.4,1.1,0.4,1.5,0c0.4-0.4,0.4-1.1,0-1.5C26.5,4.5,25.9,4.5,25.4,4.9z"/>
	</g>
</g>
<g>
	<path class="st5" d="M26.5,40c-2.3,2.3-6.1,2.3-8.4,0L2.7,24.6c-2.3-2.3-2.3-6.1,0-8.4l0.7-0.7c2.3-2.3,6.1-2.3,8.4,0l15.4,15.4
		c2.3,2.3,2.3,6.1,0,8.4L26.5,40z"/>
	<g class="st6">
		<polygon class="st5" points="12.8,31.3 11.4,29.9 17.1,24.1 18.5,25.6 		"/>
		<polygon class="st5" points="9.9,28.4 8.4,26.9 14.1,21.2 15.6,22.7 		"/>
		<polygon class="st5" points="6.9,25.5 5.5,24 11.2,18.3 12.7,19.8 		"/>
		<polygon class="st5" points="4,22.5 2.6,21.1 8.2,15.4 9.7,16.8 		"/>
		<polygon class="st5" points="21.6,40.1 20.1,38.7 25.9,33 27.3,34.4 		"/>
		<polygon class="st5" points="18.7,37.2 17.2,35.7 22.9,30 24.4,31.5 		"/>
		<polygon class="st5" points="15.8,34.3 14.3,32.8 20,27.1 21.4,28.5 		"/>
	</g>
	<polygon class="st5" points="3.5,16.2 0,15.9 3.2,12.7 	"/>
	<polygon class="st5" points="26.4,39.1 26.6,42.6 29.9,39.4 	"/>
	<path class="st7" d="M1.9,14l-2,2l2.7,0.2v0c-2.3,2.3-2.3,6.1,0,8.4L18.1,40c2.3,2.3,6.1,2.3,8.4,0l0.2,2.6l2-2L1.9,14z"/>
</g>
<g class="st3">
	<path class="st4" d="M29.1,28.3c-0.4,0.4-0.4,1.1,0,1.5c0.4,0.4,1.1,0.4,1.5,0c0.4-0.4,0.4-1.1,0-1.5
		C30.2,27.9,29.5,27.9,29.1,28.3z"/>
	<path class="st4" d="M26.2,25.4c-0.4,0.4-0.4,1.1,0,1.5c0.4,0.4,1.1,0.4,1.5,0c0.4-0.4,0.4-1.1,0-1.5C27.2,25,26.6,25,26.2,25.4z"
		/>
	<path class="st4" d="M23.2,22.4c-0.4,0.4-0.4,1.1,0,1.5c0.4,0.4,1.1,0.4,1.5,0c0.4-0.4,0.4-1,0-1.5C24.3,22,23.6,22,23.2,22.4z"/>
	<path class="st4" d="M20.2,19.5c-0.4,0.4-0.4,1.1,0,1.5c0.4,0.4,1.1,0.4,1.5,0c0.4-0.4,0.4-1.1,0-1.5
		C21.3,19.1,20.7,19.1,20.2,19.5z"/>
</g>
<g class="st3">
	<path class="st4" d="M29.7,24.8c-0.4,0.4-0.4,1.1,0,1.5c0.4,0.4,1.1,0.4,1.5,0c0.4-0.4,0.4-1.1-0.1-1.5
		C30.8,24.4,30.1,24.4,29.7,24.8z"/>
	<path class="st4" d="M26.8,21.8c-0.4,0.4-0.4,1.1,0,1.5c0.4,0.4,1.1,0.4,1.5,0c0.4-0.4,0.4-1.1,0-1.5
		C27.8,21.4,27.2,21.4,26.8,21.8z"/>
	<path class="st4" d="M23.8,18.8c-0.4,0.4-0.4,1.1,0,1.5c0.4,0.4,1.1,0.4,1.5,0c0.4-0.4,0.4-1.1,0-1.5
		C24.9,18.4,24.2,18.4,23.8,18.8z"/>
</g>
</svg>
