<?xml version="1.0" encoding="utf-8"?>
<!-- Generator: Adobe Illustrator 24.0.3, SVG Export Plug-In . SVG Version: 6.00 Build 0)  -->
<svg version="1.1" id="圖層_1" xmlns="http://www.w3.org/2000/svg" xmlns:xlink="http://www.w3.org/1999/xlink" x="0px" y="0px"
	 viewBox="0 0 48.23 41.04" style="enable-background:new 0 0 48.23 41.04;" xml:space="preserve">
<style type="text/css">
	.st0{fill:#FFE1CC;}
	.st1{fill:#AF2804;}
	.st2{fill:#FF3000;}
	.st3{fill:#CE2200;}
	.st4{fill:#EFC8AC;}
	.st5{fill:#FFFFFF;}
</style>
<g>
	<path class="st0" d="M22.89,5.16c5.51-4.94,13.95-4.81,19.29,0.42c5.57,5.46,5.68,14.38,0.22,19.95c-0.27,0.28-0.54,0.52-0.81,0.76
		l0,0c0,0-17.64,18.01-34.26,11.54c-0.75-0.2-1.45-0.53-2.11-0.94l0,0l0,0c-0.44-0.29-0.88-0.62-1.29-1.02
		C0.87,32.86,0.75,28,3.59,24.84l0-0.01L22.87,5.14L22.89,5.16z"/>
	<path class="st1" d="M2.08,24l0.04-0.07L21.67,3.97l1.42-1.12c6.16-4.43,14.74-3.89,20.27,1.53c6.21,6.09,6.34,16.12,0.25,22.33
		c-0.26,0.27-0.53,0.54-0.85,0.81c-1.26,1.25-18.8,18.51-35.95,11.9c-0.88-0.24-1.71-0.62-2.49-1.12c-0.57-0.35-1.08-0.77-1.55-1.23
		C-0.84,33.53-1.11,27.85,2.08,24z M39.1,26.22l1.38-1.18c0.29-0.24,0.51-0.47,0.72-0.68c4.79-4.89,4.71-12.77-0.19-17.58
		c-4.67-4.58-12.14-4.73-17-0.36l-0.26,0.21l-18.8,19.2l-0.12,0.13c-2.25,2.51-2.13,6.33,0.3,8.7c0.31,0.3,0.65,0.57,1.01,0.81
		c0.51,0.33,1.07,0.58,1.66,0.75l0.15,0.05c12.99,5.06,27.04-6.27,31.21-10L39.1,26.22z"/>
	<path class="st2" d="M24.91,9.19c-3.75,3.83-3.67,9.97,0.15,13.71c3.82,3.74,9.94,3.68,13.69-0.15c3.74-3.82,3.7-9.97-0.12-13.71
		C34.81,5.3,28.65,5.37,24.91,9.19z"/>
	<path class="st2" d="M7.7,26.5c-1.93,1.97-1.9,5.13,0.08,7.08c1.97,1.92,5.13,1.88,7.06-0.08c1.94-1.98,1.91-5.14-0.06-7.07
		C12.8,24.48,9.64,24.51,7.7,26.5z"/>
	<path class="st2" d="M11.43,25c-2.47,2.01-2.87,10.33-0.1,10c16.16-0.36,26.68-11.49,26.68-11.49L22.2,14.85
		C22.2,14.85,20.17,24.47,11.43,25z"/>
	<path class="st3" d="M12.6,34.94c15.43-0.88,25.41-11.43,25.41-11.43l-0.03-0.03c0.27-0.23,0.53-0.47,0.77-0.72
		c3.74-3.82,3.7-9.97-0.12-13.71c-0.13-0.12-0.24-0.22-0.37-0.31L12.6,34.94z"/>
	<path class="st4" d="M29.04,13.24c-1.51,1.54-1.48,4.02,0.07,5.53c1.54,1.51,4.02,1.48,5.52-0.06c1.51-1.55,1.49-4.02-0.05-5.53
		C33.03,11.67,30.55,11.7,29.04,13.24z"/>
	<path class="st5" d="M29.88,14.07c-1.1,1.12-1.09,2.94,0.03,4.04c1.14,1.12,2.95,1.09,4.05-0.03c1.11-1.13,1.1-2.94-0.04-4.06
		C32.81,12.91,30.99,12.94,29.88,14.07z"/>
</g>
</svg>
