<?xml version="1.0" encoding="utf-8"?>
<!-- Generator: Adobe Illustrator 24.0.3, SVG Export Plug-In . SVG Version: 6.00 Build 0)  -->
<svg version="1.1" id="圖層_1" xmlns="http://www.w3.org/2000/svg" xmlns:xlink="http://www.w3.org/1999/xlink" x="0px" y="0px"
	 viewBox="0 0 139.33 300.35" style="enable-background:new 0 0 139.33 300.35;overflow:hidden;" xml:space="preserve">
<style type="text/css">
	.st0{fill:url(#SVGID_1_);}
	.st1{fill:url(#SVGID_2_);}
	.st2{fill:url(#SVGID_3_);}
	.st3{fill:url(#SVGID_4_);}
	.st4{fill:url(#SVGID_5_);}
	.st5{fill:url(#SVGID_6_);}
	.st6{fill:url(#SVGID_7_);}
	.st7{fill:url(#SVGID_8_);}
	.st8{fill:url(#SVGID_9_);}
	.st9{fill:url(#SVGID_10_);}
	.st10{fill:url(#SVGID_11_);}
	.st11{fill:none;stroke:#E95513;stroke-width:8.0187;stroke-miterlimit:10;}
	.st12{fill:none;stroke:#E95513;stroke-width:8.0187;stroke-linejoin:round;stroke-miterlimit:10;}
	<!-- @keyframes spin {
  0%{
            transform: translateX(0px);
  }
  100%{
            transform: translateX(10px);
  }

}-->	
@keyframes line{
		0%{
			transform: translateY(0px);
		}
		25%{
			transform: translateY(-27px);
		}
		75%{
			transform: translateY(50px);
		}
		100%{
			transform: translateY(0px);
		}
	}
</style>
<g>
	<g>
		<linearGradient id="SVGID_1_" gradientUnits="userSpaceOnUse" x1="64.9328" y1="275.9032" x2="70.8456" y2="117.1042">
			<stop  offset="6.407100e-04" style="stop-color:#C30D23"/>
			<stop  offset="1" style="stop-color:#F29600"/>
		</linearGradient>
		<path class="st0" d="M52.74,83.5v120.81c0,9.44,7.66,17.1,17.1,17.1c9.44,0,17.1-7.66,17.1-17.1V83.5H52.74z" style="animation: line 10s linear infinite forwards;"/>
		<g>
			<linearGradient id="SVGID_2_" gradientUnits="userSpaceOnUse" x1="68.0194" y1="276.018" x2="73.9322" y2="117.2186">
				<stop  offset="6.407100e-04" style="stop-color:#C30D23"/>
				<stop  offset="1" style="stop-color:#F29600"/>
			</linearGradient>
			<path class="st1" d="M121.52,227.07c0,28.54-23.14,51.68-51.67,51.68c-28.54,0-51.68-23.14-51.68-51.68
				c0-28.54,23.13-51.68,51.68-51.68C98.38,175.39,121.52,198.53,121.52,227.07z"/>
			<!-- <mask id="theMask">
				<rect id="theSquare" x="-100" y="0" width="100" height="100" fill="#fff" />
			</mask> -->
			<!-- <g mask="url(#theMask)">
				<rect id="theSquare" x="-100" y="0" width="100" height="100" fill="#fff" />
			</g> -->
			<g style="animation: spin 10s linear infinite forwards;">
				<linearGradient id="SVGID_3_" gradientUnits="userSpaceOnUse" x1="65.7921" y1="197.27" x2="65.7921" y2="185.6691">
					<stop  offset="0" style="stop-color:#F29600"/>
					<stop  offset="1" style="stop-color:#FAED00"/>
				</linearGradient>
				<path class="st2" d="M55.38,188.44c0,0,1.27,0,2.04,0.53c0.77,0.53,1.24,0.53,1.55,1.3c0.31,0.77,0.31,0.62,0.4,0.93
					c0.09,0.31,0,0.9-0.34,1.33c-0.34,0.43-0.96,1.08-1.09,1.18c-0.12,0.09-0.28,0.68-0.21,1.05c0.06,0.37-0.13,1.15,0.43,1.77
					c0.56,0.62,0.68,0.74,1.05,0.74c0.37,0,1.3-0.34,2.04-1.15c0.74-0.8-0.28-1.05,1.05-1.3c1.33-0.25,1.46-0.09,2.14-0.56
					c0.68-0.46,0.78-0.65,1.49-0.96c0.71-0.31,0.62-0.31,0.99-0.4c0.37-0.09,0.28-0.03,0.77-0.16c0.5-0.12,1.33-0.4,1.64-0.43
					c0.31-0.03,0.8-0.28,0.99-0.19c0.19,0.09,0.22-0.22,0-0.22c-0.21,0-0.21-0.62-0.31-0.62c-0.09,0-0.22,0.13-0.22-0.09
					c0-0.22-0.12-0.56,0.43-0.09c0.56,0.47,0,0.68,0.75,0.53c0.74-0.16,1.27-0.06,0.99-0.25c-0.28-0.19-1.18-0.65-1.3-0.71
					c-0.12-0.06-0.5-0.37,0.12-0.56c0.62-0.19,0.03,0.28,1.05-0.37c1.02-0.65,1.4-0.56,1.58-1.02c0.19-0.46,0.34-0.99,0.31-1.15
					c-0.03-0.15-0.22-0.06,0.37-0.37c0.59-0.31,0.22-0.34,1.12-0.43c0.9-0.09,2.82-0.03,0.8-0.37c-2.01-0.34-1.95-0.28-2.73-0.47
					c-0.77-0.18-1.05-0.31-1.52-0.25c-0.46,0.06-2.35,0.34-3.5,0.5c-1.14,0.15,0.47,0.83-3.28,0.43c-3.75-0.4-2.51-0.46-4.4,0
					c-1.89,0.47-0.87,0.62-2.67,0.93c-1.79,0.31-1.89,0.28-2.14,0.4C55.56,188.07,53.64,187.42,55.38,188.44z"/>
				<linearGradient id="SVGID_4_" gradientUnits="userSpaceOnUse" x1="48.6616" y1="196.0872" x2="48.6616" y2="188.5734">
					<stop  offset="0" style="stop-color:#F29600"/>
					<stop  offset="1" style="stop-color:#FAED00"/>
				</linearGradient>
				<path class="st3" d="M48.78,194.3c0.18-0.13,1.24-0.28,1.52-0.31c0.28-0.03,0.59-0.37,0.09-0.71c-0.5-0.34-0.43-0.37-0.9-0.62
					c-0.46-0.25,0.47-0.09-0.68-0.44c-1.15-0.34-1.24-0.28-1.33-0.28c-0.09,0-0.62-0.12-0.9-0.16c-0.28-0.03-0.25,0.03-0.83-0.12
					c-0.59-0.16-2.02,0.14-1.87-0.63c0.15-0.77,0.38-0.57,0.97-0.7c0.59-0.12,1.77,0.03,1.77-0.34c0-0.37-0.06-0.43-0.22-0.59
					c-0.15-0.15-0.71,0.03-0.4-0.34c0.31-0.37,0.59-0.56,1.12-0.46c0.52,0.09,0.83,0.4,1.08,0.4c0.25,0,0.87,0,0.96,0
					c0.1,0,0.47-0.34,0.47,0.03c0,0.37-0.65,0.62-1.05,0.62c-0.4,0-0.56-0.03-0.56,0.06c0,0.09-0.28,0.65,0.19,0.65
					c0.46,0,1.3,0.16,1.92,0.46c0.62,0.31,2.14,0.68,2.26,0.68c0.12,0,0.21,0.22,0.03,0.81c-0.18,0.59-0.06,1.3,0.4,1.36
					c0.46,0.06,0.8-0.16,0.59,0.18c-0.22,0.34,0.13,0.34-0.56,0.53c-0.68,0.19-0.99,0.34-1.3,0.37c-0.31,0.03-1.05,0.31-1.12,0.5
					c-0.06,0.19,0.22,0.34-0.06,0.53c-0.28,0.19-0.53,0.37-0.81,0.28c-0.28-0.09-0.68,0.12-1.08-0.31
					C48.06,195.32,48.1,194.79,48.78,194.3z"/>
				<linearGradient id="SVGID_5_" gradientUnits="userSpaceOnUse" x1="53.624" y1="189.0429" x2="53.624" y2="185.4619">
					<stop  offset="0" style="stop-color:#F29600"/>
					<stop  offset="1" style="stop-color:#FAED00"/>
				</linearGradient>
				<path class="st4" d="M48.66,187.89c0,0,1.88-0.44,1.95-0.53c0.07-0.09,0.02-0.23,0.18-0.46c0.16-0.23,0.56-0.49,0.7-0.49
					c0.14,0,0.53,0,0.74-0.07c0.21-0.07-0.56-0.14,0.6-0.19c1.16-0.05,0.88,0.19,1.56-0.05c0.68-0.23,0.95-0.33,1.19-0.39
					c0.23-0.07,0.49-0.12,0.91-0.12c0.42,0,1.07,0.05,1.19,0.05c0.12,0,0.6-0.3,0.86-0.12c0.26,0.19,0.44-0.02,0.26,0.19
					c-0.19,0.21-1.28,0.77-1.63,0.88c-0.35,0.12-1.53,0.56-1.67,0.56c-0.14,0-1.6,0.25-1.97,0.37c-0.37,0.12-1.16,0.58-1.28,0.72
					c-0.12,0.14-0.65,0.33-0.91,0.47c-0.25,0.14-0.77,0.44-0.95,0.3c-0.19-0.14-0.21-0.44-0.49-0.58c-0.28-0.14-1.46-0.14-1.46-0.14
					S48.22,187.94,48.66,187.89z"/>
				<linearGradient id="SVGID_6_" gradientUnits="userSpaceOnUse" x1="51.3477" y1="204.8242" x2="51.3477" y2="202.8483">
					<stop  offset="0" style="stop-color:#F29600"/>
					<stop  offset="1" style="stop-color:#FAED00"/>
				</linearGradient>
				<path class="st5" d="M51.66,202.88c0,0-0.95,1-1.07,1.05c-0.12,0.04-0.46,0.19-0.46,0.19s-0.12,0.23-0.14,0.32
					c-0.02,0.09-0.19,0.02-0.02,0.09c0.16,0.07,0.51,0.16,0.91,0.16c0.39,0,1.18,0.02,1.18,0.02s0,0.28,0.33-0.05
					c0.32-0.32,0.46-0.32,0.42-0.48c-0.04-0.17-0.12-0.44-0.37-0.58c-0.26-0.14-0.37-0.23-0.49-0.26c-0.12-0.02-0.14,0.05-0.14-0.14
					C51.8,203.02,53.1,202.76,51.66,202.88z"/>
				<linearGradient id="SVGID_7_" gradientUnits="userSpaceOnUse" x1="72.4065" y1="195.6544" x2="72.4065" y2="193.8518">
					<stop  offset="0" style="stop-color:#F29600"/>
					<stop  offset="1" style="stop-color:#FAED00"/>
				</linearGradient>
				<path class="st6" d="M70.87,194.51c0,0,1.23-0.18,1.42-0.23c0.19-0.05,0.4-0.02,0.7-0.18c0.3-0.16,0.32-0.28,0.7-0.23
					c0.37,0.05,0.54,0.21,0.54,0.33c0,0.12,0.19,0.18-0.05,0.44c-0.23,0.26-0.65,0.49-0.86,0.58c-0.21,0.1-0.23,0.19-0.44,0.23
					c-0.21,0.05-0.35,0.12-0.63,0.16c-0.28,0.05-0.44,0.14-0.81-0.19c-0.37-0.33,0.09-0.26-0.37-0.33
					C70.59,195.03,70.22,194.79,70.87,194.51z"/>
				<linearGradient id="SVGID_8_" gradientUnits="userSpaceOnUse" x1="77.9247" y1="203.2964" x2="77.9247" y2="198.5047">
					<stop  offset="0" style="stop-color:#F29600"/>
					<stop  offset="1" style="stop-color:#FAED00"/>
				</linearGradient>
				<path class="st7" d="M77.82,202.95c0,0,1.02-0.26,0.7-0.58c-0.32-0.32-0.56-0.14-0.58-0.37c-0.03-0.23,0.16-0.74,0.23-0.74
					c0.07,0,0.28-0.18,0.28-0.18s0.3,0.11,0-0.23c-0.3-0.35-0.82-0.51-0.88-0.51c-0.07,0-0.05,0.09-0.39,0.35
					c-0.35,0.25-0.23,0.09-0.4,0.14c-0.16,0.05-0.16,0.56-0.14,0.74c0.02,0.19,0.51,0.19,0.02,0.4c-0.49,0.21-0.79,0.3-0.9,0.33
					c-0.12,0.02-0.72,0.25-0.72,0.25s0.03-0.14,0.14-0.58c0.11-0.44,0.23-0.44,0.18-0.77c-0.04-0.32-0.39-0.3-0.07-0.58
					c0.33-0.28,0.33-0.37,0.63-0.42c0.3-0.05,0.84-0.05,0.84-0.05s0.32-0.02,0.53-0.07c0.21-0.05,0.33,0,0.35-0.21
					c0.02-0.21,0.02-0.58,0.02-0.58s0.21-0.6,0.37-0.67c0.16-0.07,0.19-0.14,0.42-0.07c0.23,0.07,0.3,0.26,0.35,0.33
					c0.05,0.07,0.23-0.09,0.02,0.23c-0.21,0.32-0.37,0.42,0.05,0.7c0.42,0.28,0.48,0.3,0.53,0.42c0.05,0.12,0.51,1.28,0.62,1.3
					c0.12,0.02-0.11-0.35,0.33,0.02c0.44,0.37,0.58,0.35,0.37,0.56c-0.21,0.21-0.18,0.21-0.46,0.37c-0.28,0.16,0.12,0.05-0.72,0.42
					c-0.83,0.37-0.86,0.33-1.14,0.42"/>
				<linearGradient id="SVGID_9_" gradientUnits="userSpaceOnUse" x1="105.5247" y1="250.3311" x2="105.5247" y2="241.6913">
					<stop  offset="0" style="stop-color:#F29600"/>
					<stop  offset="1" style="stop-color:#FAED00"/>
				</linearGradient>
				<path class="st8" d="M103.42,248.37c0,0,0.46-0.88,0.63-1.11c0.16-0.23,0.3-0.09,0.3-0.46c0-0.37,0.02-0.67-0.09-0.98
					c-0.12-0.3-0.19-0.56-0.02-0.63c0.16-0.07,0.58-0.84,0.58-0.84s0.44,0.07,0.58,0c0.14-0.07,0.42-0.7,0.56-0.81
					c0.14-0.12,0.23-0.09,0.58-0.51c0.35-0.42,0.6-0.32,0.7-0.7c0.09-0.37-0.02-1,0.09-0.37c0.11,0.63,0.28,1.09,0.3,1.23
					c0.02,0.14,0.12,0.51,0.12,0.95c0,0.44-0.05,0.77-0.21,1.09c-0.16,0.33-0.18,0.51-0.3,0.93c-0.12,0.42-0.12,0.44-0.35,1.37
					c-0.23,0.93-1.32,2.67-1.35,2.74c-0.02,0.07,0.12,0.09-0.49-0.05c-0.61-0.14-0.81-0.02-0.95-0.37
					C103.96,249.51,102.96,249.14,103.42,248.37z"/>
				<linearGradient id="SVGID_10_" gradientUnits="userSpaceOnUse" x1="94.6779" y1="256.024" x2="94.6779" y2="191.6732">
					<stop  offset="0" style="stop-color:#F29600"/>
					<stop  offset="1" style="stop-color:#FAED00"/>
				</linearGradient>
				<path class="st9" d="M106.03,192.4c-0.49-0.01-0.96,0.01-1.03,0.02c-0.12,0.02,0.28,0.05-0.47,0.25
					c-0.74,0.21-1.88,0.35-1.88,0.35s-0.49-0.33-1.04-0.02c-0.56,0.3-0.98,0.6-1.21,0.56c-0.23-0.05-0.44-0.12-0.44-0.21
					c0-0.09,0.46-0.35,0.02-0.35c-0.44,0-0.44-0.07-0.51,0.09c-0.07,0.16-0.4,0.81-0.95,0.98c-0.56,0.16-0.63-0.02-0.77,0.19
					c-0.14,0.21-0.07,0.53-0.3,0.67c-0.23,0.14-0.49,0.47-0.93,0.28c-0.44-0.18-0.16,0.07-0.77-0.51c-0.6-0.58-1.14-1.07-1.04-1.26
					c0.09-0.18,0.88,0.02,1.25,0.12c0.37,0.09,1.14,0.16,1.23,0.09c0.09-0.07,0.49-0.16,0.49-0.35c0-0.19-3.32-1.04-3.76-1.21
					c-0.45-0.16-0.98-0.4-1.63-0.42c-0.65-0.02-1.37,0.02-2.25,0.19c-0.88,0.16-1.14,0.28-1.14,0.28s-1.23,0.49-1.56,0.7
					c-0.32,0.21-0.53,0.63-0.65,0.7c-0.12,0.07-0.16,0.28-0.42,0.37c-0.26,0.09-0.58,0.37-0.84,0.7c-0.25,0.33-0.95,1.05-1.09,1.16
					c-0.14,0.12-0.93,0.3-1.16,0.42c-0.23,0.12-0.56,0.19-0.63,0.39c-0.07,0.21,0.21,1.56,0.26,1.72c0.04,0.16,0.28-0.02,0.79,0.02
					c0.51,0.05,1.21,0.05,1.3-0.05c0.09-0.09,0.23-0.25,0.37-0.16c0.14,0.09,0.37,0.58,0.46,0.74c0.09,0.16,0.07,0.6,0.6,0.51
					c0.54-0.09,0.84-0.18,1-0.37c0.16-0.19-0.04,0.02,0.35-0.67c0.39-0.7,0.07,0.26,0.53-1.16c0.47-1.42-0.02-0.79,0.47-1.42
					c0.49-0.63,0.63-0.88,0.75-1c0.12-0.12,0.51-0.44,0.79-0.63c0.28-0.19,1.02-0.46,0.84,0.19c-0.18,0.65-0.35,0.72-0.46,0.91
					c-0.12,0.19-0.49,0.44-0.32,0.84c0.16,0.39,0.49,0.63,0.58,0.63c0.09,0,0.58,0.35,1.51,0.19c0.93-0.16,1.02-0.33,1.02-0.21
					c0,0.12,0.04,0.84,0,1.18c-0.05,0.35-0.79,1.33-0.86,1.44c-0.07,0.12-0.16-1.35-0.86-1.23c-0.69,0.12-1.11,0.77-1.11,0.95
					c0,0.19,0.37-0.04-0.21,0.42c-0.58,0.46-1,0.72-0.93,0.95c0.07,0.23-0.02,0.35-0.46,0.35c-0.44,0-1.25,0.02-1.56,0.14
					c-0.3,0.12-0.47,0.21-1.16,0.21c-0.7,0-1.04-0.21-1.18-0.65c-0.14-0.44,0.07-0.35-0.19-0.7c-0.26-0.35-0.21-0.7-0.39-0.58
					c-0.19,0.12-0.3,0.19-0.35,0.44c-0.04,0.26-0.09,0.86-0.21,1.14c-0.12,0.28-0.61,0.56-0.75,0.58c-0.14,0.02-0.93,0.09-1.35,0.37
					c-0.42,0.28-0.67,1.49-1.25,1.79c-0.58,0.3-1.46,0.72-1.72,0.65c-0.26-0.07-1.28,0-1.37,0.35c-0.09,0.35,0.02,0.16,0.81,0.63
					c0.79,0.46,0.95,0.79,0.95,0.79s0.26-0.4-0.07,0.42c-0.33,0.81,0.25,1.07-0.56,1.07c-0.81,0-1.12,0.02-1.3,0.02
					c-0.19,0-0.91-0.02-1.16-0.05c-0.26-0.02-1,0.49-1.19,0.98c-0.18,0.49-0.18,0.95-0.18,1.12c0,0.16-0.05,0.53,0.07,0.84
					c0.12,0.3-0.05,0.81,0.44,0.84c0.49,0.02,0.26,0.12,0.88,0.07c0.63-0.05,0.84-0.14,1-0.12c0.16,0.02,1.02-0.07,1.37-0.21
					c0.35-0.14,0.86-0.44,1.23-0.93c0.37-0.49,0.07-0.6,0.56-1.05c0.49-0.44,0.37-0.37,0.56-0.6c0.19-0.23,0.07-0.3,0.26-0.44
					c0.19-0.14,0.03-0.19,0.61-0.26c0.58-0.07,0.81,0.02,1.04,0.19c0.24,0.16,0.17-0.81,0.56-0.93c0.4-0.11,0.54-0.18,0.72-0.11
					c0.19,0.07,0.67,0.21,0.77,0.42c0.09,0.21,0.11,0.35,0.35,0.54c0.23,0.19,0.44,0.33,0.44,0.33s0.21,0.18,0.21,0.26
					c0,0.07,0.11,0.19,0.37,0.44c0.26,0.26,0.33,0.81,0.7,0.98c0.37,0.16,0.53,0.23,0.77,0.23c0.23,0,0.72-0.14,0.72-0.14
					s0.49,0,0.09-0.47c-0.39-0.46-0.23-0.46-0.79-0.74c-0.56-0.28-0.75-0.23-1-0.51c-0.26-0.28-0.26-0.3-0.54-0.6
					c-0.28-0.3-0.56-0.46-0.49-0.74c0.07-0.28,0.23-0.7,0.33-0.7c0.09,0,0.44-0.02,0.67,0.12c0.23,0.14,0.81,0.86,1,1.07
					c0.19,0.21,1.05,0.23,1.35,0.3c0.3,0.07,0.32,0.23,0.44,0.4c0.11,0.16,0.61,0.88,0.74,1.07c0.14,0.18,0.19,0.12,0.19,0.28
					c0,0.16-0.14,0.44-0.07,0.51c0.07,0.07,0.63,0.37,0.63,0.37l0.23,0.74c0,0,0.84,0.33,0.88-0.02c0.04-0.35-0.24-0.98-0.24-1.14
					c0-0.16,0.12-0.33,0.4-0.49c0.28-0.16,0.28-0.28,0.67-0.28c0.39,0,0.39-0.05,1-0.16c0.61-0.12,1.51-0.28,1.25-0.07
					c-0.25,0.21-0.42,0.6-0.65,0.77c-0.23,0.16-0.91-0.1-0.91-0.1s0.25,0.75,0.51,1.16c0.26,0.42,0.88,0.84,1.12,1.02
					c0.23,0.19,0.95,0.79,1.67,0.47c0.72-0.33,0.7-0.42,0.9-0.42c0.21,0,0.7,0,0.84,0.07c0.14,0.07,0.23-0.39,0.37,0.7
					c0.14,1.09,0.26,1.26,0.14,1.47c-0.12,0.21-0.65,0.97-1.07,1.14c-0.42,0.16,0.61,0.44-1.16,0.09c-1.77-0.35-2.69-0.4-2.69-0.4
					s0.09,0.51-1.23,0c-1.32-0.51-1.6-0.74-1.6-0.74s0.14-0.63-0.4-0.19c-0.53,0.44-0.65,0.54-0.65,0.74c0,0.21,0.05,0.35-0.21,0.46
					c-0.26,0.12-0.07,0.19-0.46,0.19c-0.4,0-0.18,0.16-1.28-0.14c-1.09-0.3-1.3-0.07-1.58-0.51c-0.28-0.44-0.07-0.28-0.63-0.72
					c-0.56-0.44-0.63-0.32-0.9-0.81c-0.28-0.49-0.33-0.35-0.33-0.79c0-0.44,0.25-0.67-0.05-0.74c-0.3-0.07-0.21-0.28-0.67-0.09
					c-0.47,0.19-0.16,0.19-0.79,0.32c-0.63,0.14-0.74,0.37-1.58,0.4c-0.83,0.02-1.12,0.02-1.37,0.02c-0.25,0-0.86,0.42-1.46,0.44
					c-0.6,0.02-1.25,0.12-1.6,0.02c-0.35-0.09-0.32-1-0.95-0.35c-0.62,0.65-2.37,1.95-2.53,2.46c-0.16,0.51-0.28,0.84-0.37,1.09
					c-0.09,0.25,0.07,0.28-0.28,0.6c-0.35,0.32-0.65,0.56-0.88,0.88c-0.23,0.32-0.14,0.46-0.35,0.65c-0.21,0.19-0.7,0.53-0.86,0.65
					c-0.16,0.12-1.14,1.72-1.28,2.39c-0.14,0.67-0.21,0.72-0.21,1.02c0,0.3,0.19,0.72,0.23,0.91c0.04,0.19,0.21,0.51,0.21,0.7
					c0,0.19,0.12,0.28-0.07,0.56c-0.19,0.28-0.4,0.39-0.46,0.49c-0.07,0.09-0.12,0.35-0.12,0.42c0,0.07,0.02,0.37,0.02,0.37
					s0.14,0.42,0.19,0.51c0.05,0.09,0.51,1.42,0.79,1.63c0.28,0.21,1.18,0.56,1.35,0.81c0.16,0.25,0.16,0.83,0.21,0.98
					c0.05,0.14,0,0.42,0.33,0.77c0.32,0.35,0.77,0.58,1,0.88c0.23,0.3,0.88,0.65,1.12,0.7c0.23,0.04,0.67,0,0.88,0
					c0.21,0-0.07-0.07,0.72-0.26c0.79-0.18,1.14-0.23,1.46-0.23c0.33,0,0.56-0.05,1.39-0.33c0.84-0.28,1.74-0.42,2.09-0.44
					c0.35-0.02,1,0.21,1,0.37c0,0.16,0.56,0.58,1.28,0.67c0.72,0.09,1-0.32,1.09,0.44c0.09,0.77,1.37,0.39,0.79,1.28
					c-0.58,0.88-0.65,1.07-0.74,1.56c-0.09,0.49-0.12,0.35,0.88,2c1,1.65,1.02,1.88,1.21,2.79c0.18,0.91,0.23,1.05,0.33,1.32
					c0.09,0.28,0.21,0.37,0.16,0.67c-0.04,0.3-0.33,0.74-0.47,1.11c-0.14,0.37-0.72,1.46-0.51,2.42c0.21,0.95,0.56,1.98,0.72,2.32
					c0.16,0.35,0.7,0.58,0.81,1.56c0.12,0.98,0.02,1.02,0.21,1.67c0.18,0.65-0.33,0.05,0.53,1.28c0.86,1.23,0.91,1.32,0.97,1.6
					c0.07,0.28,0.16,0.79,0.19,0.86c0.02,0.07,0.09,0.3,0.09,0.51c0,0.21-0.44-0.05,0.23,0.53c0.67,0.58,0.6,0.7,0.81,0.65
					c0.21-0.05,0.35-0.21,0.97-0.21c0.63,0,2.46,0,2.58-0.09c0.12-0.09,0.67,0.12,0.95-0.61l2.14-3.99l1.3-2.32l0.46-2.6l1.12-1.21
					l2.23-1.3v-2.97l-1.11-1.86l2.04-3.44c0,0,0.74-2.05,1.02-2.05c0.28,0,1.76-0.93,2.51-1.77c0.75-0.84,0.75-2.14,0.84-2.7
					c0.09-0.56,0.56-1.11,0.56-1.11H105c0,0-1.21,1.39-1.77-1.02c-0.56-2.42-2.51-4.92-2.79-5.48c-0.28-0.56-0.37-0.74-1.12-1.76
					c-0.74-1.02-1.39-3.63-1.39-3.63l0.74-0.46l1.3,3.06c0,0,0.28,0.19,1.12,0.65c0.83,0.46,1.21,1.58,1.21,1.58s0.19,0.84,0.65,1.3
					c0.46,0.46,1.21,1.67,1.3,2.23c0.09,0.56,0.37,1.11,0.37,1.11s1.58,0.84,2.23,0.37c0.65-0.46,2.51-1.58,2.51-1.58
					s0.37-0.74,1.02-1.11c0.65-0.38,2.05-1.49,2.05-1.49s1.3-0.09-0.09-1.21c-1.4-1.11-0.56-1.86-2.98-1.21
					c-2.42,0.65-0.93,0.46-1.86-0.28c-0.93-0.74-1.77-1.77-1.77-1.77v-1.12c0,0-0.56-0.65,0.74-0.18c1.3,0.46,1.12,0.28,1.95,0.83
					c0.84,0.56,1.77,0.93,1.77,0.93s0.37,0.09,1.02,0.28c0.65,0.19,2.23,0.65,2.23,0.65s-0.37,0.19,1.21,0.19c1.58,0,2.14,0,2.14,0
					l1.86,1.86c0.07,0,0.22,0,0.56,0c0,0,0.33,0.03,0.63,0.16C118.36,209.76,113.36,199.94,106.03,192.4z"/>
				<linearGradient id="SVGID_11_" gradientUnits="userSpaceOnUse" x1="39.3901" y1="268.6782" x2="39.3901" y2="189.552">
					<stop  offset="0" style="stop-color:#F29600"/>
					<stop  offset="1" style="stop-color:#FAED00"/>
				</linearGradient>
				<path class="st10" d="M58.61,237.27c-0.4-0.16-0.7-0.12-1.12-0.37c-0.42-0.26-1.16-0.47-1.83-0.72
					c-0.68-0.26-0.61-0.42-0.88-0.26c-0.28,0.16-0.81,0.3-0.95,0.26c-0.14-0.05-0.26,0.14-0.44-0.16c-0.19-0.3,0.35-0.25-0.3-0.56
					c-0.65-0.3-0.54-0.53-0.95-0.35c-0.42,0.19-0.63,0.4-0.81,0.49c-0.18,0.09-0.32,0.32-0.56-0.05c-0.23-0.37,0.58-0.3,0.16-0.72
					c-0.42-0.42-1.05,0.04-1.23,0.16c-0.19,0.12-0.56-0.09-0.56-0.28c0-0.19,1.88-0.4,0.93-1.77c-0.95-1.37-1.07-1.74-1.69-1.88
					c-0.63-0.14-1.21-0.35-1.44-0.44c-0.23-0.09,0.26,0.25-0.72-0.37c-0.98-0.63-1.28-0.63-1.63-0.95
					c-0.35-0.33-1.07-1.23-2.32-1.23c-1.26,0-1.65-0.14-2.12-0.47c-0.46-0.32-0.7-0.88-0.93-0.42c-0.23,0.46-0.6,0.44-0.6,0.91
					c0,0.46,0.42,0.79-0.07,0.6c-0.49-0.19-1.28-0.51-1-0.79c0.28-0.28,0.35-0.3,0.35-0.46c0-0.16-0.33-0.3-0.56-0.19
					c-0.23,0.12-0.86,0.3-1.02,0.63c-0.17,0.33-0.58,0.6-0.65,0.72c-0.07,0.12-1.14-0.07-1.76-0.33c-0.63-0.25-0.98,0.54-1.37,0.33
					c-0.4-0.21-0.79-0.67-0.79-0.91c0-0.23-0.12-0.32-0.09-1.09c0.02-0.77,0.02-1.25,0.02-1.42c0-0.16-0.07-0.42-0.6-0.51
					c-0.53-0.09-0.95-0.26-1.12-0.21c-0.16,0.05-1.09-0.18-0.93-0.65c0.16-0.46,0.28-0.95,0.42-1.35c0.14-0.4,0.25-0.51,0.23-0.67
					c-0.03-0.16-0.14-0.6-0.37-0.63c-0.23-0.02-0.67,0.05-0.84,0.44c-0.16,0.39-0.39,1.09-0.65,1.3c-0.26,0.21-1.04,0.49-1.51,0.23
					c-0.46-0.26-1.25-0.42-1.39-0.91c-0.14-0.49-0.19-0.49-0.26-0.91c-0.07-0.42-0.2-0.66-0.07-1.39c0.08-0.45-0.75-0.97,0.19-1.81
					c0.93-0.84,1.21-1.07,1.58-1.53c0.37-0.46,0.28-0.51,0.84-0.7c0.56-0.19,0.75-0.28,1.07-0.23c0.33,0.05,0.7,0.74,0.84,0.74
					c0.14,0-0.18,0.79,0.56,0c0.75-0.79,0.84-1.12,1.02-1.16c0.19-0.04,0.33-0.09,0.84,0.09c0.51,0.19,0.61,0.79,1.02,1.07
					c0.42,0.28,0.12-1.01,0.18-0.96c0.06,0.05,0.56,0.49,0.51,0.7c-0.05,0.2-0.02,0.59,0,0.65c0.01,0.06,0.15,0.51,0.18,0.59
					c0.03,0.08,0.09,0.51,0.2,0.71c0.11,0.2-0.11,0.47,0.39,0.51c0.5,0.05,0.62-0.2,0.7-0.67c0.08-0.47,0.14-0.81,0-1.09
					c-0.14-0.28-0.26-0.25-0.26-0.56c0-0.31,0-1.27,0.19-1.47c0.19-0.2-0.11,0.04,0.42-0.45c0.53-0.5,0.88-0.5,1.22-0.74
					c0.34-0.25,0.47-0.37,0.79-0.54c0.33-0.17,0.34-0.11,0.57-0.36c0.23-0.25,0.42-0.26,0.56-0.64c0.14-0.37,0.14-0.43,0.19-0.85
					c0.04-0.42-0.11-0.68,0.14-0.84c0.25-0.15,0.64-0.51,0.84-0.34c0.2,0.17,1.11-0.52,1.71-1.22c0.6-0.7,0.6-0.84,0.88-0.95
					c0.28-0.12,0.35-0.02,0.81-0.28c0.46-0.26,0.33-0.16,0.7-0.46c0.37-0.3,0.09-0.05,0.6-0.49c0.51-0.44,0.42-0.37,0.86-0.63
					c0.44-0.26,0.32-0.23,0.65-0.3c0.32-0.07,0.46-0.26,0.62,0.05c0.16,0.3,0.63,0.09,0.23,0.4c-0.4,0.3-0.72,0.46-0.74,0.58
					c-0.02,0.12-0.42,0.51,0.42,0.3c0.84-0.21,0.65-0.12,0.98-0.42c0.33-0.3,0.49-0.42,0.81-0.56c0.33-0.14,0.56,0.16,0.33-0.14
					c-0.23-0.3-0.53-0.58-0.72-0.58c-0.18,0-0.49-0.05-0.51-0.21c-0.02-0.16-0.05-0.49-0.05-0.49s0.37-0.21-0.35-0.21
					c-0.72,0-0.42-0.02-0.98,0.05c-0.56,0.07-1.35,0.35-1-0.21c0.35-0.56,2.3-1,2.37-1c0.07,0,0.21-0.23,0.63-0.4
					c0.42-0.16,1.32-0.3,1.7-0.3s1.49-0.21,1.56-0.23c0.07-0.02,1.91-0.97,1.79-1.21c-0.12-0.23,0.14,0.33-0.74-0.46
					c-0.88-0.79-0.6-0.11-0.88-1c-0.28-0.88,0.03-1.93-0.06-2.33c-0.09-0.4-0.43,0.16-0.9,0.28c-0.46,0.12-0.62,0.12-0.96,0.12
					c-0.34,0-0.96,0.09-0.99-0.22c-0.03-0.31,0.03-0.99-0.43-0.99c-0.47,0-1.18-0.28-1.52-0.19c-0.34,0.09-1.21,0.5-1.42,0.81
					c-0.22,0.31-0.37,0.68-0.68,1.02c-0.31,0.34-0.84,0.81-1.05,1.18c-0.22,0.37-1.24,1.67-1.49,2.14
					c-0.25,0.46-0.46,0.87-0.81,0.93c-0.34,0.06-0.68,0.37-0.65-0.28c0.03-0.65,0.09-0.34,0.09-0.93c0-0.59,0.87-0.77,0-0.87
					c-0.87-0.09,0.56,0.59-0.99-0.19c-1.55-0.77-1.55-0.81-1.77-0.96c-0.21-0.16-0.56,0.68-0.87-0.59c-0.31-1.27,0.62-1.67,0.9-1.86
					c0,0,1.52-1.08,1.71-1.11c0.18-0.03,1.39-0.25,1.49-0.25c0.09,0,1.24-0.68,1.24-0.68l-0.03-0.34c0,0-0.12-0.16,0.37-0.16
					c0.5,0,2.04-0.4,2.23-0.4c0.18,0,0.83,0.03,1.09-0.19c0.25-0.22,0.31-0.43,0.43-0.71c0.12-0.28,0.96-0.43,0.19-0.5
					c-0.77-0.06-1.67,0.12-1.86,0.12c-0.18,0-0.28,0.65-0.74,0c-0.47-0.65-0.47-0.68-0.62-0.87c-0.16-0.19-0.71-0.62-0.56-0.84
					c0.15-0.21,0.87-0.4,1.06-0.56c0.18-0.15,1.98,0,0.31-0.31c-1.67-0.31-2.2-0.62-2.32-0.31c-0.13,0.31-0.4,1.43-0.59,1.8
					c-0.18,0.37-0.03,0.5-0.4,0.9c-0.37,0.4-1.02,1.02-1.34,1.02c-0.31,0-2.13,0.84-4.12,0.84c-1.98,0-1.64,0.4-2.29,0
					c-0.16-0.1-0.3-0.17-0.44-0.24c-6.56,7.35-11.01,16.63-12.37,26.89c0.03,0.33,0.08,0.45,0.08,0.64c0,0.22,0.65,1.24,1.55,1.7
					c0.9,0.47,2.29,1.33,2.97,1.3c0.68-0.03,1.18,0.06,1.61,0.28c0.43,0.22,1.24,1.24,1.83,1.3c0.59,0.06,1.39,0.25,1.52,0.31
					c0.12,0.06,0.37,0.68,0.37,0.68s0.81,0.99,1.27,1.49c0.46,0.5,1.49,0.87,1.61,0.87c0.12,0,0.16,0.09,0.43-0.06
					c0.28-0.15,0.81-0.5,0.99-0.22c0.19,0.28,0.13-0.22,0.59,0.62c0.46,0.84,0.43,1.36,0.03,2.35c-0.4,0.99-0.78,1.39-0.93,1.61
					c-0.16,0.22-0.47,0.53-0.5,0.68c-0.03,0.15-0.06,0.31-0.25,0.77c-0.18,0.46-0.18,1.18-0.18,1.18s0.25,0.5,0.31,0.81
					c0.06,0.31-0.56,1.3,0.25,2.04c0.81,0.74,0.68,1.7,1.52,2.29c0.84,0.59,1.49,0.93,1.52,1.55c0.03,0.62,0.09,1.43,0.75,1.77
					c0.65,0.34,0.8,0.19,0.96,0.37c0.16,0.19,1.95,0.93,1.92,3.1c-0.03,2.17-0.18,4.06-0.09,4.56c0.09,0.5,0.15,1.52,0.15,1.83
					c0,0.31,0.15,0.62,0.15,0.77c0,0.15,0.07,0.56,0.13,1.09c0.06,0.52-0.09,1.86,0.06,2.51c0.16,0.65,0.03,1.21,0.4,1.39
					c0.37,0.19,0.59,0.31,0.59,0.31s0.37,1.21,0.37,1.39c0,0.18,0,0.65-0.03,0.9c-0.03,0.25-0.12,0.44-0.12,0.56
					c0,0.12,0.43,0.53,0.59,0.74c0.15,0.22,0.77,1.58,0.96,1.83c0.19,0.25,1.61,0.99,1.77,1.05c0.15,0.06,0.59,0.49,0.68,0.65
					c0.09,0.15,0.18,0.52,0.56,0.62c0.37,0.09,0.87,0.16,0.87,0.16s0.06-0.09,0.22-0.12c0.15-0.03-0.53-1.55-0.53-1.55
					s-0.16-0.22-0.28-0.22c-0.12,0-0.46,0.12-0.49-0.31c-0.03-0.43-0.16-1.11-0.12-1.21c0.03-0.09,0.12-0.37,0.06-0.62
					c-0.06-0.25-0.15-0.49-0.25-1.02c-0.09-0.53-0.25-1.21-0.09-1.46c0.16-0.25,0.25-0.19,0.28-0.62c0.03-0.43,0.09-0.31-0.06-0.93
					c-0.15-0.62,0.19-0.93,0.56-1.33c0.37-0.4,0.4-0.34,0.93-0.8c0.53-0.47,1.3-0.5,0.84-1.15c0,0-0.6-0.8-0.61-1.14
					c-0.01-0.34-0.01-0.41,0.1-0.41c0.12,0,0.05,0.13,0.56,0.2c0.51,0.07,0.88,0.15,1.09-0.02c0.21-0.17,1.97-1.63,1.96-1.9
					c-0.02-0.26,0.25-1.21,0.36-1.38c0.11-0.17,0.19-0.45,0.25-0.67c0.06-0.22,0.02-0.7,0.08-0.9c0.07-0.2-0.11-0.05,0.16-0.53
					c0.26-0.48,1.78-1.61,2.36-1.87c0.57-0.26,0.85-0.06,0.99-0.03c0.14,0.03,1.15-1.53,1.26-2.52c0.11-0.99,0.2-2.59,0.18-2.78
					c-0.03-0.18-0.05-0.88,0.16-1c0.21-0.12,0.49-0.23,0.72-0.56c0.23-0.33,0.19-0.19,0.6-0.95c0.42-0.77,0.4-0.7,0.51-1.14
					c0.12-0.44,0.14-0.42,0.09-1.23C58.88,237.71,59,237.43,58.61,237.27z"/>
			</g>
		</g>
	</g>
	<g>
		<path class="st11" d="M96.87,170.85V36.73c0-14.93-12.1-27.02-27.03-27.02c-14.93,0-27.03,12.1-27.03,27.02v134.12
			C21.74,180.94,7.18,202.46,7.18,227.4c0,34.61,28.06,62.66,62.67,62.66c34.61,0,62.66-28.06,62.66-62.66
			C132.51,202.46,117.95,180.94,96.87,170.85z"/>
		<g>
			<line class="st12" x1="42.22" y1="42.52" x2="61.38" y2="42.52"/>
			<line class="st12" x1="42.22" y1="62.57" x2="61.38" y2="62.57"/>
			<line class="st12" x1="42.22" y1="82.61" x2="61.38" y2="82.61"/>
			<line class="st12" x1="42.22" y1="102.66" x2="61.38" y2="102.66"/>
			<line class="st12" x1="42.22" y1="122.71" x2="61.38" y2="122.71"/>
			<line class="st12" x1="42.22" y1="142.75" x2="61.38" y2="142.75"/>
			<line class="st12" x1="42.22" y1="162.8" x2="61.38" y2="162.8"/>
		</g>
	</g>
</g>
</svg>
