<svg width="188" height="46" viewBox="0 0 188 46" fill="none" xmlns="http://www.w3.org/2000/svg">
<g clip-path="url(#clip0_4535_602)">
<path d="M112.571 8.45435V11.3556H112.313C112.21 10.8481 112.032 10.3591 111.786 9.90495C111.581 9.61166 111.307 9.37417 110.989 9.21365C110.673 9.09745 110.337 9.04733 110.001 9.06632H109.25V17.328C109.223 17.6706 109.254 18.0153 109.339 18.3479C109.409 18.4992 109.523 18.6256 109.665 18.7106C109.874 18.8252 110.111 18.8801 110.349 18.8692H110.686V19.1299H105.412V18.8466H105.749C105.992 18.8592 106.234 18.8001 106.444 18.6766C106.588 18.5862 106.698 18.4509 106.759 18.2913C106.827 17.9674 106.853 17.636 106.837 17.3053V9.06632H106.108C105.573 9.02211 105.042 9.18863 104.626 9.53097C104.163 10.0312 103.879 10.6734 103.819 11.3556H103.538V8.45435H112.571Z" fill="#272828"/>
<path d="M120.46 19.1298H114.423V18.9598L118.238 12.2395H117.116C116.766 12.2193 116.416 12.2655 116.083 12.3755C115.874 12.4676 115.698 12.6217 115.578 12.8174C115.387 13.1719 115.25 13.5542 115.174 13.9507H114.916V11.7975H120.751V12.0128L116.97 18.6765H117.441C118.157 18.7326 118.874 18.5792 119.506 18.2345C119.994 17.8332 120.327 17.2718 120.448 16.6479H120.662L120.46 19.1298Z" fill="#272828"/>
<path d="M129.369 11.7748V17.5545C129.331 17.9126 129.381 18.2747 129.515 18.6085C129.594 18.6903 129.688 18.7555 129.792 18.8003C129.896 18.845 130.008 18.8684 130.121 18.8691V19.1298H127.293V18.1438C127.02 18.5096 126.681 18.8208 126.295 19.0618C125.953 19.2576 125.566 19.3592 125.173 19.3565C124.79 19.3617 124.418 19.2246 124.129 18.9711C123.842 18.739 123.628 18.4281 123.512 18.0758C123.384 17.4882 123.331 16.8864 123.355 16.2853V13.384C123.388 13.0307 123.342 12.6742 123.22 12.3414C123.06 12.176 122.843 12.0787 122.614 12.0694V11.7748H125.419V16.8632C125.404 17.2047 125.426 17.5468 125.487 17.8832C125.522 18.0218 125.6 18.1452 125.711 18.2345C125.81 18.3121 125.933 18.3522 126.059 18.3478C126.231 18.3512 126.4 18.2996 126.541 18.2005C126.825 17.9673 127.068 17.6876 127.26 17.3732V13.384C127.293 13.0298 127.243 12.6726 127.114 12.3414C126.954 12.176 126.737 12.0787 126.508 12.0694V11.7748H129.369Z" fill="#272828"/>
<path d="M146.841 8.20502V11.9222H146.549C146.401 11.0506 145.971 10.2534 145.326 9.65562C144.782 9.18608 144.089 8.9288 143.373 8.93032C142.747 8.92705 142.136 9.12993 141.634 9.5083C141.124 9.89064 140.734 10.4142 140.512 11.0156C140.188 11.8609 140.028 12.7612 140.041 13.6674C140.029 14.5525 140.147 15.4345 140.388 16.2853C140.556 16.9743 140.928 17.5951 141.454 18.0646C141.991 18.4873 142.66 18.7006 143.34 18.6652C143.947 18.6709 144.546 18.5187 145.079 18.2233C145.724 17.8247 146.29 17.31 146.751 16.7046V17.6339C146.256 18.2023 145.653 18.6647 144.978 18.9939C144.306 19.2879 143.578 19.4309 142.846 19.4132C141.846 19.4333 140.857 19.1954 139.973 18.7219C139.15 18.2765 138.481 17.5887 138.054 16.75C137.602 15.9123 137.367 14.9729 137.37 14.0188C137.366 12.9985 137.625 11.9948 138.122 11.1062C138.567 10.2168 139.242 9.46511 140.074 8.93032C140.9 8.43538 141.841 8.17316 142.801 8.17102C143.574 8.18685 144.337 8.35628 145.045 8.66967C145.32 8.80078 145.61 8.89599 145.909 8.95299C145.988 8.9514 146.065 8.93347 146.137 8.90032C146.208 8.86717 146.272 8.81952 146.324 8.76033C146.457 8.59167 146.535 8.386 146.549 8.17102L146.841 8.20502Z" fill="#272828"/>
<path d="M152.16 8.45435V12.7268C152.458 12.3709 152.81 12.0649 153.203 11.8202C153.504 11.6469 153.844 11.557 154.191 11.5595C154.6 11.5463 155 11.6877 155.313 11.9562C155.6 12.1971 155.814 12.5154 155.93 12.8742C156.05 13.4666 156.099 14.0717 156.076 14.6761V17.5546C156.044 17.9126 156.094 18.2732 156.222 18.6086C156.3 18.6904 156.395 18.7556 156.499 18.8004C156.603 18.8451 156.714 18.8685 156.828 18.8692V19.1299H153.304V18.8466C153.415 18.8374 153.522 18.8043 153.619 18.7495C153.716 18.6948 153.8 18.6196 153.865 18.5292C153.986 18.2118 154.032 17.8704 154 17.532V14.2454C154.015 13.8663 153.992 13.4867 153.932 13.1121C153.892 12.9728 153.814 12.8473 153.708 12.7495C153.605 12.6702 153.479 12.6265 153.349 12.6248C153.136 12.628 152.93 12.7038 152.765 12.8402C152.519 13.0534 152.314 13.3108 152.16 13.5995V17.5546C152.131 17.8875 152.169 18.2229 152.272 18.5406C152.331 18.6403 152.415 18.7228 152.515 18.7804C152.616 18.8379 152.729 18.8685 152.844 18.8692V19.1299H149.332V18.8466C149.449 18.8444 149.565 18.817 149.672 18.7662C149.778 18.7154 149.873 18.6424 149.949 18.5519C150.075 18.2279 150.121 17.8779 150.084 17.532V10.0636C150.113 9.70941 150.064 9.35297 149.938 9.02099C149.859 8.93914 149.765 8.87395 149.661 8.8292C149.557 8.78445 149.445 8.76104 149.332 8.76033V8.45435H152.16Z" fill="#272828"/>
<path d="M161.63 11.7748V17.6226C161.593 17.9644 161.651 18.3099 161.798 18.6199C161.888 18.7059 161.994 18.7725 162.109 18.8154C162.225 18.8583 162.349 18.8766 162.472 18.8692V19.1298H158.713V18.8465C158.84 18.8534 158.968 18.8316 159.086 18.7826C159.205 18.7336 159.311 18.6587 159.397 18.5632C159.538 18.2634 159.592 17.9295 159.554 17.5999V13.2934C159.588 12.9506 159.526 12.605 159.375 12.2961C159.288 12.2098 159.184 12.143 159.07 12.1C158.956 12.057 158.834 12.0389 158.713 12.0468V11.7522L161.63 11.7748ZM160.587 8.20498C160.74 8.20402 160.891 8.2347 161.032 8.29512C161.173 8.35553 161.3 8.44441 161.406 8.5563C161.626 8.79193 161.747 9.10492 161.742 9.42892C161.747 9.74969 161.626 10.0594 161.406 10.2902C161.3 10.4021 161.173 10.491 161.032 10.5514C160.891 10.6118 160.74 10.6425 160.587 10.6415C160.435 10.641 160.286 10.6095 160.147 10.5492C160.008 10.4888 159.883 10.4007 159.779 10.2902C159.558 10.0594 159.437 9.74969 159.442 9.42892C159.438 9.10492 159.558 8.79193 159.779 8.5563C159.883 8.4458 160.008 8.35772 160.147 8.29735C160.286 8.23698 160.435 8.20556 160.587 8.20498Z" fill="#272828"/>
<path d="M107.162 27.4934V31.8906H107.465C107.851 31.9133 108.237 31.8393 108.588 31.6753C108.894 31.5175 109.145 31.2682 109.306 30.9613C109.525 30.5358 109.655 30.0688 109.687 29.59H109.945V34.9958H109.687C109.708 34.2478 109.433 33.5222 108.924 32.9785C108.514 32.6657 108.013 32.4984 107.499 32.5026H107.207V35.7777C107.187 36.1203 107.217 36.4641 107.297 36.7977C107.367 36.949 107.48 37.0754 107.623 37.1604C107.83 37.2696 108.062 37.3205 108.296 37.3077H108.632V37.6023H103.325V37.2624H103.661C103.907 37.2768 104.152 37.2219 104.368 37.1037C104.505 37.0116 104.608 36.876 104.66 36.7184C104.735 36.3955 104.761 36.0632 104.739 35.7324V28.7061C104.76 28.364 104.734 28.0207 104.66 27.6861C104.59 27.5348 104.477 27.4084 104.335 27.3234C104.127 27.2142 103.895 27.1633 103.661 27.1761H103.325V26.8815H111.819V29.9527H111.516C111.5 29.374 111.312 28.8135 110.978 28.3434C110.655 27.9724 110.222 27.7177 109.743 27.6181C109.2 27.5146 108.647 27.4728 108.094 27.4934H107.162Z" fill="#272828"/>
<path d="M117.194 29.9867C117.806 29.9823 118.405 30.1607 118.916 30.4995C119.427 30.8383 119.828 31.3224 120.067 31.8907C120.34 32.523 120.478 33.2066 120.471 33.8966C120.505 34.8316 120.242 35.7531 119.719 36.5258C119.442 36.9344 119.068 37.2659 118.63 37.4898C118.193 37.7136 117.707 37.8225 117.217 37.8064C116.753 37.8319 116.291 37.7419 115.87 37.5442C115.449 37.3466 115.083 37.0474 114.804 36.6731C114.244 35.8846 113.949 34.9351 113.963 33.9646C113.937 32.9713 114.241 31.998 114.827 31.1994C115.089 30.8133 115.444 30.5 115.857 30.2881C116.271 30.0763 116.731 29.9726 117.194 29.9867ZM117.194 30.542C117.07 30.5406 116.947 30.5674 116.834 30.6203C116.722 30.6733 116.622 30.7511 116.543 30.848C116.311 31.2047 116.186 31.6222 116.184 32.0493C116.184 32.6386 116.106 33.4773 116.106 34.5312C116.104 35.0618 116.137 35.5919 116.207 36.1178C116.235 36.4301 116.356 36.7264 116.555 36.9678C116.629 37.0574 116.722 37.13 116.826 37.1808C116.931 37.2316 117.045 37.2594 117.161 37.2624C117.367 37.2703 117.568 37.1972 117.722 37.0584C117.922 36.8548 118.055 36.5935 118.103 36.3105C118.232 35.3074 118.28 34.2955 118.249 33.2846C118.272 32.6657 118.227 32.0461 118.114 31.4373C118.052 31.1586 117.907 30.9056 117.699 30.712C117.565 30.6035 117.399 30.5436 117.228 30.542H117.194Z" fill="#272828"/>
<path d="M129.369 30.202V35.9817C129.331 36.3398 129.381 36.7018 129.515 37.0357C129.594 37.1175 129.688 37.1827 129.792 37.2275C129.896 37.2722 130.008 37.2956 130.121 37.2963V37.5796H127.293V36.5937C127.02 36.9594 126.681 37.2707 126.295 37.5117C125.953 37.7074 125.566 37.809 125.173 37.8063C124.79 37.8065 124.421 37.67 124.129 37.421C123.844 37.1867 123.631 36.8765 123.512 36.5257C123.384 35.938 123.331 35.3363 123.355 34.7351V31.7999C123.39 31.4502 123.343 31.0972 123.22 30.7686C123.142 30.6847 123.048 30.6174 122.944 30.5707C122.84 30.524 122.728 30.4988 122.614 30.4966V30.202H125.419V35.2451C125.404 35.5865 125.427 35.9286 125.487 36.265C125.524 36.4024 125.603 36.525 125.711 36.6164C125.81 36.6939 125.933 36.734 126.059 36.7297C126.231 36.733 126.4 36.6815 126.541 36.5824C126.825 36.3492 127.068 36.0695 127.26 35.7551V31.7999C127.291 31.4494 127.241 31.0963 127.114 30.7686C126.97 30.5946 126.765 30.4847 126.541 30.4626V30.168L129.369 30.202Z" fill="#272828"/>
<path d="M135.092 30.202V31.1539C135.388 30.8034 135.736 30.5013 136.124 30.2586C136.447 30.0778 136.81 29.9841 137.179 29.9867C137.59 29.9701 137.991 30.1119 138.301 30.3833C138.595 30.641 138.799 30.9863 138.885 31.3693C138.994 31.9403 139.035 32.5223 139.008 33.1032V35.9704C138.972 36.3322 139.022 36.6976 139.154 37.0357C139.233 37.1175 139.327 37.1827 139.431 37.2275C139.535 37.2722 139.647 37.2956 139.76 37.2963V37.5797H136.248V37.2623C136.361 37.2546 136.471 37.2197 136.569 37.1606C136.666 37.1015 136.749 37.0199 136.809 36.9224C136.917 36.6059 136.959 36.2701 136.932 35.9364V32.7292C136.947 32.3501 136.925 31.9705 136.865 31.5959C136.824 31.4566 136.747 31.3311 136.641 31.2333C136.54 31.1491 136.412 31.1048 136.281 31.1086C135.855 31.1086 135.462 31.4259 135.092 32.0719V36.0271C135.062 36.385 135.112 36.745 135.238 37.081C135.303 37.1625 135.385 37.2289 135.478 37.2758C135.571 37.3227 135.673 37.349 135.777 37.353V37.6363H132.264V37.2623C132.384 37.2604 132.501 37.2331 132.609 37.1824C132.718 37.1316 132.814 37.0585 132.893 36.9677C133.005 36.6365 133.047 36.2851 133.016 35.9364V31.7999C133.054 31.4492 133.004 31.0947 132.87 30.7686C132.78 30.6213 132.578 30.542 132.264 30.4966V30.202H135.092Z" fill="#272828"/>
<path d="M148.602 26.8815V35.3698C148.578 35.7093 148.578 36.0502 148.602 36.3898C148.63 36.5407 148.71 36.6771 148.827 36.7751C149.003 36.8809 149.205 36.9357 149.41 36.9337V37.1944L146.482 37.8064V36.6731C146.228 37.0369 145.908 37.3485 145.539 37.591C145.258 37.7617 144.935 37.8481 144.608 37.8404C144.176 37.843 143.753 37.726 143.383 37.5022C143.013 37.2784 142.711 36.9563 142.509 36.5711C142.071 35.8083 141.853 34.9367 141.881 34.0552C141.87 33.3257 142.004 32.6015 142.274 31.9246C142.487 31.3372 142.87 30.8279 143.373 30.4627C143.794 30.1547 144.301 29.9882 144.821 29.9867C145.128 29.9816 145.432 30.0515 145.707 30.1907C146.019 30.3791 146.296 30.6206 146.526 30.9047V28.6381C146.546 28.2966 146.523 27.954 146.459 27.6181C146.415 27.4748 146.319 27.3535 146.19 27.2782C145.983 27.182 145.754 27.1429 145.528 27.1648V26.8362L148.602 26.8815ZM146.526 31.8793C146.156 31.1313 145.707 30.746 145.18 30.746C145.017 30.7367 144.857 30.7892 144.731 30.8933C144.508 31.1348 144.353 31.4322 144.282 31.7546C144.145 32.3755 144.084 33.0113 144.103 33.6472C144.077 34.3408 144.145 35.0348 144.305 35.7098C144.386 36.0758 144.565 36.4127 144.821 36.6844C144.956 36.7882 145.123 36.8404 145.292 36.8317C145.73 36.8317 146.145 36.4691 146.526 35.6985V31.8793Z" fill="#272828"/>
<path d="M155.279 36.4918C154.691 37.1306 153.894 37.5331 153.035 37.625C152.851 37.6292 152.669 37.5952 152.499 37.525C152.329 37.4548 152.175 37.35 152.047 37.2171C151.786 36.9349 151.645 36.5605 151.654 36.1744C151.66 35.8876 151.724 35.605 151.842 35.3438C151.959 35.0827 152.129 34.8486 152.339 34.6558C153.246 33.9264 154.246 33.3241 155.313 32.8653V32.1173C155.333 31.764 155.307 31.4095 155.234 31.0633C155.168 30.9066 155.054 30.7755 154.909 30.6893C154.75 30.5797 154.562 30.5241 154.37 30.5307C154.091 30.5158 153.814 30.5956 153.585 30.7573C153.526 30.7902 153.477 30.8376 153.441 30.8951C153.406 30.9526 153.386 31.0184 153.383 31.086C153.407 31.2421 153.482 31.3856 153.596 31.494C153.765 31.6717 153.864 31.9051 153.876 32.1513C153.879 32.2737 153.856 32.3954 153.81 32.5085C153.764 32.6217 153.694 32.7238 153.607 32.8086C153.514 32.9002 153.403 32.9716 153.281 33.0184C153.16 33.0652 153.03 33.0863 152.9 33.0806C152.61 33.0885 152.329 32.9829 152.115 32.7859C152.016 32.6979 151.937 32.5897 151.883 32.4686C151.829 32.3475 151.801 32.2162 151.8 32.0833C151.792 31.664 151.945 31.2578 152.227 30.95C152.526 30.5912 152.913 30.3176 153.349 30.1567C153.853 29.9749 154.385 29.8828 154.92 29.8847C155.474 29.8533 156.023 30.0088 156.48 30.3267C156.819 30.5654 157.081 30.9007 157.231 31.29C157.321 31.7946 157.355 32.3077 157.332 32.8199V35.6758C157.313 35.8869 157.313 36.0993 157.332 36.3104C157.351 36.3874 157.39 36.4578 157.445 36.5144C157.5 36.5288 157.558 36.5288 157.613 36.5144C157.748 36.5144 157.882 36.4238 158.006 36.2198L158.23 36.4124C158.032 36.7425 157.773 37.031 157.467 37.2624C157.195 37.4351 156.88 37.5256 156.558 37.523C156.226 37.5464 155.897 37.4411 155.638 37.2284C155.448 37.0248 155.323 36.7681 155.279 36.4918ZM155.279 35.9138V33.4432C154.759 33.7504 154.306 34.1587 153.944 34.6445C153.761 34.8947 153.66 35.1953 153.652 35.5058C153.654 35.7409 153.742 35.9669 153.899 36.1404C153.965 36.2143 154.047 36.2721 154.138 36.3094C154.229 36.3467 154.328 36.3625 154.426 36.3558C154.754 36.3161 155.056 36.1593 155.279 35.9138Z" fill="#272828"/>
<path d="M162.954 27.5048V30.202H164.593V30.9839H162.954V35.5171C162.928 35.7922 162.928 36.0693 162.954 36.3444C162.995 36.4588 163.064 36.5605 163.156 36.639C163.226 36.7068 163.318 36.747 163.414 36.7524C163.74 36.7524 164.043 36.4917 164.334 35.9704L164.548 36.1517C164.432 36.5849 164.178 36.9673 163.825 37.2398C163.472 37.5122 163.039 37.6596 162.595 37.659C162.187 37.6754 161.787 37.5381 161.473 37.2737C161.193 37.0514 160.989 36.7463 160.89 36.401C160.821 35.9208 160.794 35.4354 160.811 34.9504V30.9839H159.913V30.712C160.492 30.2756 161.022 29.7779 161.496 29.2274C161.938 28.7021 162.315 28.1235 162.618 27.5048H162.954Z" fill="#272828"/>
<path d="M169.104 30.202V36.0497C169.064 36.3928 169.126 36.7401 169.283 37.047C169.371 37.1322 169.475 37.1983 169.588 37.2412C169.702 37.2841 169.824 37.3028 169.945 37.2963V37.5797H166.197V37.2623C166.325 37.2677 166.452 37.2451 166.57 37.1962C166.688 37.1473 166.795 37.0732 166.882 36.979C167.015 36.6771 167.066 36.3442 167.028 36.0157V31.7092C167.064 31.3675 167.006 31.0223 166.859 30.712C166.772 30.6268 166.668 30.5607 166.554 30.5178C166.44 30.4749 166.319 30.4561 166.197 30.4626V30.168L169.104 30.202ZM168.06 26.6321C168.213 26.6312 168.365 26.6619 168.506 26.7223C168.646 26.7827 168.774 26.8716 168.879 26.9834C169.093 27.2221 169.21 27.534 169.205 27.8561C169.21 28.0136 169.183 28.1706 169.125 28.3169C169.067 28.4633 168.979 28.5958 168.868 28.706C168.765 28.8186 168.64 28.9088 168.501 28.9711C168.362 29.0335 168.212 29.0667 168.06 29.0687C167.908 29.0667 167.758 29.0335 167.619 28.9711C167.48 28.9088 167.355 28.8186 167.252 28.706C167.141 28.5958 167.053 28.4633 166.995 28.3169C166.937 28.1706 166.91 28.0136 166.915 27.8561C166.909 27.5316 167.03 27.2178 167.252 26.9834C167.354 26.8696 167.479 26.7793 167.618 26.7187C167.757 26.658 167.908 26.6285 168.06 26.6321Z" fill="#272828"/>
<path d="M175.039 29.9867C175.635 29.9815 176.22 30.1508 176.723 30.474C177.246 30.818 177.656 31.311 177.901 31.8906C178.174 32.5229 178.312 33.2065 178.305 33.8965C178.338 34.8297 178.079 35.7497 177.564 36.5257C177.287 36.9343 176.913 37.2659 176.475 37.4897C176.038 37.7135 175.552 37.8224 175.062 37.8063C174.599 37.8318 174.136 37.7418 173.715 37.5442C173.295 37.3465 172.929 37.0473 172.649 36.673C172.079 35.8889 171.779 34.9373 171.797 33.9645C171.777 32.9721 172.081 32.0006 172.661 31.1993C172.925 30.8123 173.281 30.4985 173.697 30.2867C174.113 30.0748 174.574 29.9717 175.039 29.9867ZM175.039 30.542C174.916 30.5429 174.793 30.5707 174.681 30.6235C174.569 30.6763 174.469 30.7528 174.389 30.848C174.163 31.2075 174.043 31.6238 174.041 32.0492C174.041 32.6385 173.951 33.4772 173.951 34.5311C173.949 35.0617 173.983 35.5918 174.052 36.1177C174.085 36.4289 174.206 36.7239 174.4 36.9677C174.476 37.0582 174.571 37.1312 174.677 37.182C174.783 37.2328 174.899 37.2602 175.017 37.2623C175.22 37.2697 175.417 37.1964 175.567 37.0583C175.775 36.8591 175.913 36.5963 175.96 36.3104C176.088 35.3073 176.137 34.2954 176.105 33.2845C176.133 32.665 176.084 32.0446 175.96 31.4373C175.902 31.1565 175.757 30.9021 175.544 30.712C175.41 30.5975 175.238 30.537 175.062 30.542H175.039Z" fill="#272828"/>
<path d="M183.343 30.202V31.1539C183.636 30.8039 183.98 30.5018 184.364 30.2586C184.687 30.0778 185.05 29.9841 185.419 29.9867C185.83 29.9701 186.231 30.1119 186.541 30.3833C186.834 30.6433 187.042 30.9872 187.136 31.3693C187.234 31.9417 187.271 32.5228 187.248 33.1032V35.9704C187.217 36.3321 187.266 36.6963 187.394 37.0357C187.473 37.1175 187.567 37.1827 187.671 37.2275C187.775 37.2722 187.887 37.2956 188 37.2963V37.5797H184.488V37.2623C184.603 37.2546 184.714 37.2198 184.814 37.1608C184.913 37.1017 184.997 37.0201 185.06 36.9224C185.163 36.6047 185.201 36.2693 185.172 35.9364V32.7292C185.187 32.3501 185.165 31.9705 185.105 31.5959C185.069 31.4547 184.99 31.3282 184.881 31.2333C184.784 31.1489 184.66 31.1043 184.533 31.1086C184.106 31.1086 183.702 31.4259 183.343 32.0719V36.0271C183.308 36.3851 183.358 36.7464 183.489 37.081C183.553 37.1642 183.635 37.2318 183.728 37.2789C183.821 37.326 183.924 37.3513 184.028 37.353V37.6363H180.516V37.2623C180.633 37.2602 180.749 37.2328 180.855 37.182C180.962 37.1312 181.056 37.0582 181.133 36.9677C181.252 36.6382 181.295 36.2852 181.256 35.9364V31.7999C181.291 31.4503 181.245 31.0972 181.121 30.7686C181.044 30.6847 180.95 30.6174 180.846 30.5707C180.742 30.524 180.629 30.4988 180.516 30.4966V30.202H183.343Z" fill="#272828"/>
<path d="M65.6777 5.63236C61.6718 2.60649 53.4466 -0.0340576 44.8175 -0.0340576H43.2241C34.6062 -0.0340576 26.5269 2.5045 22.3639 5.63236C21.2418 6.50499 20.7368 8.37491 20.7256 10.8568C20.7256 11.0268 20.7256 11.1968 20.7256 11.3668C20.7256 20.569 29.1751 36.299 44.0208 36.3784C58.8664 36.4577 67.316 20.569 67.3272 11.3554C67.3272 11.1968 67.3272 11.0268 67.3272 10.8568C67.3272 8.37491 66.8335 6.44833 65.6665 5.63236M66.6203 11.2988C66.6203 15.7299 64.5556 21.8497 60.6843 26.8248C56.813 31.7999 51.1799 35.6757 44.032 35.6757C36.8841 35.6757 31.2399 31.8452 27.3685 26.8701C23.4972 21.895 21.4213 15.7753 21.4213 11.3554V10.8568C21.4213 8.46557 21.9936 6.77698 22.7791 6.19901C26.7401 3.2638 34.7409 0.702577 43.2241 0.702577H44.8175C53.3007 0.702577 61.4585 3.2638 65.2738 6.19901C66.0929 6.72032 66.654 8.46557 66.6427 10.8568C66.6427 11.0155 66.6427 11.1741 66.6427 11.3441" fill="#00204B"/>
<path d="M87.7498 17.9059C86.6474 17.9244 85.5701 18.2414 84.6303 18.8239C83.6838 19.2468 82.897 19.9659 82.3861 20.8751C76.3266 31.0747 67.9332 36.1858 60.7741 37.7837C59.7978 38.0104 58.8328 38.1237 58.081 38.271H57.8902C57.5648 38.271 57.6994 38.271 57.8902 38.271C64.9483 36.0044 81.4547 28.2981 82.5769 11.5595C82.7227 9.29293 82.3861 8.80562 82.229 8.68096C82.0719 8.5563 82.0719 8.5903 81.8475 8.68096C80.8821 9.02319 79.9796 9.52487 79.1768 10.1656C77.7343 11.3687 76.7312 13.024 76.3266 14.8687C73.9702 23.2663 67.3497 31.7433 60.1008 34.5538C64.578 31.596 74.2171 22.5297 74.8006 10.5055C74.9801 6.79971 74.5874 2.3459 73.8019 0.997295L73.5887 0.668643L73.4989 0.532649C73.4147 0.474095 73.3193 0.433797 73.2189 0.414292C73.1185 0.394788 73.0151 0.3965 72.9154 0.41932C71.5164 1.23615 70.2798 2.30829 69.2685 3.58118L69.1338 3.78517C68.7656 4.24058 68.4922 4.76646 68.3303 5.33123C68.1683 5.896 68.121 6.48801 68.1913 7.0717C69.5715 13.6107 67.5404 20.4444 61.9747 27.9808C59.6036 31.0982 56.5247 33.5936 52.9978 35.2565C50.1961 36.6054 47.1243 37.284 44.0208 37.2397C40.9169 37.2889 37.8439 36.61 35.0438 35.2565C31.5216 33.5861 28.4442 31.092 26.0669 27.9808C20.4563 20.4444 18.4813 13.6107 19.8616 7.0717C19.9323 6.48446 19.8853 5.88883 19.7234 5.32031C19.5615 4.7518 19.2879 4.22201 18.919 3.76251L18.818 3.54718C17.7849 2.274 16.5299 1.20241 15.115 0.385322C15.0134 0.362912 14.9084 0.361397 14.8062 0.380868C14.704 0.400338 14.6068 0.440396 14.5203 0.49865L14.4417 0.623311C14.3632 0.73664 14.2846 0.872634 14.2173 0.963297C13.3869 2.3459 12.7585 6.82238 13.1849 10.5055C14.3071 20.2518 20.4787 29.4087 28.2887 34.7238C27.8568 34.5701 27.4368 34.3845 27.0319 34.1685C18.9526 29.5334 14.0602 23.2663 11.7037 14.9027C11.3022 13.0595 10.3031 11.4044 8.86478 10.1996C8.06235 9.55209 7.155 9.04981 6.18291 8.71496C5.95848 8.71496 5.86871 8.71496 5.80139 8.71496C5.73406 8.71496 5.173 9.3836 5.46475 11.5935C8.06807 31.2786 30.6563 38.3957 30.6563 38.3957C29.2073 38.1338 27.7813 37.7548 26.3923 37.2624C21.9038 36.0384 11.1202 30.678 5.61063 20.8864C5.11645 19.9612 4.32487 19.2337 3.36639 18.8239C2.42247 18.2415 1.3416 17.9246 0.235672 17.9059C0.202742 17.9067 0.170667 17.9166 0.142959 17.9346C0.11525 17.9526 0.0929764 17.978 0.078575 18.0079C-0.0219584 18.4726 0.0131219 18.9568 0.179565 19.4018C3.02975 30.1114 14.9018 38.8377 32.7211 41.1269C31.734 41.2558 30.7345 41.2558 29.7474 41.1269C26.11 40.5972 22.5085 39.8402 18.9639 38.8603L18.5375 38.747C17.4642 38.3329 16.2959 38.2385 15.1711 38.475C13.0503 39.155 13.2298 40.0389 13.2747 40.3336C13.3196 40.6282 14.4529 41.4669 15.8107 41.9088C17.7744 42.6002 26.426 43.8014 38.399 43.5861H38.5449L38.6571 43.6881C40.1393 45.0281 42.0243 45.8263 44.0096 45.9547C45.9919 45.8281 47.8739 45.0295 49.3509 43.6881L49.4631 43.5861H49.6202C61.6044 43.8014 70.2448 42.6002 72.1972 41.9088C73.5662 41.4329 74.6547 40.7756 74.7332 40.3336C74.8118 39.8916 74.9577 39.2003 72.8481 38.475C71.7232 38.2404 70.5554 38.3347 69.4817 38.747L69.0665 38.8603C64.9648 39.9273 60.7902 40.6849 56.5773 41.1269C54.9727 41.2289 54.5238 41.0022 54.5126 41.1269C54.5126 41.0362 54.9054 41.0702 55.3767 41.0249C73.1623 38.7583 83.7663 31.0407 87.8171 19.3565C87.9954 18.9257 88.0269 18.4474 87.9069 17.9966C87.8916 17.9674 87.8691 17.9427 87.8416 17.9248C87.8141 17.907 87.7825 17.8965 87.7498 17.8946" fill="#00204B"/>
<path d="M64.4546 6.48233C61.0097 3.87578 53.1549 1.14456 44.0208 1.31456C35.4927 1.1559 27.4471 3.88711 23.5982 6.48233C22.7005 7.08297 22.218 8.94156 22.2853 11.4461C22.2853 15.9793 24.7091 23.3229 30.0392 28.706C31.8441 30.6227 34.0117 32.1539 36.4133 33.209C38.815 34.2641 41.4019 34.8216 44.0208 34.8484C58.1034 34.8484 65.7675 19.3904 65.7675 11.4461C65.8348 8.94156 65.3523 7.08297 64.4546 6.48233ZM54.9054 12.4207C55.1971 12.5001 55.646 12.7607 55.4889 13.1347C55.3318 13.5087 55.141 13.2707 54.939 13.248C54.4452 13.1558 53.9844 12.9329 53.6037 12.6021C53.7871 12.4756 53.9969 12.3935 54.2168 12.3621C54.4366 12.3306 54.6607 12.3507 54.8717 12.4207M55.2757 16.1379C55.2757 16.3872 55.0625 16.5232 55.0063 16.7612C54.9874 16.8516 54.9491 16.9367 54.8941 17.0105C54.5912 17.2825 54.4341 17.6112 54.1311 17.8718C54.1048 17.8904 54.0734 17.9003 54.0413 17.9003C54.0092 17.9003 53.9779 17.8904 53.9516 17.8718C53.8235 17.7747 53.734 17.6346 53.699 17.4767C53.6641 17.3188 53.686 17.1536 53.7608 17.0105C54.0762 16.5415 54.4538 16.1182 54.8829 15.7526C54.9502 15.6846 54.9951 15.5826 55.0625 15.5033C55.1298 15.4239 55.1859 15.5033 55.2308 15.5033C55.2757 15.5033 55.2308 15.7526 55.2308 15.8773C55.2308 16.0019 55.2308 16.0133 55.2308 16.0812M52.8631 14.5966C53.1011 14.4005 53.3833 14.2668 53.6848 14.2074C53.9864 14.1481 54.2977 14.165 54.5912 14.2567C54.6697 14.2567 54.7483 14.336 54.737 14.4153C54.7258 14.4946 54.5912 14.676 54.4341 14.7553C54.277 14.8346 54.1087 15.0726 53.9067 15.084C53.631 15.1165 53.3574 15.1657 53.0875 15.2313C53.0245 15.2503 52.9569 15.2472 52.8957 15.2225C52.8346 15.1978 52.7836 15.153 52.7509 15.0953C52.7144 15.011 52.7056 14.9171 52.7258 14.8273C52.746 14.7376 52.7941 14.6567 52.8631 14.5966ZM25.8649 12.4434C25.932 12.282 26.0494 12.1471 26.1992 12.0592C26.349 11.9712 26.5232 11.9351 26.6953 11.9561C27.1496 12.0071 27.6093 11.9764 28.053 11.8654C28.255 11.5821 28.2662 10.8795 28.7151 11.1061C28.9844 11.2421 28.7151 11.8428 28.8946 11.8768C29.265 11.9412 29.6418 11.9602 30.0167 11.9334C30.2075 11.9334 30.3983 11.4801 30.4207 11.2535C30.4207 10.6981 31.0715 10.7661 31.5428 10.7775C31.7111 11.2648 30.9818 11.3895 30.9144 11.8201C30.9179 11.8736 30.9383 11.9245 30.9727 11.9653C31.007 12.0061 31.0535 12.0347 31.1052 12.0468C31.8458 12.1148 32.5752 12.1374 33.3494 12.2167C33.3709 12.223 33.3908 12.2337 33.4078 12.2483C33.4248 12.2629 33.4386 12.281 33.4481 12.3013C33.4577 12.3217 33.4628 12.3439 33.4632 12.3665C33.4636 12.389 33.4593 12.4114 33.4504 12.4321C33.4016 12.5221 33.3304 12.5976 33.2438 12.6513C33.1572 12.705 33.0582 12.7349 32.9567 12.7381C32.3171 12.7947 31.6887 12.6021 31.0491 12.6247C30.9818 12.6247 30.9369 12.6927 30.9705 12.7154C31.2735 12.9534 31.6214 13.1234 31.7224 13.5087C31.8233 13.894 31.3408 13.9053 31.3296 14.1773C31.3184 14.4493 31.8009 14.5173 31.6438 14.8686C31.5541 15.0332 31.4304 15.1765 31.2812 15.2887C31.132 15.401 30.9607 15.4796 30.7789 15.5194C30.5971 15.5591 30.4089 15.559 30.2271 15.5191C30.0453 15.4792 29.8741 15.4003 29.725 15.2879C29.6016 15.22 29.6352 15.0386 29.6128 14.914C29.5903 14.7893 29.9494 14.4153 29.9045 14.1547C29.8596 13.894 29.6128 13.826 29.6464 13.622C29.6801 13.418 30.0504 13.2367 30.2412 12.9874C30.4319 12.7381 30.3534 12.6247 30.2412 12.6474C29.4108 12.7494 28.6365 12.5001 27.8286 12.6474C27.3765 12.6639 26.9297 12.7519 26.5045 12.9081C26.3137 12.9987 25.8986 12.7947 25.9659 12.4887M32.0927 16.2512C32.0646 16.3294 32.0091 16.3945 31.9368 16.4342C31.8644 16.4739 31.7801 16.4854 31.6999 16.4666C31.5653 16.4666 31.5316 16.2626 31.4194 16.2172C31.3072 16.1719 30.9369 15.8659 31.1613 15.7299C31.2986 15.6933 31.4429 15.6928 31.5804 15.7285C31.7179 15.7642 31.844 15.8349 31.9468 15.9339C31.9787 15.9609 32.0021 15.9968 32.014 16.0371C32.026 16.0773 32.026 16.1203 32.0141 16.1606M29.9382 16.5686C29.7138 16.7046 29.3322 16.5686 29.3547 16.2739C29.3771 15.9793 29.3547 15.8093 29.5006 15.7753C29.5884 15.7633 29.6778 15.776 29.759 15.812C29.8401 15.848 29.9099 15.9059 29.9606 15.9793C30.028 16.1606 30.1177 16.4666 29.9606 16.5686M26.7963 16.7046C26.621 16.9351 26.4741 17.1863 26.3586 17.4525C26.3403 17.5063 26.3088 17.5546 26.2672 17.5929C26.2256 17.6313 26.1751 17.6584 26.1204 17.672C26.0657 17.6855 26.0085 17.685 25.9541 17.6704C25.8996 17.6558 25.8497 17.6276 25.8088 17.5885C25.6068 17.3845 25.8088 17.1579 25.8088 16.9765C26.022 16.5232 26.5494 16.4212 26.8636 16.0472C26.8636 16.0472 26.9758 16.0472 26.987 16.0472C27.0656 16.2966 26.8748 16.4892 26.7514 16.6932M27.5705 14.1433C27.2563 13.9847 26.8187 13.6447 27.0543 13.35C27.29 13.0554 27.6042 13.248 27.8286 13.0214C28.053 12.7947 27.9969 12.7834 28.1091 12.8514C28.2213 12.9194 28.5131 12.8514 28.6702 12.976C28.8273 13.1007 29.2425 13.2594 29.2425 13.554C29.2425 13.8487 28.8273 13.928 28.7824 14.1547C28.7375 14.3813 29.1527 14.472 29.2874 14.6986C29.422 14.9253 29.0966 15.2653 28.8273 15.3446C28.5686 15.4577 28.2847 15.4995 28.0048 15.4657C27.7249 15.4318 27.4589 15.3236 27.2339 15.152C26.8411 14.8006 27.1778 14.3133 27.5705 14.1433ZM27.7949 16.8632C27.6939 16.8632 27.5817 16.8632 27.4807 16.8632C27.3798 16.8632 27.4022 16.4892 27.4807 16.3419C27.5724 16.1962 27.7054 16.0817 27.8623 16.0133C28.255 16.0133 28.4345 16.5119 28.8161 16.7046C30.0287 17.295 31.3641 17.5826 32.7098 17.5432C33.3798 17.5613 34.031 17.3178 34.5277 16.8632C34.5838 16.7952 34.6286 16.9765 34.5277 17.0785C34.3257 17.4525 34.0788 17.7585 33.8319 18.1325C33.6759 18.3306 33.4586 18.4703 33.2148 18.5291C33.1138 18.5291 33.0801 18.6991 32.9904 18.6991C32.5856 18.7508 32.175 18.7278 31.7785 18.6311C30.4207 18.2005 29.3322 17.2372 27.8959 17.0219C27.8174 17.0219 27.7725 16.9199 27.6827 16.8972M62.8724 15.7299C62.5941 15.6564 62.3205 15.5655 62.0533 15.4579C61.7278 15.2993 61.5483 14.948 61.2005 14.8233C60.6394 15.8659 61.0546 17.0219 60.9424 18.1438C60.9361 18.1754 60.9232 18.2052 60.9046 18.2313C60.886 18.2575 60.8621 18.2793 60.8345 18.2954C60.8069 18.3115 60.7762 18.3214 60.7445 18.3246C60.7128 18.3278 60.6808 18.3241 60.6506 18.3138C60.2691 18.1665 60.2803 17.7358 60.2466 17.3619C59.3123 17.1182 58.3382 17.0719 57.3852 17.2259C57.2281 17.2259 57.1945 17.4185 57.172 17.5319C57.172 17.8265 57.071 18.2685 56.7232 18.2232C56.6161 18.1938 56.5237 18.1254 56.4636 18.0312C56.4035 17.9371 56.38 17.8238 56.3978 17.7132C56.6404 17.269 56.7677 16.7699 56.7677 16.2626C56.7677 15.7552 56.6404 15.2562 56.3978 14.812C56.2182 14.54 55.7918 14.9253 55.4328 14.812C55.406 14.8117 55.3796 14.805 55.3559 14.7924C55.3322 14.7798 55.3118 14.7616 55.2965 14.7395C55.2811 14.7173 55.2712 14.6917 55.2676 14.6649C55.264 14.6381 55.2667 14.6108 55.2757 14.5853C55.3005 14.5051 55.3475 14.4337 55.4111 14.3795C55.4747 14.3253 55.5523 14.2906 55.6347 14.2793C56.409 14.2793 56.8803 13.7353 57.5199 13.4294C57.5634 13.4011 57.614 13.386 57.6658 13.386C57.7175 13.386 57.7682 13.4011 57.8116 13.4294C57.9239 13.5654 57.8116 13.7467 57.8116 13.8487C57.9243 14.1287 57.9555 14.4354 57.9014 14.7326C57.8116 14.982 57.5199 15.0726 57.3516 15.2653C57.1833 15.4579 57.3516 15.5033 57.3516 15.5146C57.7274 15.537 58.1046 15.5104 58.4737 15.4353C58.4737 15.3559 58.4737 15.2539 58.4737 15.2086C58.1034 14.88 58.3727 14.1773 58.3054 13.7014C58.2603 13.338 58.0797 13.0057 57.8004 12.7721C57.4301 12.5114 56.8466 12.7721 56.3753 12.6361C55.904 12.5001 56.3753 12.1148 56.611 12.0128C57.0987 11.869 57.6102 11.8266 58.1146 11.8881C58.3166 11.8881 58.3503 11.5254 58.5747 11.4914C58.7991 11.4574 58.9674 11.3215 59.1694 11.3668C59.3714 11.4121 59.1694 11.8881 59.3602 11.9561C60.0986 12.1148 60.8498 12.2058 61.6044 12.2281C61.7054 12.2281 61.8513 12.3074 61.7952 12.4887C61.7906 12.5106 61.7812 12.5312 61.7676 12.5489C61.754 12.5666 61.7365 12.5809 61.7166 12.5907C60.976 12.7947 60.0334 12.3867 59.4724 13.1687C59.3281 13.3331 59.2003 13.5115 59.0909 13.7014C58.9899 13.928 59.0123 14.166 58.9001 14.3927C58.7879 14.6193 58.9001 14.812 58.9001 15.0386C58.9001 15.2653 58.7318 15.4466 58.9001 15.4693C59.3642 15.5402 59.8346 15.5592 60.3028 15.5259C60.4374 15.5259 60.4374 15.2993 60.3028 15.2313C59.91 14.9933 59.4948 14.608 59.5958 14.2567C59.6968 13.9053 60.3476 13.1234 60.7179 13.4407C60.8077 13.5087 60.7179 13.622 60.774 13.724C60.9246 13.9394 61.1249 14.1145 61.3575 14.234C61.9188 14.7054 62.5915 15.0217 63.31 15.152C63.31 15.152 63.4559 15.22 63.4559 15.2426C63.453 15.3116 63.4349 15.379 63.4029 15.44C63.371 15.5011 63.326 15.5541 63.2711 15.5953C63.2163 15.6366 63.1531 15.665 63.0861 15.6785C63.0191 15.6919 62.9499 15.6902 62.8836 15.6733" fill="#00204B"/>
<path d="M30.6676 13.8034C30.7564 13.7725 30.8427 13.7346 30.9257 13.6901C30.9558 13.6706 30.9805 13.6438 30.9977 13.6121C31.0149 13.5804 31.0239 13.5449 31.0239 13.5087C31.0239 13.4726 31.0149 13.4371 30.9977 13.4054C30.9805 13.3737 30.9558 13.3469 30.9257 13.3274C30.7012 13.2708 30.4992 13.5087 30.2524 13.5314C30.3309 13.7014 30.5105 13.8827 30.7012 13.8034" fill="#00204B"/>
<path d="M30.7124 14.506C30.6227 14.506 30.5553 14.5966 30.4543 14.6193C30.3534 14.642 30.185 14.744 30.2075 14.7893C30.2299 14.8346 30.5778 14.9026 30.7573 14.7893C30.9369 14.676 30.8471 14.5286 30.7573 14.506" fill="#00204B"/>
<path d="M60.4374 14.0641C60.4374 14.0641 60.2466 14.1661 60.1793 14.3021C60.112 14.4381 60.0895 14.3021 60.112 14.4041C60.1344 14.5061 60.314 14.8687 60.415 14.8914C60.516 14.9141 60.6057 14.5627 60.7516 14.4267C60.7644 14.4023 60.7711 14.3751 60.7711 14.3474C60.7711 14.3198 60.7644 14.2925 60.7516 14.2681C60.6843 14.1321 60.4598 14.0981 60.3925 14.0641" fill="#00204B"/>
<path d="M28.4233 13.4634C28.1877 13.2368 27.7388 13.4634 27.6378 13.6788C27.5368 13.8941 27.9183 13.9167 28.1091 13.8827C28.2999 13.8488 28.6253 13.6448 28.4233 13.4634Z" fill="#00204B"/>
<path d="M60.011 16.1267C59.4956 16.042 58.9732 16.0078 58.4513 16.0247C58.1034 16.104 57.4975 16.1153 57.3291 16.1833C57.2738 16.2522 57.2349 16.333 57.2155 16.4195C57.196 16.5059 57.1965 16.5957 57.2169 16.682C58.177 16.5592 59.1467 16.5326 60.112 16.6027C60.2803 16.6027 60.2354 16.1267 60.011 16.1267Z" fill="#00204B"/>
<path d="M28.4121 14.846C28.4344 14.8138 28.4498 14.7772 28.4574 14.7387C28.465 14.7001 28.4646 14.6604 28.4561 14.622C28.4477 14.5837 28.4314 14.5475 28.4084 14.5158C28.3853 14.4841 28.356 14.4576 28.3223 14.438C28.1877 14.438 28.0306 14.5173 27.9745 14.6646C27.9183 14.812 28.3111 14.9706 28.4121 14.846Z" fill="#00204B"/>
<path d="M58.7654 13.0668C58.7654 13.0668 58.8328 12.9648 58.9001 12.9308C58.9674 12.8968 59.046 12.8175 59.0348 12.7495C59.0235 12.6815 58.844 12.6588 58.7654 12.6588C58.3166 12.6588 58.5971 13.0441 58.7654 13.0668Z" fill="#00204B"/>
<path d="M57.4189 14.4608C57.4862 14.3588 57.576 14.2001 57.475 14.1548C57.4257 14.1428 57.3743 14.1423 57.3247 14.1532C57.2752 14.1641 57.2287 14.1862 57.1888 14.2178C57.1489 14.2494 57.1165 14.2897 57.0942 14.3357C57.0719 14.3817 57.0601 14.4322 57.0598 14.4834C57.0598 14.5628 57.1384 14.7214 57.2169 14.6987C57.2955 14.6761 57.3628 14.5628 57.4189 14.4608Z" fill="#00204B"/>
<path d="M41.2604 10.9476C41.0696 11.0949 40.9462 11.1856 41.0921 11.1516C42.2527 10.7508 43.4835 10.6002 44.7053 10.7096C45.5783 10.8222 46.4061 11.167 47.104 11.7085C47.8019 12.2501 48.345 12.9691 48.6776 13.7921C48.6776 13.7921 48.6776 13.7921 48.7674 13.7921C49.0264 13.1095 49.1448 12.3806 49.1152 11.6502C49.0332 10.3128 48.6078 9.02 47.8809 7.89903C47.7911 7.83103 47.7126 8.05769 47.1179 8.10302C46.9046 8.1106 46.6925 8.06855 46.4979 7.98012C46.3034 7.89169 46.1315 7.75925 45.9957 7.59304C45.9172 7.51371 45.8723 7.77437 45.3673 7.80837C44.8624 7.84237 44.6492 7.44572 44.5819 7.47972C44.4663 7.59253 44.3247 7.67442 44.1699 7.71796C44.0151 7.7615 43.852 7.76531 43.6954 7.72904C43.1007 7.60438 42.9436 7.11706 42.8314 7.18506C42.3152 7.8877 41.3726 7.10573 41.4063 7.18506C41.8679 7.89878 42.1491 8.71595 42.2254 9.56496C42.2254 10.5849 41.597 10.6982 41.3614 10.8909" fill="white"/>
<path d="M44.7838 11.7635C45.3009 11.8676 45.8308 11.8906 46.3548 11.8315C46.4445 11.7295 45.5693 11.1855 45.3785 11.1855C45.1878 11.1855 44.6492 11.7749 44.7838 11.7635Z" fill="white"/>
<path d="M40.1383 11.7975C39.8687 11.7049 39.5904 11.6404 39.3079 11.6049C39.1396 11.6049 39.8689 11.9902 40.1383 12.1375V11.7975Z" fill="white"/>
<path d="M40.1382 12.6702C40.1382 12.6702 37.894 11.0042 36.9514 10.3243C36.8168 10.2223 36.7494 10.1996 36.7382 10.2223C36.727 10.2449 38.556 13.1575 39.4425 14.7554C39.8577 15.4694 39.5323 15.56 39.8465 16.2967L40.0597 16.8293L40.1382 12.6702Z" fill="white"/>
<path d="M44.6828 14.9027C45.3785 15.322 46.568 16.0926 46.5567 16.4213C46.7218 17.2566 46.7204 18.1166 46.5528 18.9514C46.3852 19.7861 46.0547 20.5788 45.5805 21.2831C47.1963 22.7224 47.4432 23.221 46.8821 24.037C46.8821 24.037 46.9495 24.037 46.9719 24.037C47.3871 23.7196 50.3383 22.1897 49.6201 16.5233C49.555 15.7444 49.226 15.012 48.6888 14.4494C46.5455 13.7694 40.9574 12.0128 40.4636 11.8768V12.2281L44.6716 14.88" fill="white"/>
<path d="M44.8287 23.6629C45.5905 24.5321 46.5179 25.2374 47.5554 25.7368C47.9033 25.8955 47.8135 25.7368 47.8135 25.7368C46.6487 25.1028 45.6371 24.2166 44.8511 23.1416L44.8287 23.6629Z" fill="white"/>
<path d="M42.0907 20.5351C42.6523 21.3258 43.2593 22.0826 43.9085 22.8016V22.3483C43.0333 21.317 42.1356 19.9458 42.1244 19.9571L42.0907 20.5351Z" fill="white"/>
<path d="M51.999 23.5949C51.999 23.3116 51.5277 23.1983 51.3145 22.9943C51.6389 21.7605 51.719 20.4742 51.5502 19.2091C51.4716 18.7332 49.9231 17.6905 49.9792 17.8152C50.4423 18.7578 50.5756 19.831 50.3576 20.8599C50.1396 21.8889 49.583 22.8129 48.7786 23.4816C48.7224 23.4816 49.3396 23.7309 48.7786 25.0682C48.7786 25.0682 48.8795 25.0682 49.0479 25.0116C49.6169 24.7312 50.1128 24.3197 50.4954 23.8103C50.8601 24.2946 51.0272 24.9015 50.9625 25.5065C50.8979 26.1114 50.6062 26.6683 50.1475 27.0628C50.1475 27.0628 50.1475 27.0628 50.2149 27.0628C50.3534 26.9839 50.4848 26.8929 50.6076 26.7908C51.104 26.4349 51.4955 25.9498 51.7405 25.387C51.9855 24.8243 52.0749 24.2049 51.999 23.5949Z" fill="white"/>
<path d="M51.2248 16.1153C51.4492 16.0474 51.3145 13.5315 50.6301 12.0355C50.4842 11.7069 49.766 10.8002 49.4294 10.9022C49.6565 11.6359 49.6951 12.4159 49.5416 13.1688C51.4492 15.0841 51.135 16.036 51.2248 16.138" fill="white"/>
<path d="M40.4861 17.1126C41.6883 17.9932 42.8144 18.9751 43.8524 20.0478C44.0363 20.2131 44.1714 20.4266 44.2427 20.6646C44.3139 20.9026 44.3187 21.1558 44.2564 21.3964C45.4907 20.9771 46.2313 17.5546 45.9508 16.7046C45.4346 16.1946 40.4748 12.7834 40.4636 12.7721L40.4861 17.1126Z" fill="white"/>
<path d="M40.4188 11.6842C40.4188 11.6842 40.329 8.57902 40.3178 8.28437C40.3066 7.98971 40.2168 8.01238 40.228 8.21637C40.2393 8.42036 40.1607 11.6162 40.1607 11.6162L40.4188 11.6842Z" fill="white"/>
<path d="M44.4696 12.7154V11.0608C44.4696 10.8795 44.1891 10.9022 44.1891 10.9022V12.5681C44.2778 12.626 44.3717 12.6754 44.4696 12.7154Z" fill="white"/>
<path d="M44.4921 15.3107C44.4921 15.3107 44.4921 14.0528 44.4921 13.9168C44.4921 13.7808 44.2115 13.7241 44.2115 13.7241C44.2115 13.7241 44.2115 15.0274 44.2115 15.0501C44.3145 15.1438 44.4231 15.2309 44.537 15.3107" fill="white"/>
<path d="M40.4524 19.3679V17.4979C40.1943 17.2599 40.0597 17.2146 40.0485 17.2259V19.3905C40.0485 19.5038 40.4861 19.5152 40.4861 19.3905" fill="white"/>
<path d="M44.5594 23.153V21.8383C44.5594 21.691 44.436 21.7023 44.436 21.7023C44.436 21.7023 44.2115 21.7817 44.2115 21.8837V23.017C44.2115 23.153 44.537 23.5836 44.5594 23.1983" fill="white"/>
<path d="M46.0743 6.96975L44.5369 5.64381C44.5369 5.64381 44.5369 3.43391 44.5369 3.37724C44.5369 3.18459 44.3911 3.22992 44.4135 3.43391C44.436 3.6379 44.3013 5.63248 44.3013 5.63248L42.8313 6.55044L40.6993 6.28978C40.632 6.28978 40.5422 6.44844 40.6993 6.48244L47.8584 7.45707C47.9931 7.45707 48.0716 7.29841 47.8584 7.26441L46.063 6.96975M44.2115 6.72043L43.1792 6.66377L44.3013 5.9498L44.2115 6.72043ZM44.5706 6.72043V5.8818L45.6142 6.87909L44.5706 6.72043Z" fill="white"/>
<path d="M42.2478 23.5157H38.96V22.881C38.96 22.881 38.96 22.6091 39.1283 22.5977H41.8551C42.1244 22.5977 42.2815 22.3711 42.0571 22.3484H39.2742V21.5778C39.2742 21.4871 39.2742 21.3398 39.3864 21.3398H41.6307C42.001 21.3398 42.1356 21.1244 41.8214 21.1131H39.6557C39.6557 21.0565 39.6557 20.2178 39.6557 20.2178C39.6557 20.2178 39.6557 19.9912 39.7455 19.9912H41.6307C41.8326 19.9912 42.0458 19.7758 41.6307 19.7532H39.5323C39.4936 19.7532 39.4565 19.7687 39.4291 19.7963C39.4018 19.824 39.3864 19.8614 39.3864 19.9005C39.3864 21.0338 39.3864 21.0338 39.3864 21.1131H39.1732C39.1334 21.113 39.0951 21.1282 39.0659 21.1555C39.0368 21.1829 39.019 21.2204 39.0161 21.2604V22.3371H38.8366C38.818 22.3355 38.7993 22.3378 38.7816 22.344C38.7639 22.3501 38.7477 22.3599 38.734 22.3727C38.7203 22.3854 38.7094 22.401 38.7019 22.4183C38.6945 22.4355 38.6906 22.4542 38.6907 22.4731V23.6063C38.4887 23.6743 38.4214 23.799 38.5785 24.139C38.7356 24.479 38.8478 24.9889 39.1396 25.4649C39.2967 25.7256 39.465 25.8842 39.4201 25.6236C39.3752 25.3629 39.2742 25.1363 39.4874 25.0569C39.7006 24.9776 40.1944 25.0569 40.4076 25.0569C40.6208 25.0569 40.6656 25.0003 40.632 24.9096C40.5983 24.819 40.5534 24.8416 40.4188 24.8416H39.5547C39.4089 24.8416 39.3303 24.5356 39.4874 24.5356H40.733C41.0247 24.5356 41.1033 24.309 40.8115 24.2976C40.8115 24.2976 39.5099 24.2976 39.4762 24.2976C39.4425 24.2976 39.1508 23.969 39.3752 23.969H41.6194C42.2927 23.969 42.4274 23.6063 42.2029 23.5837" fill="white"/>
<path d="M41.3389 20.6371C41.3575 20.6387 41.3763 20.6363 41.3939 20.6302C41.4116 20.6241 41.4278 20.6143 41.4415 20.6015C41.4552 20.5887 41.4661 20.5732 41.4736 20.5559C41.481 20.5386 41.4849 20.52 41.4848 20.5011C41.482 20.464 41.4654 20.4294 41.4383 20.4042C41.4112 20.379 41.3757 20.365 41.3389 20.3651H41.036C40.9991 20.365 40.9636 20.379 40.9366 20.4042C40.9095 20.4294 40.8929 20.464 40.8901 20.5011C40.89 20.52 40.8938 20.5386 40.9013 20.5559C40.9087 20.5732 40.9197 20.5887 40.9334 20.6015C40.9471 20.6143 40.9633 20.6241 40.981 20.6302C40.9986 20.6363 41.0173 20.6387 41.036 20.6371H41.3389Z" fill="white"/>
<path d="M40.4637 20.6371C40.4823 20.6387 40.501 20.6363 40.5186 20.6302C40.5363 20.6241 40.5525 20.6143 40.5662 20.6015C40.5799 20.5887 40.5909 20.5732 40.5983 20.5559C40.6058 20.5386 40.6096 20.52 40.6095 20.5011C40.6067 20.464 40.5901 20.4294 40.563 20.4042C40.536 20.379 40.5005 20.365 40.4637 20.3651H40.1382C40.1014 20.365 40.0659 20.379 40.0389 20.4042C40.0118 20.4294 39.9952 20.464 39.9924 20.5011C39.9923 20.52 39.9961 20.5386 40.0036 20.5559C40.011 20.5732 40.022 20.5887 40.0357 20.6015C40.0494 20.6143 40.0656 20.6241 40.0833 20.6302C40.1009 20.6363 40.1196 20.6387 40.1382 20.6371H40.4637Z" fill="white"/>
<path d="M40.2617 21.9517C40.2808 21.9532 40.3001 21.9509 40.3184 21.9449C40.3367 21.9389 40.3536 21.9293 40.3682 21.9167C40.3828 21.904 40.3948 21.8886 40.4035 21.8713C40.4122 21.8539 40.4173 21.835 40.4188 21.8157C40.4173 21.7963 40.4122 21.7774 40.4035 21.7601C40.3948 21.7427 40.3828 21.7273 40.3682 21.7147C40.3536 21.702 40.3367 21.6924 40.3184 21.6864C40.3001 21.6804 40.2808 21.6781 40.2617 21.6797H39.9138C39.8946 21.6781 39.8754 21.6804 39.8571 21.6864C39.8388 21.6924 39.8219 21.702 39.8073 21.7147C39.7927 21.7273 39.7807 21.7427 39.772 21.7601C39.7633 21.7774 39.7581 21.7963 39.7567 21.8157C39.7581 21.835 39.7633 21.8539 39.772 21.8713C39.7807 21.8886 39.7927 21.904 39.8073 21.9167C39.8219 21.9293 39.8388 21.9389 39.8571 21.9449C39.8754 21.9509 39.8946 21.9532 39.9138 21.9517H40.2617Z" fill="white"/>
<path d="M41.3838 21.9517C41.4219 21.952 41.4588 21.9385 41.4877 21.9135C41.5166 21.8885 41.5355 21.8537 41.5409 21.8157C41.5395 21.7963 41.5343 21.7774 41.5256 21.7601C41.5169 21.7427 41.505 21.7273 41.4904 21.7147C41.4758 21.702 41.4588 21.6924 41.4405 21.6864C41.4223 21.6804 41.403 21.6781 41.3838 21.6797H41.0472C41.028 21.6781 41.0087 21.6804 40.9904 21.6864C40.9722 21.6924 40.9552 21.702 40.9406 21.7147C40.926 21.7273 40.914 21.7427 40.9054 21.7601C40.8967 21.7774 40.8915 21.7963 40.8901 21.8157C40.8955 21.8537 40.9144 21.8885 40.9433 21.9135C40.9722 21.9385 41.0091 21.952 41.0472 21.9517H41.3838Z" fill="white"/>
<path d="M39.9924 23.153C40.0323 23.1563 40.072 23.144 40.1033 23.1188C40.1346 23.0935 40.1551 23.0571 40.1607 23.017C40.1551 22.9769 40.1346 22.9405 40.1033 22.9153C40.072 22.89 40.0323 22.8777 39.9924 22.881H39.6445C39.6046 22.8777 39.5649 22.89 39.5336 22.9153C39.5023 22.9405 39.4818 22.9769 39.4762 23.017C39.4818 23.0571 39.5023 23.0935 39.5336 23.1188C39.5649 23.144 39.6046 23.1563 39.6445 23.153H39.9924Z" fill="white"/>
<path d="M41.4287 23.1529C41.4478 23.1545 41.4671 23.1522 41.4854 23.1462C41.5037 23.1402 41.5206 23.1306 41.5352 23.1179C41.5498 23.1053 41.5618 23.0899 41.5705 23.0725C41.5791 23.0552 41.5843 23.0363 41.5858 23.017C41.5843 22.9976 41.5791 22.9787 41.5705 22.9614C41.5618 22.944 41.5498 22.9286 41.5352 22.916C41.5206 22.9033 41.5037 22.8937 41.4854 22.8877C41.4671 22.8817 41.4478 22.8794 41.4287 22.881H41.0808C40.9798 22.881 40.9125 22.9376 40.9125 23.017C40.9181 23.057 40.9386 23.0934 40.9699 23.1187C41.0012 23.144 41.0409 23.1562 41.0808 23.1529H41.4287Z" fill="white"/>
<path d="M42.2366 21.8837C44.3238 24.7169 46.568 26.2015 47.4657 26.4168C48.0671 26.6158 48.7158 26.6158 49.3172 26.4168L49.4631 25.9748C46.7475 27.3801 42.7304 21.9403 42.2254 21.2604L42.2366 21.8837Z" fill="white"/>
<path d="M42.4722 23.255C44.5482 26.0769 47.4881 27.7881 49.1376 27.2215L49.2274 26.8248C46.4782 27.7994 42.9772 23.357 42.4947 22.677L42.4722 23.255Z" fill="white"/>
<path d="M49.3845 27.5274C46.5119 28.434 43.1006 24.7622 42.5845 24.0596V25.8162C43.6168 26.1108 44.4696 27.1988 47.1739 27.8107C47.9824 27.9919 48.8228 27.9686 49.6202 27.7427C49.6202 27.7427 50.0915 25.0002 50.0802 24.9889L49.8783 25.1135C49.8783 25.3515 49.3621 27.5274 49.3621 27.5274" fill="white"/>
<path d="M43.2353 27.9128C43.6056 27.8108 43.3475 27.7201 43.1006 27.7768C42.2084 27.9721 41.2765 27.8427 40.4695 27.4114C39.6626 26.98 39.0325 26.2745 38.6907 25.4195C38.2419 24.1729 37.3329 23.153 36.0201 23.7989C35.8574 23.8962 35.7217 24.0335 35.6255 24.1979C35.5294 24.3624 35.476 24.5487 35.4702 24.7396C35.4539 24.9462 35.5041 25.1527 35.6132 25.3283C35.7224 25.5039 35.8848 25.6392 36.0762 25.7142C36.261 25.8229 36.4798 25.8564 36.6883 25.808C36.8967 25.7596 37.0791 25.6328 37.1983 25.4535C37.1983 25.3742 37.2768 25.2722 37.1983 25.3175C36.8504 25.4649 36.424 25.1475 36.5138 24.8076C36.5501 24.6966 36.6141 24.5969 36.6997 24.5182C36.7852 24.4395 36.8894 24.3843 37.0022 24.3581C37.115 24.3319 37.2325 24.3356 37.3436 24.3686C37.4546 24.4017 37.5553 24.4631 37.6359 24.5469C37.7449 24.6187 37.8384 24.7121 37.9107 24.8213C37.9831 24.9306 38.0328 25.0535 38.0569 25.1826C38.0811 25.3118 38.079 25.4445 38.051 25.5729C38.023 25.7012 37.9696 25.8225 37.894 25.9295C37.0861 27.0628 36.0537 25.8162 34.8306 26.9948C34.3007 27.4972 33.6353 27.8299 32.9184 27.9509C32.2015 28.0719 31.4651 27.9758 30.8022 27.6748C30.2299 27.6748 31.4643 28.1734 32.0029 28.2754C33.5514 28.5814 34.4828 27.6974 36.2669 27.2328C37.1088 26.8876 38.0508 26.8876 38.8927 27.2328C40.22 27.9438 41.7431 28.1909 43.2241 27.9354" fill="white"/>
<path d="M44.4808 28.0262C44.6542 28.0113 44.8285 28.0374 44.9902 28.1023C45.1518 28.1672 45.2963 28.2692 45.4122 28.4001C45.5469 28.5588 45.4122 28.6608 45.4122 28.6721C45.19 28.7176 44.9611 28.7176 44.7389 28.6721C44.133 28.5361 43.5158 28.5588 42.9323 28.4001C42.9323 28.4001 41.7541 28.2415 42.0122 28.6835C42.36 28.8535 42.6742 28.5588 43.0221 28.6835C43.6841 28.8195 44.2115 29.1481 44.8624 29.2954C45.1444 29.3795 45.4444 29.3795 45.7264 29.2954C46.4782 29.0235 46.8485 28.8421 47.5555 29.1934C47.6901 29.2614 47.8696 28.9328 47.0168 28.7288C46.4333 28.5815 45.8386 27.7428 44.9185 27.8222C44.3013 27.8788 44.4023 28.0942 44.5257 28.0942" fill="white"/>
<path d="M44.6267 27.3348C44.3013 27.1648 43.7851 27.5502 43.5046 27.4255C43.2925 27.3345 43.1008 27.2013 42.9408 27.0338C42.7807 26.8664 42.6557 26.6681 42.5732 26.4509C42.1131 24.9663 41.2603 24.9549 40.6993 25.3176C40.4412 25.4876 40.4973 25.7029 40.5646 25.7256C40.6319 25.7482 40.6993 25.7256 40.9686 25.5896C41.4848 25.4423 41.8775 26.0429 42.3488 26.8589C42.5503 27.1338 42.8209 27.3492 43.1327 27.4827C43.4445 27.6162 43.786 27.663 44.1217 27.6182C44.3798 27.6182 44.7838 27.4028 44.6716 27.3462" fill="white"/>
<path d="M39.0161 28.4795C39.2181 28.4795 39.7904 28.7401 39.7006 28.5928C39.4498 28.2432 39.1054 27.9732 38.7078 27.8146C38.3102 27.656 37.8761 27.6154 37.4564 27.6975C36.8489 28.0239 36.2047 28.275 35.5376 28.4455C35.0551 28.5248 34.999 28.4455 34.5389 28.5135C34.4379 28.5135 34.3818 28.6381 34.9429 28.8195C35.5153 28.9815 36.1209 28.9815 36.6934 28.8195C37.4114 28.4571 38.2258 28.3379 39.0161 28.4795Z" fill="white"/>
<path d="M33.63 26.8476C33.8095 26.7229 33.7085 26.6549 33.63 26.6889C32.5076 26.9779 31.3375 27.0242 30.1963 26.8249C30.1963 26.8249 30.1402 26.8249 30.1963 26.9042C30.2475 26.9975 30.3258 27.0726 30.4207 27.1195C31.0863 27.3911 31.8174 27.4543 32.5191 27.3009C32.9475 27.2412 33.3575 27.0863 33.7197 26.8476" fill="white"/>
<path d="M40.3627 29.3974C42.0907 29.7374 43.5495 30.7574 45.3673 30.3947C45.3673 30.3947 45.5805 30.3154 45.3673 30.2247C45.1178 30.1395 44.8629 30.0714 44.6043 30.0207C43.83 29.8281 43.9871 29.7034 43.6505 29.5901C43.5158 29.5334 43.4036 29.5901 43.2802 29.7034C43.1567 29.8167 42.7864 29.6354 42.5844 29.4994C42.1445 29.2256 41.6631 29.0265 41.1594 28.9101C40.5426 28.7682 39.9022 28.7682 39.2854 28.9101C38.5707 29.0921 37.8725 29.3347 37.1983 29.6354C37.1983 29.6354 36.9851 29.7374 37.1983 29.7601C37.8639 29.69 38.5239 29.5726 39.1732 29.4088C39.5718 29.3576 39.9753 29.3576 40.3739 29.4088" fill="white"/>
<path d="M45.9733 30.746C47.5023 31.2404 49.146 31.2404 50.6749 30.746C50.6749 30.746 51.0565 30.474 50.6749 30.576C48.8122 31.018 45.9059 30.576 46.0069 30.7686" fill="white"/>
<path d="M51.0564 30.2926C52.3244 30.1793 52.1786 30.1113 51.8419 30.0093C51.311 29.9214 50.775 29.8684 50.2373 29.8506C49.5495 29.6229 48.829 29.5119 48.1053 29.522C47.7686 29.5768 47.438 29.6641 47.1178 29.7827C46.5006 29.964 46.1191 29.7033 45.5244 29.9073C44.9297 30.1113 46.0181 30.1566 46.4333 30.202C47.9549 30.3495 49.4854 30.3798 51.0115 30.2926" fill="white"/>
<path d="M54.4677 29.1367C54.5351 29.1046 54.589 29.0494 54.6199 28.9809C54.6507 28.9124 54.6564 28.8351 54.636 28.7627C54.636 28.672 54.3667 28.6494 54.4901 28.5474C54.6002 28.442 54.7428 28.378 54.8941 28.3661C55.3093 28.3661 55.6122 28.5814 56.0162 28.5587C56.2519 28.5587 56.5099 28.3887 56.3641 28.2074C56.2182 28.0261 56.0499 28.2981 55.7693 28.2074C55.4888 28.1167 55.1971 27.9241 54.939 27.9241C54.4789 27.9241 54.2881 28.0941 54.232 28.3774C54.1759 28.6607 54.434 28.5474 54.232 28.6267C53.3127 28.8278 52.3524 28.6869 51.5277 28.2301C51.1125 28.0827 50.9554 28.434 50.6637 28.3661C50.5005 28.314 50.327 28.3034 50.1588 28.335C49.9905 28.3666 49.8325 28.4395 49.6987 28.5474C49.5752 28.5474 49.5191 28.876 49.9007 28.7854C50.069 28.7287 50.8769 28.3321 51.3482 28.536C52.9304 29.25 53.7159 29.5333 54.434 29.114" fill="white"/>
<path d="M46.9607 5.08848C46.3245 4.34589 45.5252 3.76377 44.6267 3.38855C44.7795 4.04178 44.8137 4.71757 44.7277 5.38313C45.0443 5.18283 45.4026 5.05918 45.7743 5.02183C46.1461 4.98447 46.5214 5.03443 46.8709 5.16781C46.8709 5.16781 47.0056 5.16781 46.9719 5.08848" fill="white"/>
<path d="M41.7878 9.59888C42.0571 9.59888 41.3165 8.72625 40.4749 8.12561C40.3178 8.02362 40.7217 8.81692 40.4749 10.0975C40.7217 10.0975 40.9574 9.61022 41.7878 9.59888Z" fill="white"/>
<path d="M41.036 8.91895H40.6769V9.02094H40.935V9.19093H40.6769V9.55358H40.7779V9.2816H40.935L40.9462 9.55358H41.3053V9.45159H41.0472V9.2816H41.3053V8.91895H41.2043V9.19093H41.0472L41.036 8.91895Z" fill="#00204B"/>
<path d="M45.3673 4.09119H44.9409V4.21585H45.2551V4.40851H44.9409V4.83915H45.0644V4.53317H45.2551V4.83915H45.6927V4.72583H45.3785V4.53317H45.6927V4.09119H45.5693V4.40851H45.3785L45.3673 4.09119Z" fill="#00204B"/>
</g>
<defs>
<clipPath id="clip0_4535_602">
<rect width="188" height="46" fill="white"/>
</clipPath>
</defs>
</svg>
