<?xml version="1.0" encoding="utf-8"?>
<!-- Generator: Adobe Illustrator 24.0.3, SVG Export Plug-In . SVG Version: 6.00 Build 0)  -->
<svg version="1.1" id="圖層_1" xmlns="http://www.w3.org/2000/svg" xmlns:xlink="http://www.w3.org/1999/xlink" x="0px" y="0px"
	 viewBox="0 0 103.87 196.51" style="enable-background:new 0 0 103.87 196.51;" xml:space="preserve">
<style type="text/css">
	.st0{fill:#EF957D;}
	.st1{fill:#1D1D1B;}
	.st2{fill:#FCC6A2;}
	.st3{fill:#E0402B;}
	.st4{fill:#FFFFFF;}
	.st5{fill:#3F2F29;}
	.st6{fill:#7CC5D8;}
	.st7{fill:#D9F2F9;}
	.st8{fill:#88D3ED;}
	.st9{fill:#F4E7D7;}
	.st10{fill:#BCBEC0;}
	.st11{fill:#808285;}

	<!-- @keyframes eye{
		0%{
			transform: translateY(0px);
		}
		25%{
			transform: translateY(-27px);
		}
		75%{
			transform: translateY(50px);
		}
		100%{
			transform: translateY(0px);
		}
	} -->
	@keyframes mouth{
		0%{
			transform: scale(1.0);
		}
		50%{
			transform: scale(1.1);
		}
		100%{
			transform: scale(1.0);
		}
		
	} 
</style>
<g>
	<g>
		<g>
			<g>
				<path class="st0" d="M47.54,60.23v8.25c0,0,3.13,2.33,8.7,0c0-7.71,0-8.25,0-8.25H47.54z"/>
				<path class="st1" d="M65.35,4.7c0,0-2.77-8-19.54-4.48C24.51,4.7,19.9,31.16,26,45.41c5.56,11.13,11.81,17.23,24.29,17.37
					c12.48,0.14,23.88,3.26,28.9-24.02C82.18,20.31,76.21,5.11,65.35,4.7z"/>
				<path class="st0" d="M33.37,34.97c0,0-0.54-2.83-4.24-2.4c-3.7,0.43-4.46,10.44,4.13,10.77L33.37,34.97z"/>
				<path class="st0" d="M73.38,34.97c0,0,0.54-2.83,4.24-2.4c3.7,0.43,4.46,10.44-4.14,10.77L73.38,34.97z"/>
				<path class="st2" d="M73.62,50.41c0,8.17-6.7,14.8-14.96,14.8H47.9c-8.26,0-14.96-6.63-14.96-14.8V25.83
					c0-8.17,6.7-14.8,14.96-14.8h10.76c8.26,0,14.96,6.63,14.96,14.8V50.41z"/>
				<path class="st3" d="M73.62,38.62V25.83c0-8.17-6.7-14.8-14.96-14.8H47.9c-8.26,0-14.96,6.63-14.96,14.8v12.79H73.62z"/>
				<!--左眼-->
				<g style="animation: eye 10s linear infinite forwards;">
					<g>
						<path class="st4" d="M45.69,32.69c0,0-3.32,0.55-8.17,2.41c0,0,0.73,5.51,5.43,4.03C45.73,38.15,47.08,35.37,45.69,32.69z"/>
						<path class="st5" d="M42.53,36.72c2.47-0.81,1.52-3.33,1.39-3.65c-1.02,0.25-2.44,0.64-4.14,1.21
							C39.88,35.11,40.39,37.33,42.53,36.72z"/>
						<path class="st4" d="M43.86,33.84c0.09,0.34-0.06,0.68-0.33,0.75c-0.27,0.08-0.58-0.14-0.67-0.48
							c-0.09-0.34,0.06-0.68,0.33-0.75C43.47,33.28,43.77,33.5,43.86,33.84z"/>
					</g>
				</g>
				<!--左眼 end-->
				<!--右眼-->
				<g>
					<g>
						<path class="st4" d="M68.96,35.33c0,0-3.02-1.5-8.03-2.81c0,0-2.63,4.9,2.05,6.44C65.8,39.79,68.52,38.32,68.96,35.33z"/>
						<path class="st5" d="M64.04,36.76c2.48,0.78,3.17-1.82,3.26-2.15c-0.97-0.39-2.35-0.9-4.07-1.43
							C62.83,33.91,61.95,36,64.04,36.76z"/>
						<path class="st4" d="M66.8,35.19c-0.13,0.33-0.44,0.52-0.71,0.42c-0.27-0.1-0.38-0.45-0.26-0.78
							c0.12-0.33,0.44-0.52,0.71-0.42C66.81,34.52,66.93,34.87,66.8,35.19z"/>
					</g>
				</g>
				<!--右眼 end-->
				<g>
					<path class="st0" d="M53.54,45.97c-1.33,0.04-2.38-0.34-2.45-0.37c-0.26-0.1-0.42-0.47-0.36-0.83
						c0.07-0.36,0.33-0.58,0.59-0.48c0.02,0.01,2.18,0.79,4.06-0.13c0.26-0.12,0.54,0.07,0.63,0.42c0.1,0.36-0.04,0.74-0.29,0.86
						C54.99,45.81,54.23,45.94,53.54,45.97z"/>
				</g>
				<!--嘴-->
				<g style="transform-origin: 51px 50px;animation: mouth 2s linear infinite forwards;">
					<path class="st4" d="M64.46,58.32c-0.11-5.45-5.02-9.84-11.07-9.85c-6.05-0.01-10.97,4.37-11.09,9.81L64.46,58.32z"/>
				</g>
				<!--嘴 end-->
				<path class="st0" d="M54.66,60.44c0,0.19-0.15,0.34-0.35,0.34h-2.85c-0.19,0-0.34-0.15-0.34-0.34l0,0
					c0-0.19,0.15-0.34,0.34-0.34h2.85C54.51,60.1,54.66,60.25,54.66,60.44L54.66,60.44z"/>
				<path class="st1" d="M32.11,27.5c0,0,21.98-1.49,26.59-9.77c0,0,6.92,10.18,16.83,9.77c0,0,1.08-19.13-15.74-20.22
					C42.96,6.2,32.51,12.16,32.11,27.5z"/>
				<path class="st1" d="M37.02,29.71c0,0,2.38-2.91,8.84-1.68c0.87,0.25-1.89-2.73-5.48-1.75C36.78,27.26,35.94,29.92,37.02,29.71z
					"/>
				<path class="st1" d="M68.73,29.71c0,0-2.38-2.91-8.83-1.68c-0.87,0.25,1.89-2.73,5.48-1.75C68.97,27.26,69.81,29.92,68.73,29.71
					z"/>
			</g>
			<path class="st3" d="M82.18,150.28V76.73c0-7.72-6.99-9.66-15.61-9.66h-24.5c-8.62,0-15.61,1.94-15.61,9.66v73.55H82.18z"/>
			<path class="st0" d="M51.94,75.03c5.81,0,10.52-2.75,10.52-6.14c0-0.63-0.17-1.24-0.47-1.82h-20.1c-0.3,0.58-0.47,1.19-0.47,1.82
				C41.42,72.28,46.13,75.03,51.94,75.03z"/>
			<rect x="0.17" y="74.37" class="st6" width="103.88" height="121.47"/>
			<rect x="0.17" y="74.37" class="st7" width="103.88" height="12.7"/>
			<path class="st2" d="M23.1,74.88h3.36c0,0,0.53-2.27-2.61-3.44c0,0-2.19-2.19-6.12-2.38c-3.93-0.19-7.63,1.85-8.88,6.01
				c-0.83,2.99-0.53,10.09,0.79,10.51c1.32,0.42,2.12-0.75,2.12-1.47c0,0,0.3,2.04,1.59,2.04c1.29,0,1.82-1.32,1.82-2.12
				c0,0,0.08,1.89,1.47,1.93c1.4,0.04,2-1.44,2-2.68c0,0,0.04,1.81,1.78,1.89C22.16,85.23,22.78,79.85,23.1,74.88z"/>
			<path class="st2" d="M79.3,74.88h-3.36c0,0-0.53-2.27,2.61-3.44c0,0,2.19-2.19,6.12-2.38c3.93-0.19,7.64,1.85,8.89,6.01
				c0.83,2.99,0.53,10.09-0.8,10.51c-1.32,0.42-2.12-0.75-2.12-1.47c0,0-0.3,2.04-1.59,2.04c-1.28,0-1.81-1.32-1.81-2.12
				c0,0-0.08,1.89-1.47,1.93c-1.4,0.04-2-1.44-2-2.68c0,0-0.04,1.81-1.78,1.89C80.24,85.23,79.62,79.85,79.3,74.88z"/>
		</g>
		<g>
			<path class="st8" d="M78.31,24.53c0,3.22-2.61,5.83-5.83,5.83H33.69c-3.22,0-5.83-2.61-5.83-5.83v-8.75
				c0-3.22,2.61-5.83,5.83-5.83h38.79c3.22,0,5.83,2.61,5.83,5.83V24.53z"/>
			<path class="st6" d="M73.37,25H32.8c-2.03,0-3.83-1-4.94-2.52v2.05c0,3.22,2.61,5.83,5.83,5.83h38.79c3.22,0,5.83-2.61,5.83-5.83
				v-2.05C77.2,24,75.4,25,73.37,25z"/>
		</g>
	</g>
	<g>
		<g>
			<path class="st9" d="M13.95,46.27c0.72,0,1.3,0.58,1.3,1.29v14.66c0,0.71-0.58,1.3-1.3,1.3l0,0c-0.72,0-1.3-0.58-1.3-1.3V47.57
				C12.65,46.85,13.23,46.27,13.95,46.27L13.95,46.27z"/>
			<path class="st10" d="M12.65,62.23c0,0.71,0.58,1.3,1.3,1.3c0.72,0,1.3-0.58,1.3-1.3v-3.14h-2.59V62.23z"/>
		</g>
		<path class="st9" d="M14.6,27.14c1.79,0,3.24,1.45,3.24,3.24v17.25c0,1.79-1.45,7.23-3.24,7.23H13.3c-1.79,0-3.24-5.44-3.24-7.23
			V30.38c0-1.79,1.45-3.24,3.24-3.24H14.6z"/>
		<path class="st11" d="M15.31,32.16c0.36,0,0.65,0.29,0.65,0.65v8.99c0,0.36-0.29,0.65-0.65,0.65h-2.75
			c-0.36,0-0.65-0.29-0.65-0.65v-8.99c0-0.36,0.29-0.65,0.65-0.65H15.31z"/>
		<path class="st10" d="M14.98,33.32c0.25,0,0.46,0.22,0.46,0.5v6.97c0,0.28-0.2,0.5-0.46,0.5h-1.94c-0.25,0-0.46-0.22-0.46-0.5
			v-6.97c0-0.28,0.2-0.5,0.46-0.5H14.98z"/>
		<path class="st3" d="M14.21,28.93c0.46,0,0.84,0.38,0.84,0.84v0.95c0,0.46-0.38,0.84-0.84,0.84h-0.25c-0.46,0-0.84-0.38-0.84-0.84
			v-0.95c0-0.46,0.38-0.84,0.84-0.84H14.21z"/>
	</g>
</g>
</svg>
