<?xml version="1.0" encoding="utf-8"?>
<!-- Generator: Adobe Illustrator 24.0.3, SVG Export Plug-In . SVG Version: 6.00 Build 0)  -->
<svg version="1.1" id="圖層_1" xmlns="http://www.w3.org/2000/svg" xmlns:xlink="http://www.w3.org/1999/xlink" x="0px" y="0px"
	 viewBox="0 0 25.12 27.75" style="enable-background:new 0 0 25.12 27.75;" xml:space="preserve">
<style type="text/css">
	.st0{fill:#DD193E;
</style>
<path class="st0" d="M1.15,21c-0.45,0-0.85-0.32-0.94-0.77c-0.1-0.52,0.23-1.02,0.75-1.12c1.54-0.3,2.63-1.94,2.34-3.5
	c-0.46-2.46,0.61-4.47,2.87-5.38c1.48-0.6,2.64-1.07,1.56-4.43c-0.5-1.56-0.46-2.92,0.14-4.03c0.79-1.48,2.23-1.92,2.39-1.96
	c0.51-0.14,1.03,0.15,1.18,0.66c0.14,0.5-0.15,1.03-0.65,1.17C10.76,1.64,9.95,1.9,9.55,2.68c-0.33,0.64-0.33,1.49,0,2.52
	c1.43,4.43-0.43,5.88-2.66,6.78c-1.78,0.72-1.91,2.17-1.71,3.27c0.48,2.59-1.28,5.21-3.84,5.72C1.28,20.99,1.22,21,1.15,21z"/>
<path class="st0" d="M6.13,23.21c-0.51,0-0.93-0.4-0.95-0.92c-0.02-0.53,0.39-0.97,0.92-0.99c1.57-0.06,2.9-1.51,2.85-3.1
	c-0.07-2.5,1.3-4.32,3.67-4.87c1.55-0.36,2.78-0.65,2.23-4.13c-0.25-1.62,0-2.95,0.77-3.96c1.01-1.34,2.5-1.55,2.66-1.57
	c0.52-0.06,1,0.31,1.06,0.83c0.06,0.52-0.31,0.99-0.82,1.06c-0.04,0.01-0.88,0.14-1.4,0.85c-0.43,0.58-0.56,1.42-0.39,2.49
	c0.72,4.6-1.34,5.74-3.68,6.29c-1.87,0.44-2.22,1.85-2.19,2.96c0.08,2.64-2.07,4.95-4.69,5.06C6.16,23.21,6.14,23.21,6.13,23.21z"/>
<path class="st0" d="M9.56,27.5c-0.23,0-0.46-0.02-0.69-0.05c-0.52-0.08-0.88-0.56-0.8-1.08c0.08-0.52,0.57-0.88,1.09-0.8
	c1.55,0.24,3.13-0.94,3.38-2.51c0.4-2.47,2.09-4,4.51-4.1c1.59-0.07,2.85-0.12,2.97-3.64c0.05-1.64,0.56-2.9,1.5-3.75
	c1.24-1.12,2.75-1.05,2.91-1.04c0.52,0.04,0.92,0.49,0.88,1.02c-0.03,0.52-0.49,0.92-1.01,0.89c-0.03,0-0.88-0.03-1.53,0.57
	c-0.53,0.49-0.82,1.29-0.85,2.38c-0.15,4.66-2.39,5.39-4.79,5.48c-1.92,0.08-2.53,1.4-2.71,2.5C14.04,25.74,11.9,27.5,9.56,27.5z"/>
</svg>
