<?xml version="1.0" encoding="utf-8"?>
<!-- Generator: Adobe Illustrator 24.0.3, SVG Export Plug-In . SVG Version: 6.00 Build 0)  -->
<svg version="1.1" id="圖層_1" xmlns="http://www.w3.org/2000/svg" xmlns:xlink="http://www.w3.org/1999/xlink" x="0px" y="0px"
	 viewBox="0 0 167.28 81.57" style="enable-background:new 0 0 167.28 81.57;" xml:space="preserve">
<style type="text/css">
	.st0{fill:#A40B5E;}

<!-- 	@keyframes virus{
		0%{
			transform: translate(0px, 0px);
		}
		25%{
			transform: translate(10px, 5px);
		}
		50%{
			transform: translate(10px, -5px);
		}
		75%{
			transform: translate(0px, 5px);
		}
		100%{
			transform: translate(0px, 0px);
		}
	}-->
		
</style>
<g style="animation: virus 5s linear infinite forwards;">
	<path class="st0" d="M165.82,49.22c1.21-0.25,1.84-2.16,1.41-4.27c-0.43-2.11-1.77-3.61-2.98-3.36c-0.9,0.19-1.48,1.29-1.54,2.71
		l-3.16,1.22c-0.45-1.52-1.08-2.97-1.88-4.3l3.13-1.38c0.92,0.92,1.99,1.3,2.7,0.87c0.94-0.58,0.88-2.36-0.12-3.99
		c-1-1.63-2.57-2.48-3.51-1.9c-0.71,0.44-0.85,1.57-0.44,2.8l-2.68,2.21c-0.96-1.32-2.1-2.5-3.36-3.53l2.33-2.17
		c1.16,0.56,2.29,0.56,2.8-0.08c0.66-0.84,0.02-2.45-1.43-3.59c-1.45-1.15-3.17-1.4-3.83-0.57c-0.51,0.64-0.24,1.75,0.57,2.74
		l-1.6,2.8c-1.28-0.89-2.68-1.62-4.16-2.16l1.55-2.85c1.35,0.07,2.45-0.38,2.73-1.22c0.39-1.18-0.95-2.68-2.99-3.36
		c-2.04-0.68-4.01-0.27-4.4,0.9c-0.28,0.84,0.34,1.86,1.46,2.61l-0.47,3.28c-1.5-0.36-3.06-0.54-4.67-0.52l0.26-2.36
		c1.23-0.29,2.09-0.99,2.07-1.78c-0.03-1.01-1.48-1.79-3.23-1.74c-1.76,0.05-3.15,0.91-3.13,1.92c0.02,0.8,0.93,1.45,2.17,1.66
		l0.41,2.39c-1.56,0.15-3.07,0.47-4.5,0.98l-0.81-3.66c1.04-0.81,1.57-1.84,1.25-2.65c-0.46-1.15-2.45-1.44-4.45-0.65
		c-2,0.79-3.25,2.37-2.79,3.52c0.32,0.81,1.41,1.19,2.73,1.07l1.96,3.28c-1.31,0.66-2.53,1.45-3.64,2.38l-1.77-2.86
		c0.67-1.06,0.81-2.15,0.26-2.77c-0.78-0.88-2.64-0.49-4.17,0.86c-1.52,1.35-2.12,3.16-1.34,4.04c0.55,0.62,1.65,0.6,2.78,0.06
		l2.68,2.12c-1.05,1.11-1.95,2.35-2.71,3.69L123,40c0.36-1.22,0.18-2.34-0.53-2.72c-0.91-0.49-2.34,0.39-3.2,1.98
		c-0.85,1.58-0.81,3.26,0.1,3.76c0.71,0.38,1.74-0.08,2.57-1.05l2.66,1.02c-0.68,1.46-1.19,3.02-1.48,4.66l-3.03-0.97
		c-0.14-1.42-0.78-2.49-1.7-2.62c-1.23-0.18-2.47,1.4-2.79,3.53c-0.31,2.13,0.43,4,1.65,4.18c0.91,0.13,1.84-0.71,2.38-2.03
		l3.25-0.06c-0.04,0.57-0.05,1.15-0.04,1.74c0.03,1.04,0.16,2.04,0.36,3.03l-2.92,0.15c-0.53-1.18-1.4-1.91-2.21-1.75
		c-1.05,0.22-1.6,1.87-1.22,3.7c0.38,1.83,1.53,3.13,2.59,2.91c0.81-0.17,1.32-1.19,1.34-2.48l2.78-1.03
		c0.44,1.55,1.05,3.03,1.84,4.38l-2.9,1.22c-1.04-1.05-2.26-1.5-3.07-1c-1.05,0.65-0.99,2.66,0.13,4.49
		c1.13,1.83,2.9,2.79,3.95,2.14c0.81-0.5,0.96-1.79,0.48-3.19l2.44-2.08c0.88,1.2,1.9,2.28,3.04,3.24l-2,1.83
		c-1.02-0.4-1.98-0.34-2.43,0.23c-0.66,0.83-0.02,2.43,1.42,3.56c1.44,1.14,3.14,1.39,3.8,0.56c0.45-0.57,0.29-1.52-0.33-2.42
		l1.34-2.41c1.22,0.8,2.53,1.46,3.92,1.97l-1.5,2.83c-1.41-0.1-2.57,0.34-2.86,1.22c-0.39,1.18,0.95,2.68,2.99,3.36
		c2.04,0.68,4.01,0.27,4.4-0.9c0.29-0.87-0.37-1.92-1.57-2.68l0.5-3.22c1.43,0.35,2.92,0.53,4.45,0.53l-0.31,2.64
		c-1.17,0.34-1.97,1.05-1.95,1.85c0.03,1.09,1.59,1.92,3.47,1.87c1.89-0.05,3.39-0.98,3.36-2.07c-0.02-0.8-0.86-1.46-2.05-1.73
		l-0.48-2.67c1.57-0.17,3.07-0.54,4.5-1.07l0.57,2.42c-0.79,0.6-1.19,1.36-0.95,1.97c0.33,0.84,1.79,1.05,3.26,0.47
		c1.46-0.58,2.38-1.74,2.04-2.58c-0.24-0.6-1.06-0.88-2.04-0.78l-1.27-2.19c1.45-0.71,2.8-1.59,4.02-2.63l1.51,2.4
		c-0.72,1.06-0.9,2.18-0.35,2.8c0.75,0.84,2.53,0.47,3.99-0.83c1.46-1.3,2.03-3.03,1.29-3.87c-0.55-0.62-1.68-0.58-2.82,0.02
		l-2.25-1.81c1.07-1.12,1.99-2.38,2.75-3.73l1.97,1.55c-0.26,1.08-0.07,2.03,0.57,2.37c0.87,0.47,2.24-0.38,3.06-1.89
		c0.82-1.51,0.77-3.12-0.1-3.59c-0.64-0.34-1.54,0.02-2.3,0.83l-2.42-0.81c0.65-1.45,1.14-2.99,1.4-4.61l2.59,0.83
		c0.12,1.21,0.67,2.13,1.45,2.24c1.04,0.15,2.11-1.19,2.37-3.01s-0.36-3.41-1.41-3.56c-0.78-0.11-1.57,0.61-2.03,1.73l-2.76,0.05
		c0.04-0.62,0.06-1.25,0.04-1.88c-0.03-0.98-0.15-1.92-0.32-2.86l3.32-0.13C163.95,48.62,164.92,49.41,165.82,49.22z M147.08,35.49
		c0.69-0.02,1.26,0.52,1.28,1.21c0.02,0.69-0.52,1.26-1.21,1.28c-0.69,0.02-1.26-0.52-1.28-1.21
		C145.85,36.08,146.39,35.51,147.08,35.49z M145.45,48.14c0.93-0.03,1.71,0.71,1.74,1.64c0.03,0.93-0.71,1.71-1.64,1.74
		c-0.93,0.03-1.71-0.71-1.74-1.64C143.78,48.94,144.52,48.17,145.45,48.14z M141.09,46.35c0.02,0.69-0.52,1.26-1.21,1.28
		c-0.69,0.02-1.26-0.52-1.28-1.21c-0.02-0.69,0.52-1.26,1.21-1.28C140.49,45.12,141.07,45.66,141.09,46.35z M138.31,36.46
		c0.93-0.03,1.71,0.71,1.74,1.64c0.03,0.93-0.71,1.71-1.64,1.74c-0.93,0.03-1.71-0.71-1.74-1.64
		C136.64,37.26,137.37,36.48,138.31,36.46z M125.98,48.16c-0.02-0.69,0.52-1.26,1.21-1.28c0.69-0.02,1.26,0.52,1.28,1.21
		c0.02,0.69-0.52,1.26-1.21,1.28C126.58,49.39,126,48.84,125.98,48.16z M131.09,58.74c-1.52,0.04-2.78-1.15-2.82-2.66
		c-0.04-1.51,1.15-2.78,2.66-2.82c1.52-0.04,2.78,1.15,2.82,2.66C133.8,57.44,132.61,58.7,131.09,58.74z M132.71,48.04
		c-2.16,0.06-3.95-1.64-4.02-3.79c-0.06-2.16,1.64-3.95,3.79-4.02c2.16-0.06,3.95,1.64,4.02,3.79
		C136.56,46.18,134.86,47.97,132.71,48.04z M137.14,63.14c-0.69,0.02-1.26-0.52-1.28-1.21c-0.02-0.69,0.52-1.26,1.21-1.28
		c0.69-0.02,1.26,0.52,1.28,1.21C138.37,62.55,137.83,63.12,137.14,63.14z M137.64,54.27c-0.04-1.51,1.15-2.78,2.66-2.82
		c1.51-0.04,2.78,1.15,2.82,2.66c0.04,1.51-1.15,2.78-2.66,2.82C138.95,56.98,137.68,55.79,137.64,54.27z M145.19,67.17
		c-2.62,0.08-4.81-1.99-4.89-4.61c-0.08-2.62,1.99-4.81,4.61-4.89c2.62-0.08,4.81,1.99,4.89,4.61
		C149.88,64.91,147.82,67.1,145.19,67.17z M146.54,43.73c-0.06-2.16,1.64-3.95,3.79-4.02c2.16-0.06,3.95,1.64,4.02,3.79
		c0.06,2.16-1.64,3.95-3.79,4.02C148.4,47.58,146.6,45.89,146.54,43.73z M155.39,56.51c-1.52,0.04-2.78-1.15-2.82-2.66
		c-0.04-1.51,1.15-2.78,2.66-2.82c1.52-0.04,2.78,1.15,2.82,2.66C158.1,55.2,156.91,56.46,155.39,56.51z"/>
	<path class="st0" d="M77.93,49.9c0.65-0.7,0.18-2.18-1.04-3.31c-1.22-1.12-2.74-1.46-3.38-0.76c-0.48,0.52-0.34,1.48,0.26,2.39
		l-1.43,2.19c-0.97-0.75-2.02-1.37-3.12-1.84l1.33-2.27c0.99,0.16,1.83-0.08,2.08-0.68c0.32-0.78-0.51-1.88-1.87-2.44
		c-1.36-0.56-2.73-0.39-3.05,0.4c-0.25,0.59,0.18,1.37,0.99,1.95l-0.68,2.59c-1.2-0.39-2.44-0.62-3.69-0.69l0.47-2.41
		c0.98-0.17,1.69-0.68,1.71-1.31c0.04-0.82-1.09-1.54-2.52-1.6c-1.43-0.06-2.61,0.55-2.65,1.37c-0.03,0.63,0.63,1.2,1.59,1.46
		l0.26,2.47c-1.2,0.03-2.4,0.2-3.58,0.52l-0.31-2.48c0.88-0.57,1.36-1.34,1.16-2c-0.29-0.91-1.8-1.25-3.39-0.75
		c-1.58,0.5-2.63,1.64-2.35,2.55c0.21,0.65,1.05,1.01,2.09,0.97l1.19,2.26c-1.1,0.45-2.16,1.04-3.15,1.78l-0.9-1.59
		c0.64-0.73,0.86-1.56,0.49-2.05c-0.47-0.62-1.73-0.45-2.81,0.37c-1.08,0.82-1.56,1.99-1.09,2.61c0.37,0.49,1.23,0.49,2.11,0.06
		L54,51c-0.91,0.8-1.71,1.68-2.37,2.64l-2.16-1.92c0.29-0.98,0.16-1.86-0.41-2.22c-0.81-0.51-2.18,0.2-3.07,1.6
		c-0.89,1.4-0.96,2.95-0.16,3.46c0.57,0.36,1.42,0.11,2.19-0.56l2.71,1.17c-0.52,1-0.92,2.05-1.2,3.13l-2.4-0.99
		c-0.06-0.97-0.46-1.71-1.09-1.85c-0.88-0.2-1.87,0.89-2.22,2.42c-0.34,1.53,0.1,2.93,0.98,3.13c0.62,0.14,1.3-0.37,1.77-1.21
		l2.63,0.12c-0.16,1.17-0.16,2.35-0.03,3.53l-2.18,0.01c-0.33-0.93-0.94-1.54-1.56-1.46c-0.79,0.1-1.29,1.3-1.11,2.68
		c0.18,1.38,0.97,2.41,1.76,2.3c0.62-0.08,1.06-0.83,1.13-1.81l2.13-0.56c0.24,1.22,0.62,2.43,1.18,3.58l-2.33,0.76
		c-0.73-0.82-1.61-1.2-2.24-0.88c-0.85,0.44-0.91,1.99-0.15,3.46c0.77,1.47,2.07,2.31,2.92,1.87c0.63-0.33,0.83-1.27,0.57-2.34
		l2-1.5c0.24,0.38,0.49,0.75,0.76,1.1c0.49,0.63,1.02,1.2,1.59,1.73l-1.76,1.41c-0.86-0.5-1.74-0.56-2.17-0.1
		c-0.56,0.61-0.15,1.89,0.9,2.86c1.06,0.97,2.37,1.27,2.93,0.66c0.43-0.47,0.29-1.34-0.28-2.15l1.28-1.9
		c0.97,0.77,2.02,1.42,3.13,1.91l-1.26,2.07c-1.12-0.19-2.09,0.08-2.37,0.76c-0.37,0.88,0.58,2.11,2.11,2.75
		c1.53,0.64,3.07,0.44,3.44-0.45c0.28-0.67-0.21-1.55-1.14-2.21l0.59-2.4c1.09,0.35,2.22,0.57,3.36,0.66l-0.42,2.05
		c-0.82,0.21-1.39,0.68-1.42,1.24c-0.04,0.81,1.08,1.53,2.5,1.59c1.41,0.06,2.59-0.55,2.63-1.36c0.03-0.56-0.5-1.08-1.3-1.36
		l-0.25-2.11c1.12-0.05,2.24-0.23,3.34-0.54l0.34,2.44c-0.93,0.57-1.45,1.38-1.24,2.05c0.29,0.91,1.8,1.25,3.39,0.75
		c1.58-0.5,2.63-1.64,2.35-2.55c-0.21-0.68-1.1-1.03-2.19-0.97l-1.14-2.24c1.05-0.43,2.06-0.98,3.02-1.68l1,1.8
		c-0.58,0.74-0.76,1.55-0.39,2.03c0.51,0.67,1.86,0.49,3.02-0.4c1.16-0.89,1.68-2.14,1.17-2.81c-0.37-0.49-1.2-0.52-2.07-0.16
		l-1.5-1.46c0.9-0.82,1.68-1.72,2.33-2.7l1.45,1.26c-0.22,0.73-0.13,1.39,0.29,1.66c0.59,0.38,1.6-0.15,2.25-1.17
		c0.65-1.02,0.71-2.16,0.12-2.54c-0.42-0.27-1.06-0.07-1.63,0.43l-1.78-0.79c0.59-1.1,1.04-2.26,1.33-3.45l2.02,0.82
		c0.03,0.99,0.42,1.77,1.05,1.91c0.85,0.19,1.8-0.85,2.12-2.32c0.33-1.47-0.09-2.81-0.94-3c-0.63-0.14-1.31,0.4-1.76,1.29
		l-2.22-0.12c0.16-1.18,0.17-2.38,0.04-3.58l1.93,0.08c0.32,0.79,0.87,1.3,1.43,1.23c0.76-0.1,1.23-1.25,1.06-2.56
		c-0.17-1.31-0.93-2.3-1.68-2.2c-0.55,0.07-0.95,0.71-1.06,1.55l-1.88,0.59c-0.25-1.2-0.64-2.39-1.2-3.52l1.99-0.65
		c0.62,0.7,1.38,1.03,1.91,0.75c0.72-0.38,0.78-1.7,0.13-2.95s-1.77-1.97-2.49-1.59c-0.54,0.28-0.71,1.09-0.49,2l-1.7,1.28
		c-0.25-0.41-0.53-0.81-0.82-1.2c-0.46-0.6-0.96-1.13-1.49-1.64l2.02-1.58C76.49,50.37,77.45,50.42,77.93,49.9z M60.01,49.77
		c0.42-0.32,1.03-0.24,1.35,0.18c0.32,0.42,0.24,1.03-0.18,1.35c-0.42,0.32-1.03,0.24-1.35-0.18
		C59.51,50.69,59.59,50.09,60.01,49.77z M64.7,58.41c0.57-0.44,1.39-0.33,1.83,0.24c0.44,0.57,0.33,1.39-0.24,1.83
		c-0.57,0.44-1.39,0.33-1.83-0.24C64.02,59.67,64.13,58.85,64.7,58.41z M61.16,59.26c0.32,0.42,0.24,1.03-0.18,1.35
		c-0.42,0.32-1.03,0.24-1.35-0.18c-0.32-0.42-0.24-1.03,0.18-1.35C60.24,58.76,60.84,58.84,61.16,59.26z M54.96,54.33
		c0.57-0.44,1.39-0.33,1.83,0.24c0.44,0.57,0.33,1.39-0.24,1.83c-0.57,0.44-1.39,0.33-1.83-0.24
		C54.28,55.59,54.39,54.77,54.96,54.33z M52.53,67.21c-0.32-0.42-0.24-1.03,0.18-1.35c0.42-0.32,1.03-0.24,1.35,0.18
		c0.32,0.42,0.24,1.03-0.18,1.35C53.46,67.71,52.85,67.63,52.53,67.21z M60.5,71.53c-0.93,0.71-2.26,0.53-2.97-0.39
		c-0.71-0.93-0.54-2.26,0.39-2.97c0.93-0.71,2.26-0.54,2.97,0.39C61.61,69.49,61.43,70.81,60.5,71.53z M56.68,64.1
		c-1.32,1.01-3.21,0.76-4.22-0.56c-1.01-1.32-0.76-3.21,0.56-4.22c1.32-1.01,3.21-0.76,4.22,0.56C58.25,61.2,58,63.09,56.68,64.1z
		 M66.27,71.55c-0.42,0.32-1.03,0.24-1.35-0.18c-0.32-0.42-0.24-1.03,0.18-1.35c0.42-0.32,1.03-0.24,1.35,0.18
		C66.77,70.62,66.69,71.22,66.27,71.55z M62.58,65.78c-0.71-0.93-0.54-2.26,0.39-2.97c0.93-0.71,2.26-0.54,2.97,0.39
		c0.71,0.93,0.54,2.26-0.39,2.97C64.62,66.88,63.29,66.7,62.58,65.78z M73.13,70.43c-1.61,1.23-3.91,0.93-5.14-0.68
		c-1.23-1.61-0.93-3.91,0.68-5.14c1.61-1.23,3.91-0.93,5.14,0.68C75.04,66.9,74.73,69.2,73.13,70.43z M63.39,55.17
		c-1.01-1.32-0.76-3.21,0.56-4.22c1.32-1.01,3.21-0.76,4.22,0.56c1.01,1.32,0.76,3.21-0.56,4.22C66.29,56.74,64.4,56.49,63.39,55.17
		z M74.69,59.16c-0.93,0.71-2.26,0.53-2.97-0.39c-0.71-0.93-0.54-2.26,0.39-2.97c0.93-0.71,2.26-0.54,2.97,0.39
		C75.79,57.12,75.62,58.45,74.69,59.16z"/>
	<path class="st0" d="M72.04,3.12c-0.53-0.52-1.69-0.19-2.58,0.73c-0.9,0.92-1.2,2.08-0.67,2.6c0.39,0.38,1.13,0.3,1.86-0.14
		l1.66,1.16c-0.6,0.73-1.11,1.53-1.5,2.37l-1.73-1.09c0.15-0.76-0.02-1.42-0.47-1.63c-0.6-0.27-1.46,0.35-1.93,1.39
		c-0.47,1.04-0.37,2.1,0.23,2.37c0.45,0.21,1.06-0.1,1.53-0.72l1.99,0.59c-0.33,0.92-0.54,1.87-0.62,2.84l-1.85-0.43
		c-0.11-0.76-0.49-1.32-0.97-1.36c-0.63-0.05-1.22,0.81-1.3,1.91c-0.08,1.1,0.36,2.04,1,2.08c0.49,0.04,0.95-0.46,1.17-1.2
		l1.92-0.14c-0.01,0.93,0.09,1.86,0.32,2.78l-1.93,0.18c-0.42-0.69-1-1.09-1.52-0.94c-0.71,0.2-1.01,1.36-0.66,2.6
		c0.35,1.24,1.2,2.08,1.92,1.88c0.51-0.14,0.81-0.79,0.81-1.59l1.78-0.86c0.32,0.86,0.75,1.7,1.3,2.48l-1.26,0.66
		c-0.55-0.51-1.19-0.71-1.57-0.43c-0.49,0.35-0.39,1.33,0.22,2.18c0.61,0.85,1.5,1.26,1.99,0.91c0.39-0.28,0.41-0.94,0.1-1.63
		l1.05-1c0.6,0.72,1.26,1.36,1.99,1.9l-1.54,1.62c-0.75-0.25-1.43-0.17-1.73,0.26c-0.42,0.61,0.1,1.69,1.16,2.42
		c1.06,0.72,2.26,0.82,2.68,0.21c0.29-0.43,0.12-1.1-0.38-1.71l0.97-2.06c0.76,0.43,1.56,0.77,2.39,1l-0.83,1.83
		c-0.75,0.02-1.33,0.32-1.46,0.8c-0.17,0.68,0.64,1.47,1.82,1.77c1.18,0.3,2.27,0,2.45-0.68c0.12-0.48-0.25-1.02-0.9-1.4l0.16-2.03
		c0.9,0.15,1.81,0.18,2.73,0.11l-0.05,1.69c-0.73,0.23-1.22,0.69-1.17,1.17c0.06,0.62,0.98,1.03,2.04,0.92
		c1.07-0.11,1.89-0.69,1.82-1.31c-0.05-0.48-0.62-0.84-1.38-0.92l-0.38-1.66c0.95-0.15,1.89-0.42,2.8-0.82l0.53,1.82
		c-0.66,0.54-0.97,1.22-0.73,1.72c0.32,0.67,1.52,0.76,2.68,0.2c1.16-0.56,1.84-1.55,1.52-2.21c-0.24-0.5-0.96-0.67-1.8-0.5
		l-1.11-1.59c0.3-0.17,0.59-0.36,0.87-0.56c0.5-0.36,0.96-0.76,1.38-1.19l1.05,1.39c-0.41,0.66-0.48,1.33-0.13,1.68
		c0.46,0.45,1.46,0.17,2.24-0.63c0.78-0.8,1.04-1.8,0.58-2.25c-0.35-0.34-1.03-0.26-1.67,0.16l-1.44-1.03
		c0.62-0.73,1.15-1.53,1.55-2.38l1.57,1.03c-0.18,0.87,0.01,1.62,0.53,1.85c0.67,0.31,1.65-0.4,2.18-1.57
		c0.53-1.17,0.41-2.37-0.26-2.67c-0.52-0.23-1.21,0.12-1.74,0.83l-1.84-0.51c0.3-0.84,0.49-1.7,0.59-2.58l1.57,0.38
		c0.14,0.64,0.49,1.09,0.93,1.13c0.63,0.05,1.21-0.8,1.29-1.89c0.08-1.09-0.36-2.02-0.99-2.07c-0.44-0.03-0.85,0.36-1.09,0.97
		l-1.64,0.14c-0.01-0.87-0.12-1.74-0.33-2.6l1.9-0.2c0.42,0.73,1.03,1.16,1.56,1.01c0.71-0.2,1.01-1.36,0.66-2.6
		c-0.35-1.24-1.2-2.08-1.92-1.88C93.46,8.32,93.16,9,93.18,9.85l-1.76,0.83c-0.31-0.82-0.71-1.62-1.22-2.38l1.41-0.73
		c0.56,0.46,1.18,0.63,1.56,0.35c0.53-0.38,0.42-1.43-0.23-2.34c-0.66-0.92-1.62-1.35-2.14-0.97c-0.39,0.28-0.43,0.91-0.17,1.59
		l-1.16,1.13c-0.61-0.72-1.29-1.34-2.03-1.87l1.01-1.09C89,4.56,89.51,4.5,89.73,4.18c0.31-0.45-0.08-1.24-0.85-1.77
		c-0.78-0.53-1.65-0.6-1.96-0.15c-0.22,0.32-0.08,0.82,0.29,1.27l-0.66,1.36c-0.83-0.48-1.72-0.86-2.64-1.11l0.68-1.55
		c0.77,0,1.38-0.28,1.5-0.76c0.17-0.65-0.61-1.41-1.74-1.7c-1.13-0.29-2.18,0-2.34,0.65c-0.12,0.48,0.28,1.03,0.95,1.39l-0.15,1.72
		c-0.91-0.16-1.84-0.19-2.77-0.12l0.11-1.49c0.62-0.23,1.03-0.64,0.99-1.07c-0.06-0.59-0.93-0.98-1.95-0.88
		c-1.02,0.1-1.8,0.66-1.74,1.25c0.04,0.43,0.52,0.76,1.18,0.86l0.41,1.47c-0.94,0.16-1.86,0.44-2.75,0.84l-0.45-1.56
		c0.56-0.46,0.83-1.04,0.63-1.46c-0.27-0.57-1.29-0.64-2.28-0.17c-0.99,0.47-1.57,1.32-1.29,1.89c0.2,0.42,0.82,0.57,1.53,0.43
		l0.95,1.35c-0.32,0.19-0.64,0.39-0.95,0.61c-0.47,0.34-0.9,0.72-1.31,1.11l-1.17-1.6C72.37,4.25,72.43,3.5,72.04,3.12z
		 M71.49,16.98c-0.24-0.33-0.16-0.8,0.17-1.04c0.33-0.24,0.8-0.16,1.04,0.17c0.24,0.33,0.16,0.8-0.17,1.04
		C72.2,17.39,71.73,17.31,71.49,16.98z M78.3,13.56c-0.33-0.45-0.22-1.08,0.23-1.41s1.08-0.22,1.41,0.23
		c0.33,0.45,0.22,1.08-0.23,1.41C79.26,14.12,78.62,14.02,78.3,13.56z M78.87,16.32c0.33-0.24,0.8-0.16,1.04,0.17
		c0.24,0.33,0.16,0.8-0.17,1.04c-0.33,0.24-0.8,0.16-1.04-0.17C78.46,17.02,78.54,16.56,78.87,16.32z M74.9,21
		c-0.33-0.45-0.22-1.08,0.23-1.41c0.45-0.33,1.08-0.22,1.41,0.23c0.33,0.45,0.22,1.08-0.23,1.41C75.86,21.56,75.23,21.45,74.9,21z
		 M84.81,23.19c-0.33,0.24-0.8,0.16-1.04-0.17s-0.16-0.8,0.17-1.04c0.33-0.24,0.8-0.16,1.04,0.17
		C85.22,22.49,85.14,22.96,84.81,23.19z M88.34,17.13c0.53,0.74,0.36,1.76-0.38,2.29c-0.74,0.53-1.76,0.36-2.29-0.38
		c-0.53-0.74-0.36-1.76,0.38-2.29C86.79,16.23,87.81,16.4,88.34,17.13z M82.5,19.9c0.75,1.05,0.51,2.5-0.54,3.25
		c-1.05,0.75-2.5,0.51-3.25-0.54c-0.75-1.05-0.51-2.5,0.54-3.25C80.3,18.62,81.75,18.86,82.5,19.9z M88.5,12.67
		c0.24,0.33,0.16,0.8-0.17,1.04c-0.33,0.24-0.8,0.16-1.04-0.17c-0.24-0.33-0.16-0.8,0.17-1.04C87.8,12.26,88.26,12.33,88.5,12.67z
		 M83.94,15.38c-0.74,0.53-1.76,0.36-2.29-0.38c-0.53-0.74-0.36-1.76,0.38-2.29c0.74-0.53,1.76-0.36,2.29,0.38
		C84.85,13.83,84.68,14.86,83.94,15.38z M87.81,7.34c0.91,1.27,0.62,3.05-0.65,3.96c-1.27,0.91-3.05,0.62-3.96-0.65
		c-0.91-1.27-0.62-3.05,0.65-3.96C85.12,5.77,86.9,6.06,87.81,7.34z M75.75,14.49c-1.05,0.75-2.5,0.51-3.25-0.54
		c-0.75-1.05-0.51-2.5,0.54-3.25c1.05-0.75,2.5-0.51,3.25,0.54C77.04,12.29,76.8,13.74,75.75,14.49z M79.13,5.85
		c0.53,0.74,0.36,1.76-0.38,2.29c-0.74,0.53-1.76,0.36-2.29-0.38C75.93,7.02,76.1,6,76.84,5.47C77.57,4.95,78.6,5.11,79.13,5.85z"/>
	<path class="st0" d="M9.1,28.98c-0.2-0.51-1.08-0.65-1.97-0.3c-0.89,0.35-1.45,1.05-1.25,1.56c0.15,0.38,0.68,0.55,1.3,0.47
		L7.96,32c-0.63,0.31-1.22,0.7-1.74,1.15l-0.84-1.27c0.33-0.47,0.42-0.97,0.18-1.25c-0.32-0.37-1.1-0.21-1.74,0.35
		c-0.64,0.56-0.89,1.31-0.57,1.68c0.24,0.28,0.75,0.25,1.26-0.02l1.17,1.01c-0.51,0.52-0.94,1.11-1.29,1.74l-1.12-0.85
		c0.16-0.55,0.07-1.04-0.25-1.22c-0.42-0.23-1.07,0.17-1.47,0.9c-0.39,0.72-0.38,1.49,0.04,1.72c0.32,0.17,0.78-0.02,1.16-0.45
		l1.35,0.49c-0.29,0.63-0.51,1.29-0.63,1.98L2.1,37.49c-0.07-0.6-0.35-1.04-0.74-1.1C0.81,36.3,0.25,37,0.11,37.94
		c-0.14,0.94,0.18,1.78,0.73,1.86c0.39,0.06,0.79-0.29,1.03-0.83l1.47-0.04c-0.04,0.68-0.01,1.38,0.12,2.08l-1.05,0.06
		c-0.22-0.52-0.59-0.84-0.94-0.77c-0.44,0.09-0.67,0.78-0.52,1.54c0.15,0.76,0.64,1.31,1.08,1.22C2.38,43,2.6,42.55,2.6,41.99
		l1.02-0.36c0.18,0.67,0.44,1.31,0.77,1.89l-1.54,0.63c-0.43-0.4-0.92-0.55-1.25-0.35c-0.47,0.29-0.45,1.18,0.05,2
		c0.5,0.82,1.28,1.24,1.75,0.96c0.33-0.2,0.42-0.71,0.26-1.27l1.29-1.1c0.39,0.52,0.83,1,1.32,1.41l-1.12,0.99
		c-0.51-0.21-1-0.19-1.23,0.09c-0.33,0.41-0.02,1.19,0.69,1.76s1.54,0.69,1.87,0.29c0.23-0.29,0.14-0.77-0.18-1.22l0.73-1.33
		c0.56,0.38,1.18,0.68,1.82,0.91l-0.55,1.13c-0.56-0.07-1.04,0.1-1.15,0.44c-0.15,0.44,0.35,1,1.1,1.25
		c0.76,0.26,1.49,0.11,1.64-0.33c0.11-0.34-0.16-0.76-0.65-1.04l0.25-1.24c0.69,0.19,1.41,0.3,2.15,0.3l-0.2,1.4
		c-0.61,0.17-1.03,0.53-1.02,0.94c0.01,0.55,0.8,0.98,1.75,0.95c0.96-0.02,1.72-0.49,1.71-1.04c-0.01-0.41-0.45-0.75-1.07-0.89
		l-0.27-1.42c0.25-0.03,0.51-0.06,0.76-0.11c0.45-0.09,0.88-0.23,1.3-0.38l0.29,1.27c-0.48,0.32-0.73,0.76-0.6,1.1
		c0.17,0.44,0.94,0.56,1.71,0.26c0.77-0.3,1.25-0.91,1.08-1.35c-0.13-0.34-0.62-0.49-1.19-0.4l-0.66-1.14
		c0.65-0.31,1.25-0.69,1.78-1.14l0.75,1.18c-0.38,0.53-0.49,1.1-0.21,1.42c0.36,0.41,1.24,0.24,1.96-0.4c0.72-0.63,1-1.48,0.64-1.89
		c-0.28-0.32-0.86-0.29-1.43,0.03l-1.09-0.91c0.46-0.47,0.86-1,1.19-1.57l0.95,0.74c-0.1,0.48,0,0.89,0.28,1.05
		c0.41,0.22,1.06-0.17,1.45-0.89c0.39-0.72,0.37-1.48-0.04-1.7c-0.29-0.16-0.69-0.01-1.03,0.33l-1.16-0.41
		c0.26-0.59,0.45-1.22,0.57-1.86l1.35,0.44c0.06,0.63,0.34,1.1,0.75,1.16c0.54,0.08,1.1-0.62,1.24-1.56
		c0.14-0.94-0.18-1.78-0.73-1.86c-0.4-0.06-0.81,0.31-1.06,0.89l-1.45,0.02c0.04-0.65,0.01-1.32-0.1-1.99l1.18-0.06
		c0.24,0.49,0.61,0.78,0.95,0.71c0.47-0.1,0.72-0.84,0.56-1.66c-0.17-0.82-0.68-1.41-1.16-1.32c-0.35,0.07-0.57,0.49-0.6,1.03
		l-1.13,0.41c-0.19-0.67-0.47-1.3-0.81-1.89l1.02-0.43c0.32,0.3,0.69,0.42,0.93,0.27c0.34-0.21,0.33-0.86-0.04-1.46
		c-0.36-0.6-0.94-0.91-1.28-0.7c-0.25,0.15-0.31,0.53-0.19,0.95l-0.86,0.72c-0.42-0.58-0.9-1.11-1.45-1.56l0.94-0.84
		c0.52,0.24,1.02,0.23,1.25-0.06c0.31-0.39,0.01-1.14-0.66-1.68c-0.68-0.54-1.48-0.66-1.79-0.27c-0.23,0.29-0.13,0.78,0.22,1.23
		l-0.62,1.12c-0.57-0.38-1.19-0.69-1.84-0.92l0.53-0.98c0.49,0.03,0.89-0.12,1-0.43c0.14-0.42-0.33-0.95-1.06-1.2
		c-0.72-0.24-1.42-0.1-1.56,0.31c-0.1,0.3,0.12,0.67,0.53,0.94l-0.17,1.12c-0.68-0.18-1.4-0.27-2.12-0.27l0.17-1.19
		c0.52-0.14,0.88-0.45,0.87-0.8c-0.01-0.47-0.68-0.83-1.49-0.81c-0.81,0.02-1.46,0.42-1.45,0.88c0.01,0.35,0.38,0.64,0.91,0.76
		l0.23,1.2c-0.27,0.03-0.55,0.07-0.83,0.12c-0.43,0.09-0.83,0.21-1.23,0.36l-0.31-1.44C8.98,29.85,9.25,29.36,9.1,28.98z M4.5,38.21
		c-0.06-0.3,0.13-0.59,0.43-0.65c0.3-0.06,0.59,0.13,0.65,0.43c0.06,0.3-0.13,0.59-0.43,0.65C4.85,38.71,4.56,38.51,4.5,38.21z
		 M10.16,37.98c-0.08-0.41,0.18-0.8,0.59-0.88c0.41-0.08,0.8,0.18,0.89,0.59c0.08,0.41-0.18,0.8-0.59,0.89
		C10.64,38.65,10.24,38.38,10.16,37.98z M9.7,40.02c0.3-0.06,0.59,0.13,0.65,0.43c0.06,0.3-0.13,0.59-0.43,0.65
		c-0.3,0.06-0.59-0.13-0.65-0.43C9.21,40.37,9.4,40.08,9.7,40.02z M5.58,41.98c-0.08-0.41,0.18-0.8,0.59-0.89
		c0.41-0.08,0.8,0.18,0.88,0.59c0.08,0.41-0.18,0.8-0.59,0.88C6.06,42.65,5.66,42.39,5.58,41.98z M11.63,46.5
		c-0.3,0.06-0.59-0.13-0.65-0.43c-0.06-0.3,0.13-0.59,0.43-0.65c0.3-0.06,0.59,0.13,0.65,0.43C12.12,46.14,11.93,46.44,11.63,46.5z
		 M15.88,43.47c0.13,0.66-0.29,1.3-0.95,1.44c-0.66,0.13-1.3-0.29-1.44-0.95c-0.13-0.66,0.29-1.3,0.95-1.44
		C15.1,42.38,15.74,42.81,15.88,43.47z M11.07,43.56c0.19,0.94-0.42,1.85-1.36,2.04c-0.94,0.19-1.85-0.42-2.04-1.36
		c-0.19-0.94,0.42-1.85,1.36-2.04C9.97,42.01,10.88,42.62,11.07,43.56z M17.35,40.49c0.06,0.3-0.13,0.59-0.43,0.65
		c-0.3,0.06-0.59-0.13-0.65-0.43c-0.06-0.3,0.13-0.59,0.43-0.65C17,39.99,17.29,40.19,17.35,40.49z M13.43,40.94
		c-0.66,0.13-1.3-0.29-1.44-0.95c-0.13-0.66,0.29-1.3,0.95-1.44c0.66-0.13,1.3,0.29,1.44,0.95C14.52,40.16,14.09,40.8,13.43,40.94z
		 M18.51,36.66c0.23,1.14-0.51,2.25-1.65,2.48c-1.14,0.23-2.25-0.51-2.48-1.65c-0.23-1.14,0.51-2.25,1.65-2.48
		C17.17,34.78,18.28,35.52,18.51,36.66z M8.15,37.83c-0.94,0.19-1.85-0.42-2.04-1.36c-0.19-0.94,0.42-1.85,1.36-2.04
		s1.85,0.42,2.04,1.36C9.69,36.73,9.09,37.64,8.15,37.83z M13.07,33c0.13,0.66-0.29,1.3-0.95,1.44c-0.66,0.13-1.3-0.29-1.44-0.95
		c-0.13-0.66,0.29-1.3,0.95-1.44C12.3,31.91,12.94,32.34,13.07,33z"/>
</g>
</svg>
